<svg width="219" height="174" viewBox="0 0 219 174" fill="none" xmlns="http://www.w3.org/2000/svg">
<g opacity="0.2" clip-path="url(#clip0_1374_38)">
<mask id="mask0_1374_38" style="mask-type:alpha" maskUnits="userSpaceOnUse" x="-213" y="-26" width="432" height="202">
<path d="M-212.081 -25.6279H219V175.349H-212.081V-25.6279Z" fill="white"/>
</mask>
<g mask="url(#mask0_1374_38)">
<g opacity="0.7">
<g style="mix-blend-mode:multiply" opacity="0.15">
<path d="M-200.873 277.672C-193.458 265.8 -185.354 255.992 -176.732 247.733C-131.9 202.996 -70.6863 228.462 -8.43822 186.306C47.6023 147.247 88.4688 56.9132 219 109.221V107.328C88.2964 53.8161 46.7402 146.043 -9.12794 185.101C-71.7209 227.257 -133.624 199.555 -178.457 242.915C-190.527 254.96 -201.563 271.134 -212.081 290.061V298.148C-208.46 290.921 -204.666 284.039 -200.873 277.672Z" fill="#29ABE2"/>
</g>
<g style="mix-blend-mode:multiply" opacity="0.15">
<path d="M-212.081 300.901C-207.943 292.814 -203.804 285.243 -199.493 278.188C-159.834 211.427 -118.967 228.462 -44.4766 205.061C-13.9561 197.318 13.8056 169.788 43.8088 140.537C19.3234 161.529 -1.88577 183.209 -25.6815 193.877C-89.1366 223.644 -149.488 207.126 -184.492 253.411C-193.803 263.047 -203.114 275.951 -212.081 292.298L-212.081 300.901Z" fill="#29ABE2"/>
</g>
<g style="mix-blend-mode:multiply" opacity="0.15">
<path d="M212.103 113.007C126.576 84.2717 79.3298 106.296 43.8087 140.709C79.5022 109.221 126.921 89.4336 212.103 113.007Z" fill="#29ABE2"/>
</g>
<g style="mix-blend-mode:multiply" opacity="0.15">
<path d="M-212.081 304.17C-207.253 294.878 -202.425 286.103 -197.424 278.36C-189.665 267.004 -181.388 257.368 -172.421 249.625C-127.072 208.158 -66.2031 230.182 -5.33446 187.51C15.7023 174.089 35.1872 151.893 57.6034 132.277C26.9104 155.162 3.28717 182.864 -24.4745 195.253C-87.4123 225.364 -147.591 210.395 -182.767 255.992C-192.596 265.799 -202.425 279.565 -211.909 296.599V304.342L-212.081 304.17Z" fill="#29ABE2"/>
</g>
<g style="mix-blend-mode:multiply" opacity="0.15">
<path d="M219 116.103V114.727C140.543 84.6155 93.8142 98.7248 57.4309 132.105C92.6071 105.091 139.681 95.4556 219 116.103Z" fill="#29ABE2"/>
</g>
<g style="mix-blend-mode:multiply" opacity="0.15">
<path d="M-195.01 277.672C-187.251 267.004 -179.146 257.885 -170.352 250.486C-124.83 210.395 -64.134 230.698 -3.95505 187.854C51.2233 147.763 91.5725 65.5163 219.173 113.867V112.146C91.4001 62.5912 50.3612 146.559 -4.64478 186.478C-65.1686 229.494 -126.21 207.126 -171.904 245.84C-186.216 258.573 -199.493 275.951 -211.909 297.804V306.407C-206.391 295.911 -200.873 286.103 -194.838 277.5L-195.01 277.672Z" fill="#29ABE2"/>
</g>
<g style="mix-blend-mode:multiply" opacity="0.15">
<path d="M-193.286 278.189C-185.526 267.521 -177.25 258.745 -168.283 251.347C-122.416 212.632 -62.2372 231.215 -2.57552 188.199C52.258 147.936 92.6072 68.2698 219 115.243V113.695C92.0899 65.5167 51.3958 146.731 -3.26526 186.994C-63.0993 230.183 -123.968 209.535 -170.007 247.045C-185.181 259.95 -199.148 277.844 -212.081 300.557V309.676C-206.046 298.148 -199.838 287.48 -193.286 278.189Z" fill="#29ABE2"/>
</g>
<g style="mix-blend-mode:multiply" opacity="0.15">
<path d="M-191.906 279.048C-183.974 268.38 -175.353 259.605 -166.214 252.378C-120.174 215.04 -60.168 232.075 -1.19606 188.887C53.2926 148.451 93.4694 71.3665 219 117.136V115.415C93.1245 68.6134 52.6029 147.247 -1.88579 187.51C-61.0301 230.87 -121.726 212.115 -167.766 248.077C-183.802 261.67 -198.459 280.253 -212.081 303.998V312.945C-205.529 300.557 -198.804 289.028 -191.906 279.048Z" fill="#29ABE2"/>
</g>
<g style="mix-blend-mode:multiply" opacity="0.15">
<path d="M-190.182 279.565C-182.078 269.241 -173.456 260.293 -164.145 253.411C-117.933 217.277 -58.2712 232.763 0.0109253 189.403C54.3271 148.623 94.159 74.1195 218.828 118.512V116.964C93.8142 71.3665 53.6374 147.419 -0.678802 188.026C-59.1334 231.559 -119.485 214.352 -165.869 249.109C-182.767 262.874 -198.114 281.974 -212.253 306.579V315.698C-205.184 302.449 -197.942 290.061 -190.354 279.565H-190.182Z" fill="#29ABE2"/>
</g>
<g style="mix-blend-mode:multiply" opacity="0.15">
<path d="M-187.596 279.049C-179.491 269.241 -171.042 260.982 -161.903 254.271C-115.519 219.514 -56.202 233.279 1.56282 189.747C55.5342 148.968 95.1936 76.8727 219 119.889V118.34C95.0212 74.1197 54.8445 147.591 0.873093 188.371C-57.0642 231.903 -117.071 216.417 -163.627 249.97C-181.388 263.563 -197.424 283.006 -212.253 308.3V317.247C-204.494 302.794 -196.39 289.717 -187.768 278.877L-187.596 279.049Z" fill="#29ABE2"/>
</g>
<g style="mix-blend-mode:multiply" opacity="0.15">
<path d="M-185.871 279.565C-177.767 269.929 -169.145 261.842 -159.834 255.304C-113.277 221.579 -54.1329 233.968 2.94228 190.435C56.7412 149.484 96.0558 79.9699 219 121.437V119.889C95.8834 77.0448 56.0515 148.107 2.25255 189.059C-55.1674 232.591 -114.657 218.826 -161.558 251.174C-180.181 264.939 -196.907 284.899 -212.253 311.053V320.172C-203.977 304.686 -195.183 290.921 -186.044 279.565H-185.871Z" fill="#29ABE2"/>
</g>
<g style="mix-blend-mode:multiply" opacity="0.15">
<path d="M-183.974 280.253C-175.698 270.79 -166.904 262.875 -157.592 256.508C-110.863 223.816 -52.2361 234.484 4.49417 191.124C57.9482 150 97.2628 82.895 219.173 122.986V121.437C96.9179 79.9699 57.2585 148.624 3.97687 189.747C-52.7534 233.279 -112.07 221.063 -158.972 252.379C-178.457 266.316 -195.872 286.62 -211.736 313.806V322.925C-202.77 306.579 -193.631 291.954 -183.63 280.253H-183.974Z" fill="#29ABE2"/>
</g>
<g style="mix-blend-mode:multiply" opacity="0.15">
<path d="M202.102 122.47C160.89 114.383 129.853 117.136 104.333 125.739C130.887 118.168 162.615 115.759 202.102 122.47Z" fill="#29ABE2"/>
</g>
<g style="mix-blend-mode:multiply" opacity="0.15">
<path d="M104.505 125.739C53.8099 140.193 21.7374 173.229 -10.8523 198.523C-5.33446 194.737 0.183373 190.952 5.35635 186.822C37.6012 167.207 64.1558 139.504 104.677 125.739H104.505Z" fill="#29ABE2"/>
</g>
<g style="mix-blend-mode:multiply" opacity="0.15">
<path d="M202.102 123.846C160.89 115.931 129.853 118.856 104.505 127.46C131.06 119.889 162.615 117.48 202.102 123.846Z" fill="#29ABE2"/>
</g>
<g style="mix-blend-mode:multiply" opacity="0.15">
<path d="M104.505 127.632C53.9823 142.257 21.9099 175.294 -10.8523 200.415C-4.81716 196.458 1.04554 192.156 6.73581 187.51C38.4634 168.067 64.8456 141.053 104.505 127.632Z" fill="#29ABE2"/>
</g>
<g style="mix-blend-mode:multiply" opacity="0.15">
<path d="M-177.767 280.941C-169.49 272.338 -160.524 265.284 -151.212 259.433C-111.898 248.077 -42.9248 230.01 7.94283 188.371C62.259 154.818 100.539 100.274 219 129.008V127.632C100.194 97.8647 61.7417 153.442 7.25308 186.994C-43.9594 228.806 -113.277 245.668 -152.937 255.648C-175.008 269.241 -194.665 291.093 -212.253 320.86V328.947C-201.563 309.676 -190.182 293.33 -177.939 280.941H-177.767Z" fill="#29ABE2"/>
</g>
<g style="mix-blend-mode:multiply" opacity="0.15">
<path d="M-176.387 281.974C-167.593 273.199 -158.455 266.144 -148.971 260.294C-109.139 249.798 -41.2005 230.182 9.49466 188.887C63.2936 155.162 101.746 102.51 219 130.041V128.664C101.229 99.9294 62.7763 153.958 8.80493 187.51C-42.0626 228.978 -110.518 247.217 -150.523 256.508C-172.249 270.962 -192.596 289.717 -211.909 322.409V331.356C-200.356 310.709 -188.458 295.051 -176.215 281.974H-176.387Z" fill="#29ABE2"/>
</g>
<g style="mix-blend-mode:multiply" opacity="0.15">
<path d="M-174.663 282.662C-165.869 274.059 -156.558 267.004 -146.901 261.326C-106.725 251.519 -39.4761 230.527 10.7018 189.575C63.9834 156.023 102.436 104.747 219 131.417V130.041C102.091 102.338 63.6385 154.646 10.1845 188.199C-40.3382 229.322 -107.932 249.11 -148.453 257.713C-171.042 272.166 -192.079 291.438 -212.081 325.162V333.938C-199.838 312.429 -187.423 296.083 -174.663 282.662Z" fill="#29ABE2"/>
</g>
<g style="mix-blend-mode:multiply" opacity="0.15">
<path d="M-172.766 283.178C-163.8 274.575 -154.489 267.864 -144.66 262.186C-104.138 253.239 -37.7518 230.698 12.2536 190.263C65.1904 156.711 103.47 107.156 219.173 132.794V131.417C103.298 104.747 64.8455 155.506 11.7363 188.887C-38.4415 229.494 -105.345 250.83 -146.039 258.745C-169.49 273.37 -191.217 292.814 -211.909 327.399V336.174C-199.149 313.634 -186.044 296.771 -172.594 283.178H-172.766Z" fill="#29ABE2"/>
</g>
<g style="mix-blend-mode:multiply" opacity="0.15">
<path d="M219 136.235C148.303 117.652 107.609 122.47 73.1223 147.591C107.609 126.599 149.51 124.018 219 136.235Z" fill="#29ABE2"/>
</g>
<g style="mix-blend-mode:multiply" opacity="0.15">
<path d="M-212.081 337.206C-198.631 313.461 -184.837 296.255 -170.525 282.834C-121.381 237.753 -63.2717 246.012 -2.40309 206.265C22.772 191.64 45.7056 166.69 73.1223 147.763C16.7369 187.682 -33.2685 233.796 -92.5853 238.957C-142.591 258.917 -179.146 269.929 -212.081 327.227V337.378V337.206Z" fill="#29ABE2"/>
</g>
<g style="mix-blend-mode:multiply" opacity="0.15">
<path d="M219 137.439C148.648 119.545 108.299 124.018 73.812 149.14C108.299 128.32 149.855 126.083 219 137.439Z" fill="#29ABE2"/>
</g>
<g style="mix-blend-mode:multiply" opacity="0.15">
<path d="M-212.081 340.304C-197.941 315.527 -183.457 297.804 -168.283 283.867C-119.14 239.99 -61.375 246.873 -1.02365 206.954C23.8066 192.328 46.7401 167.723 73.9845 149.14C17.5991 188.371 -32.0615 234.828 -91.0334 240.679C-141.384 261.498 -178.284 272.166 -211.909 330.496V340.476L-212.081 340.304Z" fill="#29ABE2"/>
</g>
<g style="mix-blend-mode:multiply" opacity="0.15">
<path d="M219 140.021V137.612C121.403 116.62 81.2266 138.128 41.0498 175.81C81.5714 147.763 127.956 135.031 219 139.848V140.021Z" fill="#29ABE2"/>
</g>
<g style="mix-blend-mode:multiply" opacity="0.15">
<path d="M-164.662 285.071C-155.523 277.5 -146.039 271.306 -136.211 266.316C-94.3096 259.433 -31.0269 232.247 17.5991 193.189C68.8115 159.808 107.092 116.276 219 137.784V136.579C106.747 114.039 68.4666 158.431 17.0818 191.812C-31.7166 230.871 -95.3442 257.197 -137.59 262.875C-164.145 277.672 -188.63 297.288 -212.081 336.002V344.261C-196.734 317.591 -181.043 299.18 -164.662 284.899V285.071Z" fill="#29ABE2"/>
</g>
<g style="mix-blend-mode:multiply" opacity="0.15">
<path d="M-162.765 285.759C-153.454 278.188 -143.97 272.338 -133.969 267.176C-91.8955 260.81 -29.3026 232.419 19.1509 193.877C70.0185 160.668 108.298 118.512 219.173 138.988V137.784C107.954 116.275 69.5012 159.292 18.6336 192.5C-29.9923 231.215 -92.7577 258.573 -135.176 263.907C-162.42 278.704 -187.768 298.32 -211.736 338.239V346.498C-195.872 318.796 -179.491 300.041 -162.42 285.587L-162.765 285.759Z" fill="#29ABE2"/>
</g>
<g style="mix-blend-mode:multiply" opacity="0.15">
<path d="M-161.041 286.447C-151.557 279.221 -141.901 273.026 -132.072 268.037C-89.6539 262.186 -27.9231 232.591 20.1855 194.565C70.5358 161.529 108.816 120.749 218.828 140.193V138.988C108.471 118.512 70.1909 159.98 19.6682 193.188C-28.6128 231.387 -90.6885 260.122 -133.279 264.939C-161.386 279.909 -187.423 299.868 -212.081 340.82V348.735C-195.527 320.172 -178.629 301.073 -161.041 286.447Z" fill="#29ABE2"/>
</g>
<g style="mix-blend-mode:multiply" opacity="0.15">
<path d="M-159.144 287.136C-149.66 279.737 -139.832 273.887 -129.831 268.897C-87.2399 263.219 -26.0264 232.936 21.7374 195.253C71.7428 162.217 110.023 122.986 219.173 141.397V140.193C109.678 120.749 71.3979 160.841 21.2201 193.877C-26.7161 231.731 -88.1021 261.326 -131.038 265.8C-160.006 280.942 -186.561 300.901 -211.909 342.885V350.628C-194.838 321.033 -177.25 301.761 -158.972 286.964L-159.144 287.136Z" fill="#29ABE2"/>
</g>
<g style="mix-blend-mode:multiply" opacity="0.15">
<path d="M-156.385 286.964C-147.074 280.253 -137.418 274.747 -127.761 269.93C-84.8258 264.595 -24.4744 233.28 22.9445 195.942C72.4326 163.077 110.713 125.051 219 142.602V141.397C110.368 122.814 72.0877 161.701 22.4272 194.565C-25.1642 231.903 -85.8604 262.531 -128.968 266.832C-158.454 281.458 -185.871 300.901 -212.081 343.917V351.316C-194.148 320.517 -175.698 301.245 -156.385 286.792V286.964Z" fill="#29ABE2"/>
</g>
<g style="mix-blend-mode:multiply" opacity="0.15">
<path d="M219 147.764V145.183C118.3 128.664 80.5369 150.344 39.1531 188.027C80.8817 161.185 126.749 148.968 219 147.591V147.764Z" fill="#29ABE2"/>
</g>
<g style="mix-blend-mode:multiply" opacity="0.15">
<path d="M-152.764 288.512C-143.453 282.146 -133.624 276.64 -123.278 271.822C-79.9977 267.004 -21.1983 233.796 25.7034 197.49C74.5017 164.97 112.609 129.524 219 145.182V143.978C112.264 127.632 73.9844 163.765 25.0136 196.286C-22.0604 232.763 -81.2048 265.284 -124.83 269.069C-158.11 283.866 -187.078 307.783 -212.253 348.563V355.962C-194.32 325.506 -174.663 303.654 -152.937 288.684L-152.764 288.512Z" fill="#29ABE2"/>
</g>
<g style="mix-blend-mode:multiply" opacity="0.15">
<path d="M-151.04 289.373C-141.556 282.834 -131.727 277.5 -121.382 272.682C-77.9285 268.037 -19.8188 234.14 26.738 198.178C75.1915 165.83 113.299 131.761 218.828 146.215V145.182C112.954 129.697 74.8466 164.626 26.2206 196.974C-20.5085 233.107 -78.9631 266.316 -122.761 269.929C-133.107 274.403 -142.936 279.737 -152.419 285.931C-174.491 300.041 -194.32 320.86 -212.253 350.284V357.854C-193.803 326.539 -173.629 304.514 -151.212 289.373H-151.04Z" fill="#29ABE2"/>
</g>
<g style="mix-blend-mode:multiply" opacity="0.15">
<path d="M-149.143 290.061C-139.659 283.695 -129.658 278.361 -119.14 273.543C-75.5144 269.069 -18.0944 234.484 28.2899 199.039C76.2261 166.863 114.334 133.998 219 147.419V146.387C113.989 131.934 75.8813 165.486 27.7726 197.662C-18.6117 233.28 -76.549 267.349 -120.347 270.79C-155.351 285.931 -185.871 310.193 -212.081 352.348V359.747C-193.286 327.743 -172.421 305.375 -149.143 290.061Z" fill="#29ABE2"/>
</g>
<g style="mix-blend-mode:multiply" opacity="0.15">
<path d="M-147.246 290.921C-137.59 284.555 -127.589 279.393 -117.071 274.575C-73.4453 270.273 -16.5425 234.828 29.4969 199.899C77.0883 167.895 115.196 136.235 219 148.796V147.763C114.851 134.342 76.7434 166.518 28.9796 198.694C-17.2323 233.796 -74.3074 268.553 -118.278 271.994C-154.144 287.308 -185.354 311.569 -212.081 354.413V362.156C-192.768 329.291 -171.214 306.579 -147.246 290.921Z" fill="#29ABE2"/>
</g>
<g style="mix-blend-mode:multiply" opacity="0.15">
<path d="M-145.35 291.609C-135.693 285.415 -125.52 280.081 -114.829 275.435C-71.0312 271.134 -14.8182 235.172 30.8764 200.587C78.1229 168.755 116.058 138.3 219 149.828V148.796C115.713 136.407 77.778 167.379 30.3591 199.211C-15.5079 233.968 -71.8934 269.413 -116.036 272.682C-126.727 277.156 -136.9 282.318 -146.557 288.168C-170.87 302.966 -192.596 324.646 -212.081 356.306V363.877C-192.251 330.324 -170.18 307.095 -145.35 291.437V291.609Z" fill="#29ABE2"/>
</g>
<g style="mix-blend-mode:multiply" opacity="0.15">
<path d="M219 154.99V152.237C116.92 140.881 81.2266 161.528 38.6357 198.694C81.0541 173.057 126.576 161.873 219 154.99Z" fill="#29ABE2"/>
</g>
<g style="mix-blend-mode:multiply" opacity="0.15">
<path d="M219 156.194V154.302C118.472 146.903 78.9849 164.453 33.1179 203.34C76.9158 176.67 122.61 163.593 219 156.366V156.194Z" fill="#29ABE2"/>
</g>
<g style="mix-blend-mode:multiply" opacity="0.15">
<path d="M-138.97 293.158C-129.313 287.48 -119.14 282.49 -108.622 277.844C-64.4788 273.714 -10.335 236.032 34.4974 202.824C80.5369 171.852 118.472 144.666 218.828 153.269V152.409C118.3 142.773 80.192 170.476 33.9801 201.619C-11.0247 235 -65.5134 272.166 -109.829 275.435C-149.488 290.749 -183.802 316.214 -212.253 361.123V368.694C-191.044 333.077 -166.731 308.644 -139.142 293.33L-138.97 293.158Z" fill="#29ABE2"/>
</g>
<g style="mix-blend-mode:multiply" opacity="0.15">
<path d="M-137.245 294.018C-127.417 288.34 -117.243 283.35 -106.552 278.877C-62.4096 274.747 -8.78308 236.549 35.8769 203.684C81.5715 172.885 119.507 146.731 219 154.646V153.614C119.162 145.01 81.3991 171.508 35.3596 202.48C-9.30037 235.344 -63.2717 273.199 -107.587 276.468C-118.278 280.769 -128.451 285.587 -138.28 290.921C-166.041 305.547 -190.699 329.12 -212.081 363.36V370.587C-190.354 334.281 -165.524 309.504 -137.245 294.018Z" fill="#29ABE2"/>
</g>
<g style="mix-blend-mode:multiply" opacity="0.15">
<path d="M-135.349 294.707C-125.52 289.029 -115.174 284.211 -104.483 279.565C-60.3404 275.435 -7.2312 236.721 37.0839 204.373C82.4337 173.745 120.369 148.796 219 155.678V154.818C120.196 147.075 82.2613 172.713 36.7391 203.168C-7.74849 235.516 -61.0301 273.887 -105.518 277.156C-146.901 292.986 -182.595 318.452 -212.081 364.565V372.308C-189.837 335.314 -164.317 310.192 -135.349 294.535V294.707Z" fill="#29ABE2"/>
</g>
<g style="mix-blend-mode:multiply" opacity="0.15">
<path d="M-133.452 295.395C-123.451 289.889 -113.105 284.899 -102.414 280.425C-58.2712 276.124 -5.67934 237.065 38.2909 205.233C83.2958 174.95 121.059 150.861 218.828 156.883V156.023C120.886 149.312 82.9509 173.745 37.7736 204.029C-6.36908 236.033 -59.1334 274.747 -103.621 278.189C-145.867 294.363 -182.423 320 -212.253 366.802V374.373C-189.665 336.69 -163.455 311.225 -133.624 295.395H-133.452Z" fill="#29ABE2"/>
</g>
<g style="mix-blend-mode:multiply" opacity="0.15">
<path d="M-131.555 296.255C-121.554 290.749 -111.036 285.759 -100.172 281.286C-56.0296 276.984 -4.1274 237.581 39.6704 206.093C84.3304 175.982 122.093 152.925 219 158.087V157.227C121.921 151.377 84.158 174.95 39.1531 204.889C-4.81714 236.377 -56.8917 275.435 -101.379 279.049C-144.487 295.223 -181.905 321.033 -212.081 368.522V376.265C-188.975 337.895 -162.248 312.085 -131.555 296.255Z" fill="#29ABE2"/>
</g>
<g style="mix-blend-mode:multiply" opacity="0.15">
<path d="M219 163.594V162.905C110.54 165.486 69.8461 183.553 23.2893 218.31C70.1909 191.296 116.058 175.466 219 163.594Z" fill="#29ABE2"/>
</g>
<g style="mix-blend-mode:multiply" opacity="0.15">
<path d="M-127.762 297.632C-117.588 292.298 -107.07 287.308 -96.034 282.662C-51.8913 278.189 -1.19614 238.097 42.2569 207.642C86.2271 178.219 123.99 156.883 219.173 160.324V159.464C123.817 155.506 86.0547 177.014 41.912 206.61C-1.541 237.237 -52.4086 276.984 -96.8961 280.597C-141.901 297.46 -180.698 323.269 -211.909 372.308V379.879C-187.94 340.304 -159.834 313.978 -127.589 297.632H-127.762Z" fill="#29ABE2"/>
</g>
<g style="mix-blend-mode:multiply" opacity="0.15">
<path d="M-126.037 298.32C-115.864 292.986 -105.173 288.168 -93.9648 283.35C-49.8221 278.705 0.355759 238.442 43.4639 208.33C87.2617 179.079 124.68 158.776 219.173 161.357V160.496C124.68 157.399 86.9168 178.047 43.119 207.298C0.0108948 237.409 -50.3394 277.5 -94.8269 281.286C-140.866 298.32 -180.353 324.302 -211.909 373.856V381.255C-187.423 341.164 -158.799 314.494 -125.865 298.148L-126.037 298.32Z" fill="#29ABE2"/>
</g>
<g style="mix-blend-mode:multiply" opacity="0.15">
<path d="M-124.14 299.008C-113.794 293.674 -103.104 288.856 -91.8955 284.21C-47.7528 279.393 1.90773 238.957 44.671 209.362C88.124 180.455 125.542 161.012 219.173 162.561V161.7C125.369 159.464 87.7791 179.251 44.3261 208.158C1.39043 237.925 -48.4426 278.016 -92.9301 282.146C-139.832 299.524 -180.008 325.678 -212.081 375.921V383.32C-187.251 342.54 -157.765 315.698 -124.14 299.18V299.008Z" fill="#29ABE2"/>
</g>
<g style="mix-blend-mode:multiply" opacity="0.15">
<path d="M219 166.863V166.519C141.75 167.551 103.815 170.476 66.9147 196.458C103.125 175.122 143.13 172.541 219 166.691V166.863Z" fill="#29ABE2"/>
</g>
<g style="mix-blend-mode:multiply" opacity="0.15">
<path d="M-120.347 300.557C-110.001 295.223 -99.1377 290.405 -87.7572 285.759C-43.6145 280.597 4.83902 239.818 47.085 211.083C89.8482 182.864 127.266 164.97 219 164.97V164.109C126.921 163.421 89.5034 181.488 46.5677 209.879C4.14931 238.785 -44.4767 279.221 -88.9642 283.694C-100.345 288.168 -111.208 292.814 -121.554 297.976C-156.385 313.978 -186.733 339.787 -212.253 379.878V386.589C-186.561 344.605 -155.868 317.419 -120.519 300.557H-120.347Z" fill="#29ABE2"/>
</g>
<g style="mix-blend-mode:multiply" opacity="0.15">
<path d="M219 170.132V167.551C119.162 169.788 82.4337 183.037 35.3596 221.923C79.8472 197.318 125.024 187.854 219 170.132Z" fill="#29ABE2"/>
</g>
<g style="mix-blend-mode:multiply" opacity="0.15">
<path d="M-115.864 301.417C-105.518 296.255 -94.8269 291.782 -83.7912 286.964C-39.8209 281.458 7.59799 240.506 49.4991 212.632C91.5726 184.929 128.99 168.755 219 167.035V166.174C128.646 167.207 91.2277 183.725 49.1542 211.427C7.25313 239.302 -40.5107 280.081 -84.6534 285.071C-135.004 302.794 -178.457 329.464 -212.081 380.911V388.482C-185.526 345.638 -153.109 317.591 -115.864 301.417Z" fill="#29ABE2"/>
</g>
<g style="mix-blend-mode:multiply" opacity="0.15">
<path d="M219 167.723C186.928 167.035 159.856 169.96 136.405 175.638C158.304 170.992 185.031 168.411 219 167.723Z" fill="#29ABE2"/>
</g>
<g style="mix-blend-mode:multiply" opacity="0.15">
<path d="M-112.243 302.794C-101.724 297.804 -90.861 293.158 -79.8253 288.512C23.8066 264.595 50.5336 166.863 219 168.583V167.895C50.1888 165.142 23.6342 264.251 -80.6875 286.792C-91.8956 291.265 -102.759 295.911 -113.277 300.557C-151.73 316.387 -185.009 343.573 -212.253 385.557V391.923C-184.837 348.047 -151.212 319.656 -112.415 302.966L-112.243 302.794Z" fill="#29ABE2"/>
</g>
<g style="mix-blend-mode:multiply" opacity="0.15">
<path d="M219 173.573V173.057C142.095 178.047 105.022 179.939 67.9492 206.093C104.332 184.929 143.302 183.381 219 173.573Z" fill="#29ABE2"/>
</g>
<g style="mix-blend-mode:multiply" opacity="0.2">
<path d="M-193.803 306.579C-186.561 293.502 -178.802 282.318 -170.352 272.854C-126.037 223.472 -65.5135 240.506 -4.12752 203.168C56.2238 164.97 90.8828 108.016 219 141.397V140.364C90.5379 105.779 55.5341 163.937 -4.81725 201.964C-66.5481 239.302 -127.417 220.891 -171.904 269.413C-186.906 286.964 -200.183 310.881 -212.081 340.304V348.907C-206.218 333.421 -200.356 318.968 -193.803 306.407V306.579Z" fill="#29ABE2"/>
</g>
<g style="mix-blend-mode:multiply" opacity="0.2">
<path d="M-212.081 348.735C-206.046 332.905 -199.838 317.935 -192.941 305.202C-155.351 233.451 -112.415 244.808 -39.9935 220.03C-10.5075 212.115 17.7714 188.887 47.9471 166.346C23.6341 182.348 1.90761 199.899 -21.1983 209.534C-83.6189 237.753 -142.418 229.322 -177.422 277.156C-189.665 291.953 -201.218 313.117 -212.081 339.959L-212.081 348.735Z" fill="#29ABE2"/>
</g>
<g style="mix-blend-mode:multiply" opacity="0.2">
<path d="M208.482 145.354C125.714 126.599 84.6751 137.611 47.947 166.346C84.6751 140.192 126.404 130.385 208.482 145.354Z" fill="#29ABE2"/>
</g>
<g style="mix-blend-mode:multiply" opacity="0.2">
<path d="M9.32227 192.5C46.3952 172.369 77.6055 145.354 132.956 138.816C73.812 144.15 42.9466 170.132 9.32227 192.5Z" fill="#29ABE2"/>
</g>
<g style="mix-blend-mode:multiply" opacity="0.2">
<path d="M206.93 141.913C182.1 137.783 160.89 136.751 142.44 138.128C160.89 137.267 182.272 138.3 206.93 141.913Z" fill="#29ABE2"/>
</g>
<g style="mix-blend-mode:multiply" opacity="0.2">
<path d="M-189.837 300.212C-182.423 288.34 -174.318 278.188 -165.697 269.929C-131.21 246.356 -54.4778 234.656 -0.678879 198.522C57.7757 170.304 95.8833 120.577 219 144.666V143.634C95.366 118.34 57.2584 169.271 -1.36861 197.318C-55.5124 233.451 -132.59 243.603 -167.249 266.316C-184.147 283.178 -198.976 307.783 -212.081 338.927V347.014C-205.184 329.463 -197.769 313.289 -189.837 300.04V300.212Z" fill="#29ABE2"/>
</g>
<g style="mix-blend-mode:multiply" opacity="0.2">
<path d="M-188.63 298.492C-181.043 286.791 -172.939 276.984 -164.145 268.897C-128.969 247.217 -52.9258 234.484 0.528214 198.694C58.4655 170.476 96.5731 121.781 219 145.354V144.322C96.2282 119.717 58.1207 169.615 -0.161514 197.662C-53.9604 233.623 -130.52 244.98 -165.697 265.8C-183.285 282.49 -198.631 307.267 -212.253 338.755V346.842C-205.011 328.775 -197.252 312.085 -188.803 298.664L-188.63 298.492Z" fill="#29ABE2"/>
</g>
<g style="mix-blend-mode:multiply" opacity="0.2">
<path d="M-187.941 297.459C-180.181 285.759 -171.732 275.951 -162.765 268.208C-126.899 248.249 -51.5465 234.484 1.73517 198.866C59.3276 170.476 97.4352 122.986 219 146.042V145.01C97.0903 120.921 58.9827 169.615 1.21788 197.834C-52.2362 233.451 -128.106 245.84 -163.972 264.939C-182.25 281.801 -198.114 306.235 -212.081 338.067V346.498C-204.494 328.087 -196.562 311.397 -187.941 297.631V297.459Z" fill="#29ABE2"/>
</g>
<g style="mix-blend-mode:multiply" opacity="0.2">
<path d="M-186.733 295.739C-178.802 284.21 -170.352 274.747 -161.041 267.176C-124.485 249.109 -49.9946 234.14 3.11462 198.866C60.3622 170.476 98.2973 124.018 219 146.387V145.354C97.78 121.781 59.8449 169.443 2.4249 197.662C-50.6843 232.935 -125.865 246.528 -162.421 263.735C-181.216 280.253 -197.597 304.686 -212.081 336.862V345.465C-204.149 326.366 -195.872 309.332 -186.733 295.395V295.739Z" fill="#29ABE2"/>
</g>
<g style="mix-blend-mode:multiply" opacity="0.2">
<path d="M-184.837 293.158C-176.905 282.49 -168.456 273.715 -159.317 266.66C-122.244 250.142 -48.2702 234.312 4.49416 199.383C61.2244 170.992 99.1595 125.567 219.173 147.419V146.387C98.8147 123.33 60.8795 169.96 3.80441 198.178C-49.1323 233.28 -123.451 247.733 -160.696 263.391C-180.181 279.221 -197.079 303.482 -211.909 336.002V344.433C-203.459 324.646 -194.493 307.095 -184.664 293.158H-184.837Z" fill="#29ABE2"/>
</g>
<g style="mix-blend-mode:multiply" opacity="0.2">
<path d="M-183.802 291.782C-175.87 281.114 -167.249 272.682 -157.937 265.8C-120.175 250.83 -46.8907 234.14 5.52872 199.383C61.9141 170.992 99.8492 126.427 219 147.936V146.903C99.5044 124.535 61.5692 169.96 5.01141 198.178C-47.5805 233.108 -121.382 248.593 -159.144 262.531C-179.319 278.188 -196.735 302.45 -211.909 335.486V343.745C-203.115 323.441 -193.803 305.719 -183.63 291.61L-183.802 291.782Z" fill="#29ABE2"/>
</g>
<g style="mix-blend-mode:multiply" opacity="0.2">
<path d="M-182.595 290.405C-174.491 280.253 -165.697 271.822 -156.213 265.111C-117.76 251.69 -45.3388 234.14 6.90819 199.555C62.9487 171.164 100.711 127.804 219.173 148.624V147.591C100.367 125.739 62.6039 170.132 6.3909 198.35C-45.8561 232.935 -118.967 249.453 -157.42 262.014C-178.284 277.328 -196.217 301.589 -211.909 334.97V343.057C-202.77 322.409 -193.113 304.514 -182.423 290.405H-182.595Z" fill="#29ABE2"/>
</g>
<g style="mix-blend-mode:multiply" opacity="0.2">
<path d="M121.576 147.419C61.3968 157.743 25.3585 188.714 -12.2318 211.771C-5.16208 207.986 1.56279 203.856 8.11522 199.555C44.4985 180.972 73.2947 156.538 121.576 147.419Z" fill="#29ABE2"/>
</g>
<g style="mix-blend-mode:multiply" opacity="0.2">
<path d="M121.576 148.279C61.7417 158.603 26.0482 189.059 -11.3696 211.943C-4.2999 208.158 2.5974 204.028 9.32226 199.727C45.1882 181.144 73.812 157.399 121.748 148.279H121.576Z" fill="#29ABE2"/>
</g>
<g style="mix-blend-mode:multiply" opacity="0.2">
<path d="M-177.939 285.243C-169.835 276.296 -160.869 268.897 -151.385 263.219C-111.208 253.927 -40.8556 233.452 10.5292 199.899C65.3627 171.508 103.125 131.417 219 150.516V149.484C102.781 129.352 64.8455 170.476 10.0119 198.867C-41.3729 232.591 -112.415 252.034 -152.592 260.294C-175.525 274.059 -195.01 298.492 -212.081 332.733V339.787C-201.735 317.419 -190.527 299.008 -177.939 285.071V285.243Z" fill="#29ABE2"/>
</g>
<g style="mix-blend-mode:multiply" opacity="0.2">
<path d="M-177.25 284.727C-168.456 275.435 -159.489 268.381 -149.833 262.702C-109.311 254.787 -39.3038 233.451 11.7363 200.071C66.2249 171.68 103.988 132.45 219 151.032V150.172C103.47 130.557 65.7076 170.648 11.0465 199.039C-40.1659 232.591 -110.346 252.895 -151.04 259.949C-173.456 273.715 -193.631 294.362 -212.081 331.872V339.099C-201.045 315.698 -189.492 298.32 -177.25 284.899V284.727Z" fill="#29ABE2"/>
</g>
<g style="mix-blend-mode:multiply" opacity="0.2">
<path d="M-176.043 283.522C-167.249 274.575 -157.937 267.692 -148.109 262.186C-107.07 255.475 -37.7518 233.279 12.9433 200.243C66.9146 171.852 104.677 133.826 219 151.721V150.86C104.332 131.933 66.5698 170.82 12.426 199.21C-38.4416 232.591 -108.104 253.755 -149.316 259.605C-172.422 273.198 -193.113 293.502 -212.081 331.184V338.583C-200.701 314.666 -188.63 297.115 -176.043 283.694V283.522Z" fill="#29ABE2"/>
</g>
<g style="mix-blend-mode:multiply" opacity="0.2">
<path d="M-174.836 282.318C-165.869 273.543 -156.385 266.832 -146.557 261.67C-105.001 255.992 -36.3724 232.935 13.9778 200.071C67.6043 171.68 105.367 134.686 218.828 152.237V151.377C105.022 132.966 67.2595 170.82 13.4606 199.211C-37.2346 232.247 -106.035 254.271 -147.764 259.089C-171.559 272.338 -192.769 292.298 -212.081 330.496V337.895C-200.356 313.634 -187.941 295.911 -174.836 282.49V282.318Z" fill="#29ABE2"/>
</g>
<g style="mix-blend-mode:multiply" opacity="0.2">
<path d="M219 153.614V152.409C106.229 135.891 55.0168 174.09 5.70117 205.405C61.2244 178.047 101.574 138.644 219 153.614Z" fill="#29ABE2"/>
</g>
<g style="mix-blend-mode:multiply" opacity="0.2">
<path d="M219 154.13V152.925C106.229 136.923 55.1892 174.777 5.87354 206.093C61.5692 178.735 101.574 139.676 219 154.13Z" fill="#29ABE2"/>
</g>
<g style="mix-blend-mode:multiply" opacity="0.2">
<path d="M219 158.259V156.539C121.748 144.322 84.5027 152.925 42.4292 187.166C84.1579 161.701 127.611 159.292 219 158.431V158.259Z" fill="#29ABE2"/>
</g>
<g style="mix-blend-mode:multiply" opacity="0.2">
<path d="M-168.801 277.328C-159.662 269.929 -149.833 264.423 -139.832 260.121C-96.3789 258.401 -30.5097 232.247 18.9784 200.587C71.0529 172.54 108.816 139.676 219.172 154.646V153.785C108.471 137.783 70.8805 171.508 18.6335 199.382C-31.027 231.042 -97.0686 256.508 -140.694 257.368C-166.904 268.897 -190.355 287.48 -211.736 326.882V334.797C-198.286 307.955 -183.975 289.544 -168.456 276.984L-168.801 277.328Z" fill="#29ABE2"/>
</g>
<g style="mix-blend-mode:multiply" opacity="0.2">
<path d="M-167.593 276.467C-158.282 269.241 -148.453 263.907 -138.28 259.949C-94.3097 259.089 -29.1302 232.247 19.8406 200.931C71.5703 172.884 109.333 141.052 218.828 155.506V154.646C108.988 139.332 71.3979 171.852 19.3233 199.727C-29.9924 231.214 -95.5167 257.196 -139.659 257.196C-166.559 268.38 -190.527 286.791 -212.426 326.538V334.453C-198.459 307.267 -183.802 288.856 -167.938 276.295L-167.593 276.467Z" fill="#29ABE2"/>
</g>
<g style="mix-blend-mode:multiply" opacity="0.2">
<path d="M-166.214 275.607C-156.73 268.725 -146.902 263.563 -136.556 259.605C-92.2404 259.605 -27.7507 232.075 21.2201 201.103C72.605 173.229 110.195 142.429 219 156.195V155.334C110.023 140.537 72.2601 172.197 20.7028 199.899C-28.268 231.043 -93.1026 257.885 -137.763 257.024C-165.352 267.865 -189.837 285.931 -212.253 326.194V333.765C-197.942 306.063 -182.767 287.652 -166.386 275.435L-166.214 275.607Z" fill="#29ABE2"/>
</g>
<g style="mix-blend-mode:multiply" opacity="0.2">
<path d="M-165.007 274.919C-155.351 268.209 -145.35 263.219 -134.831 259.433C-89.9989 260.122 -26.1989 231.903 22.4271 201.275C73.4671 173.401 111.057 143.634 219 157.055V156.194C110.712 141.913 73.1222 172.541 21.9098 200.243C-26.8886 231.043 -91.0335 258.573 -136.038 257.024C-164.317 267.692 -189.32 285.243 -212.081 325.85V333.249C-197.424 305.202 -181.905 286.792 -165.007 274.747V274.919Z" fill="#29ABE2"/>
</g>
<g style="mix-blend-mode:multiply" opacity="0.2">
<path d="M-162.765 273.198C-153.282 267.176 -143.28 262.53 -133.279 258.917C-88.1021 260.294 -24.8194 231.559 23.4617 201.275C74.1569 173.745 111.747 144.666 218.828 157.571V156.711C111.402 143.118 73.812 172.713 22.9444 200.243C-25.5091 230.699 -89.1367 258.917 -134.486 256.508C-163.11 266.316 -188.975 282.834 -212.253 323.785V331.528C-196.907 302.622 -180.698 284.383 -162.938 273.026L-162.765 273.198Z" fill="#29ABE2"/>
</g>
<g style="mix-blend-mode:multiply" opacity="0.2">
<path d="M219 162.561V160.496C119.162 150.516 82.9509 159.808 39.8428 194.221C82.606 169.443 126.231 167.206 219 162.561Z" fill="#29ABE2"/>
</g>
<g style="mix-blend-mode:multiply" opacity="0.2">
<path d="M-160.179 271.822C-150.695 266.144 -140.522 262.014 -129.658 258.573C-83.7913 261.326 -21.888 231.214 26.0482 201.619C76.0536 174.261 113.644 147.247 219.173 158.947V158.087C113.299 145.698 75.7087 173.229 25.5309 200.587C-22.5778 230.354 -84.6534 259.949 -130.693 256.336C-162.765 265.455 -189.492 285.243 -211.909 323.097V328.947C-196.562 301.933 -179.491 283.35 -160.006 271.822H-160.179Z" fill="#29ABE2"/>
</g>
<g style="mix-blend-mode:multiply" opacity="0.2">
<path d="M-158.972 271.134C-149.316 265.628 -138.97 261.498 -128.106 258.229C-81.8946 261.498 -20.681 230.871 27.0827 201.62C76.7433 174.433 114.334 148.279 219 159.464V158.603C113.989 146.903 76.3984 173.401 26.5654 200.587C-21.1983 230.01 -82.7567 260.122 -129.141 256.164C-161.903 264.939 -189.148 284.383 -212.081 322.237V328.087C-196.39 300.901 -178.974 282.146 -158.972 270.962V271.134Z" fill="#29ABE2"/>
</g>
<g style="mix-blend-mode:multiply" opacity="0.2">
<path d="M-157.592 270.617C-147.764 265.283 -137.418 261.498 -126.382 258.401C-79.8254 262.186 -19.3016 230.87 28.1173 201.964C77.433 174.949 115.023 149.828 219 160.324V159.636C114.851 148.452 77.0881 174.089 27.7725 201.103C-19.8189 230.182 -80.6875 260.982 -127.417 256.336C-160.869 264.939 -188.803 284.038 -212.081 322.237V327.915C-196.045 300.385 -178.112 281.802 -157.592 270.962V270.617Z" fill="#29ABE2"/>
</g>
<g style="mix-blend-mode:multiply" opacity="0.2">
<path d="M-156.213 269.929C-146.384 264.767 -135.866 260.982 -124.658 258.057C-77.9286 262.359 -17.9221 230.527 29.3244 201.964C78.2952 175.122 115.885 151.033 219 160.84V160.152C115.541 149.656 77.9503 174.089 28.8071 201.104C-18.4394 229.666 -78.7908 260.982 -125.692 255.992C-160.006 264.079 -188.458 282.662 -212.081 320.86V326.883C-195.7 299.18 -177.422 280.597 -156.213 269.929Z" fill="#29ABE2"/>
</g>
<g style="mix-blend-mode:multiply" opacity="0.2">
<path d="M-154.833 269.413C-144.832 264.423 -134.142 260.982 -122.933 257.885C-75.8594 262.53 -16.5427 230.354 30.5314 202.136C79.1573 175.466 116.748 152.237 219 161.529V160.668C116.403 150.688 78.8125 174.433 30.0141 201.103C-17.06 229.494 -76.7216 261.326 -123.968 255.82C-158.972 263.735 -187.941 282.146 -212.081 320.344V326.022C-195.355 298.148 -176.56 279.737 -154.833 269.241V269.413Z" fill="#29ABE2"/>
</g>
<g style="mix-blend-mode:multiply" opacity="0.2">
<path d="M219 167.207C110.023 164.97 68.639 176.67 20.3579 208.502C68.639 181.832 113.299 172.024 219 167.207Z" fill="#29ABE2"/>
</g>
<g style="mix-blend-mode:multiply" opacity="0.2">
<path d="M219 167.895C110.54 166.002 69.3287 177.186 21.3925 208.846C69.3287 182.348 113.989 173.057 219 167.895Z" fill="#29ABE2"/>
</g>
<g style="mix-blend-mode:multiply" opacity="0.2">
<path d="M-150.005 267.348C-139.832 263.218 -129.141 260.121 -117.761 257.54C-69.9967 263.218 -12.4043 229.666 33.8076 202.48C81.399 176.326 118.989 155.85 219 163.421V162.733C118.817 154.474 81.2265 175.465 33.4627 201.619C-12.9216 228.805 -70.6864 262.186 -118.623 255.82C-156.041 262.358 -186.906 279.737 -212.081 317.591V322.753C-194.321 294.534 -173.801 276.467 -150.005 267.348Z" fill="#29ABE2"/>
</g>
<g style="mix-blend-mode:multiply" opacity="0.2">
<path d="M-148.626 266.832C-138.452 262.874 -127.589 259.949 -116.209 257.54C-68.0999 263.563 -11.1972 229.494 34.8422 202.824C82.0887 176.842 119.679 157.227 218.828 164.281V163.593C119.507 155.85 81.7438 175.982 34.3249 201.964C-11.7145 228.806 -68.9621 262.53 -117.243 255.82C-128.624 258.057 -139.487 260.81 -149.66 264.595C-173.801 272.854 -194.493 289.889 -212.426 316.903V322.237C-194.32 293.846 -173.456 275.951 -148.971 267.004L-148.626 266.832Z" fill="#29ABE2"/>
</g>
<g style="mix-blend-mode:multiply" opacity="0.2">
<path d="M-147.246 266.316C-136.901 262.53 -125.865 259.777 -114.312 257.368C-66.0308 263.563 -9.64537 229.15 36.0492 202.824C82.9509 177.014 120.714 158.431 219 164.797V164.109C120.369 157.055 82.7784 176.154 35.7044 201.963C-10.1627 228.461 -66.7205 262.53 -115.174 255.648C-154.144 261.67 -186.044 278.016 -212.081 315.526V321.032C-193.631 292.469 -172.249 274.919 -147.246 266.316Z" fill="#29ABE2"/>
</g>
<g style="mix-blend-mode:multiply" opacity="0.2">
<path d="M-145.867 265.971C-135.349 262.358 -124.313 259.605 -112.76 257.368C-64.3064 263.735 -8.43828 229.15 37.0839 202.996C83.6407 177.53 121.403 159.463 218.828 165.486V164.797C121.059 158.259 83.2958 176.498 36.5666 201.963C-9.12799 228.117 -65.1685 262.53 -113.622 255.476C-153.282 261.326 -185.871 277.328 -212.253 314.838V320.172C-193.458 291.609 -171.732 274.059 -146.039 265.799L-145.867 265.971Z" fill="#29ABE2"/>
</g>
<g style="mix-blend-mode:multiply" opacity="0.2">
<path d="M-144.315 265.627C-133.797 262.014 -122.589 259.605 -110.863 257.368C-62.2373 263.907 -7.05887 228.806 38.2909 203.168C84.6752 177.874 122.265 160.84 219 166.174V165.486C122.093 159.464 84.3303 176.842 37.946 202.308C-7.57619 228.117 -62.927 262.874 -111.725 255.648C-152.247 261.326 -185.354 276.64 -212.081 314.322V319.828C-192.941 291.093 -170.697 273.887 -144.315 265.8V265.627Z" fill="#29ABE2"/>
</g>
<g style="mix-blend-mode:multiply" opacity="0.2">
<path d="M219 171.508V170.992C109.85 172.025 70.0184 180.972 21.3925 213.148C70.0184 187.338 114.334 180.628 219 171.336V171.508Z" fill="#29ABE2"/>
</g>
<g style="mix-blend-mode:multiply" opacity="0.2">
<path d="M-141.556 264.767C-130.865 261.498 -119.312 259.261 -107.242 257.196C-58.4438 263.907 -4.3 228.29 40.7048 203.512C86.3994 178.735 123.99 163.249 219.172 167.551V166.863C123.817 161.873 86.0546 177.703 40.36 202.652C-4.64487 227.601 -58.9611 263.047 -107.932 255.648C-150.005 260.982 -184.319 275.435 -211.736 312.945V318.107C-191.906 289.2 -168.801 272.51 -141.211 264.939L-141.556 264.767Z" fill="#29ABE2"/>
</g>
<g style="mix-blend-mode:multiply" opacity="0.2">
<path d="M-140.177 264.423C-129.313 261.326 -117.761 259.261 -105.69 257.196C-56.7194 263.907 -3.09293 228.117 41.5671 203.512C86.9168 178.907 124.68 164.281 219 168.067V167.378C124.507 162.905 86.7444 177.874 41.2222 202.48C-3.61024 227.085 -57.2367 262.702 -106.552 255.303C-149.316 260.638 -184.147 274.403 -212.081 311.913V316.903C-191.906 287.996 -168.283 271.478 -140.177 264.251V264.423Z" fill="#29ABE2"/>
</g>
<g style="mix-blend-mode:multiply" opacity="0.2">
<path d="M-138.797 264.079C-127.762 261.154 -116.209 259.089 -103.966 257.196C-54.8226 264.079 -1.88582 227.945 42.6017 203.856C87.6066 179.423 125.369 165.658 218.828 168.927V168.239C125.024 164.453 87.4342 178.563 42.2569 202.996C-2.40314 227.257 -55.5123 263.046 -104.828 255.648C-148.453 260.637 -183.974 273.714 -212.253 311.052V316.214C-191.734 287.307 -167.593 271.133 -138.97 264.079H-138.797Z" fill="#29ABE2"/>
</g>
<g style="mix-blend-mode:multiply" opacity="0.2">
<path d="M219 173.057C142.613 173.057 104.85 169.271 66.9147 191.639C103.988 173.057 143.302 177.186 219 173.057Z" fill="#29ABE2"/>
</g>
<g style="mix-blend-mode:multiply" opacity="0.2">
<path d="M-135.866 263.563C-124.658 260.81 -112.76 259.089 -100.345 257.024C-51.0291 263.907 0.873062 227.429 45.0157 204.028C89.5033 180.111 127.266 167.723 219.173 170.132V169.443C126.921 166.518 89.3309 179.251 44.6709 203.168C0.528198 226.741 -51.5464 262.874 -101.035 255.476C-146.212 260.293 -182.767 272.338 -211.909 309.504V314.322C-190.872 285.415 -165.697 269.757 -135.693 263.391L-135.866 263.563Z" fill="#29ABE2"/>
</g>
<g style="mix-blend-mode:multiply" opacity="0.2">
<path d="M219 174.777V172.541C118.472 172.713 81.7438 177.186 32.0833 213.148C78.2951 189.231 121.921 188.887 219 174.949V174.777Z" fill="#29ABE2"/>
</g>
<g style="mix-blend-mode:multiply" opacity="0.2">
<path d="M-132.072 262.703C-120.864 260.466 -109.139 258.745 -96.8962 257.024C-47.4081 263.735 3.45949 226.913 47.0849 204.373C90.8828 181.144 128.645 170.132 219 171.508V170.82C128.473 168.927 90.7103 180.112 46.7401 203.512C2.9422 226.225 -48.0978 262.875 -97.7583 255.476C-144.315 259.605 -182.423 270.101 -212.081 306.407V311.741C-190.182 282.834 -163.8 268.037 -132.072 262.703Z" fill="#29ABE2"/>
</g>
<g style="mix-blend-mode:multiply" opacity="0.2">
<path d="M-130.693 262.53C-119.485 260.293 -107.587 258.745 -95.3442 257.024C-45.8561 263.563 4.49417 226.913 47.9471 204.544C91.5725 181.488 129.163 171.336 218.828 172.196V171.508C128.99 169.959 91.2277 180.627 47.6023 203.684C3.97688 225.88 -46.5458 262.702 -96.034 255.476C-143.453 259.433 -182.078 269.241 -212.253 305.374V310.88C-190.01 281.974 -163.11 267.52 -130.865 262.53H-130.693Z" fill="#29ABE2"/>
</g>
<g style="mix-blend-mode:multiply" opacity="0.2">
<path d="M-129.141 262.358C-117.761 260.293 -105.863 258.745 -93.4475 257.024C21.3925 253.755 50.1887 160.152 219 171.336V170.648C49.6714 158.603 21.0476 253.583 -94.1373 255.476C-106.552 257.024 -118.45 258.401 -129.831 260.293C-162.421 264.595 -189.665 278.016 -212.081 305.546V309.848C-189.492 281.113 -162.076 266.832 -129.141 262.186V262.358Z" fill="#29ABE2"/>
</g>
<g style="mix-blend-mode:multiply" opacity="0.2">
<path d="M219 176.842C172.616 178.391 143.13 173.229 116.403 179.939C143.13 174.605 173.305 179.939 219 176.842Z" fill="#29ABE2"/>
</g>
<g style="mix-blend-mode:multiply" opacity="0.3">
<path d="M-212.081 128.32C-194.32 119.545 -170.697 139.849 -143.97 153.442C-97.4134 185.618 -41.7177 196.974 -6.19661 182.521C49.6715 160.668 100.194 164.97 158.994 197.662C101.574 164.626 55.1894 154.99 -8.09335 180.972C-8.78308 180.972 -9.47281 181.316 -10.1625 181.488C-44.9939 194.393 -98.448 184.413 -143.625 151.721C-170.18 137.612 -193.631 116.448 -212.081 126.255L-212.081 128.32Z" fill="#29ABE2"/>
</g>
<g style="mix-blend-mode:multiply" opacity="0.3">
<path d="M-138.452 156.883C-91.7231 189.059 -37.5793 194.565 -2.92038 181.488C69.5013 144.494 130.715 189.747 219 220.891V218.826C130.542 188.715 69.3288 142.429 -2.92038 180.111C-37.5793 193.532 -92.5853 188.026 -139.659 154.13C-167.938 139.332 -193.286 114.899 -212.081 123.846V130.213C-193.286 118.34 -167.248 142.429 -138.452 156.883Z" fill="#29ABE2"/>
</g>
<g style="mix-blend-mode:multiply" opacity="0.3">
<path d="M-141.039 155.678C-96.2063 184.757 -43.0971 196.114 -7.40363 182.348C65.8802 145.355 125.369 186.306 219 220.891V218.826C125.025 185.618 65.7077 143.29 -7.40363 181.144C-43.0971 195.425 -97.0685 183.725 -142.246 152.925C-170.007 138.3 -194.493 116.792 -212.081 126.255V132.794C-194.493 120.405 -169.318 141.569 -141.039 155.678Z" fill="#29ABE2"/>
</g>
<g style="mix-blend-mode:multiply" opacity="0.3">
<path d="M-134.314 159.636C-89.1366 188.715 -37.7517 193.705 -3.09282 180.972C68.1218 144.494 126.059 189.231 219 221.407V219.342C125.714 188.371 67.9493 142.257 -3.26526 179.595C-37.9242 192.672 -90.1712 187.51 -135.693 156.883C-165.869 141.741 -193.286 115.415 -212.081 128.492V135.375C-193.286 118.856 -165.179 144.838 -134.314 159.636Z" fill="#29ABE2"/>
</g>
<g style="mix-blend-mode:multiply" opacity="0.3">
<path d="M-108.449 172.541C-58.9609 202.824 -12.4042 178.907 18.9785 174.606C83.2958 144.666 140.371 202.996 218.828 223.472V221.579C140.199 201.62 83.1234 142.602 18.9785 173.229C-12.5766 177.531 -59.6507 202.48 -109.656 170.648C-147.419 156.023 -186.906 108.189 -212.081 134.17V141.741C-187.078 110.77 -146.729 158.431 -108.449 172.541Z" fill="#29ABE2"/>
</g>
<g style="mix-blend-mode:multiply" opacity="0.3">
<path d="M-103.966 174.605C-54.8225 202.996 -10.1626 177.358 21.2202 173.917C84.5029 145.01 140.199 203.856 219 224.16V222.267C139.681 202.136 83.9856 142.773 20.7029 172.541C-10.6798 176.154 -55.8571 202.308 -105.345 172.541C-144.487 158.431 -186.388 107.844 -212.081 137.783V145.871C-186.733 110.253 -143.798 161.012 -103.966 174.433V174.605Z" fill="#29ABE2"/>
</g>
<g style="mix-blend-mode:multiply" opacity="0.3">
<path d="M-99.655 176.326C-51.2015 202.652 -8.26578 175.982 22.9445 173.057C85.365 145.182 139.509 204.201 219 224.676V222.956C138.819 202.652 84.6753 143.118 21.9099 172.025C-9.30038 175.122 -52.7534 201.964 -101.379 174.433C-141.901 160.668 -186.216 108.017 -212.081 142.429V150.344C-186.388 110.081 -140.866 163.593 -99.655 176.498V176.326Z" fill="#29ABE2"/>
</g>
<g style="mix-blend-mode:multiply" opacity="0.3">
<path d="M-95.8615 177.875C-48.2701 202.136 -6.88632 174.95 24.1515 172.541C85.8823 145.354 138.819 204.545 219 225.365V223.472C138.129 202.824 85.365 143.118 23.1169 171.164C-7.74849 173.917 -49.6496 201.275 -97.5858 175.81C-139.314 163.077 -186.044 108.016 -212.081 146.731V155.162C-186.216 110.253 -138.452 165.486 -95.8615 177.703V177.875Z" fill="#29ABE2"/>
</g>
<g style="mix-blend-mode:multiply" opacity="0.3">
<path d="M-91.8955 179.251C-44.9939 201.447 -5.162 173.917 25.531 171.852C86.5721 145.526 138.129 204.889 219 226.052V224.332C138.302 203.856 88.8137 144.494 28.4623 168.927C-3.09282 170.131 -42.7523 200.587 -90.5161 178.219C-134.141 167.206 -184.837 109.565 -212.081 151.549V159.98C-186.216 110.425 -135.866 167.723 -91.8955 179.251Z" fill="#29ABE2"/>
</g>
<g style="mix-blend-mode:multiply" opacity="0.3">
<path d="M219 225.88V225.536C169.857 209.534 136.922 182.004 102.781 173.057C136.233 185.617 171.236 214.868 219 225.88Z" fill="#29ABE2"/>
</g>
<g style="mix-blend-mode:multiply" opacity="0.3">
<path d="M102.781 173.057C79.3298 163.593 56.7411 161.7 33.1179 167.379C0.0108719 172.885 -36.0275 194.049 -84.3086 180.455C-5.33455 199.899 44.4984 150.172 102.781 173.057Z" fill="#29ABE2"/>
</g>
<g style="mix-blend-mode:multiply" opacity="0.3">
<path d="M-207.77 160.496C-129.486 139.16 -30.1647 217.794 28.9796 178.391C87.9515 139.16 134.681 198.522 219 226.053V224.332C134.163 197.146 87.4342 136.235 27.6002 171.852C-31.1993 217.794 -131.9 136.579 -209.839 155.334C-210.529 156.711 -211.391 158.431 -212.081 159.808V168.755C-210.701 165.83 -209.322 162.905 -207.77 160.324V160.496Z" fill="#29ABE2"/>
</g>
<g style="mix-blend-mode:multiply" opacity="0.3">
<path d="M106.919 174.089C84.8477 164.281 63.9834 160.84 42.4293 164.454C8.80502 167.035 -26.3712 192.5 -76.0317 182.52C0.35582 193.877 48.292 147.075 106.747 174.089H106.919Z" fill="#29ABE2"/>
</g>
<g style="mix-blend-mode:multiply" opacity="0.3">
<path d="M-200.356 157.399C-160.868 135.202 -103.276 183.725 -59.8231 185.273C-14.4734 195.597 16.7369 158.775 46.9126 164.798C102.781 151.204 148.303 212.631 219 229.322V227.429C147.958 210.739 102.263 148.795 46.0504 163.249C15.8748 157.399 -15.5079 194.909 -61.2025 184.069C-105 182.004 -163.11 131.245 -202.252 152.409C-205.529 156.538 -208.805 162.044 -212.081 168.067V177.014C-208.287 169.271 -204.494 162.389 -200.356 157.399Z" fill="#29ABE2"/>
</g>
<g style="mix-blend-mode:multiply" opacity="0.3">
<path d="M-196.39 156.711C-155.696 141.053 -99.4826 184.757 -57.2367 185.273C-13.2664 193.533 16.9093 158.603 46.5677 163.765C102.091 149.828 145.716 211.427 219 229.666V226.913C140.543 205.577 101.229 151.721 51.9131 161.873C19.4958 153.614 -11.5421 192.844 -57.5815 184.069C-101.552 184.069 -160.351 135.891 -198.631 151.893C-203.287 156.711 -207.943 163.593 -212.253 171.852V180.456C-207.253 170.304 -202.08 162.561 -196.562 156.711H-196.39Z" fill="#29ABE2"/>
</g>
<g style="mix-blend-mode:multiply" opacity="0.3">
<path d="M-192.424 156.539C-150.695 146.559 -95.8615 185.79 -54.4778 185.445C-11.5421 191.812 17.7714 158.603 47.2574 163.421C102.263 149.656 144.854 211.255 219.173 230.182V228.289C144.509 209.534 101.918 147.247 46.5677 161.873C17.0817 157.227 -12.4043 191.296 -55.6848 184.241C-97.241 184.241 -152.764 143.117 -194.32 151.893C-200.528 157.055 -206.391 164.97 -211.909 175.294V184.585C-205.701 172.024 -199.321 162.561 -192.251 156.539H-192.424Z" fill="#29ABE2"/>
</g>
<g style="mix-blend-mode:multiply" opacity="0.3">
<path d="M58.2931 161.184C111.575 154.646 152.786 214.869 219 231.043V227.946C151.234 209.707 111.057 157.227 61.3969 159.808C36.9115 150.689 14.4953 170.648 -14.4734 179.767C14.8401 176.498 39.498 169.616 58.1207 161.184H58.2931Z" fill="#29ABE2"/>
</g>
<g style="mix-blend-mode:multiply" opacity="0.3">
<path d="M-184.319 157.055C-138.28 158.775 -80.1702 190.263 -38.0966 184.069C5.87363 184.413 33.8077 147.075 65.8801 160.496C113.127 159.808 149.337 210.567 219 230.354V228.462C149.682 209.018 113.471 158.431 66.225 158.947C33.6352 145.182 5.70119 183.553 -38.7864 183.036C-81.2048 189.059 -140.177 156.194 -186.561 152.581C-195.872 157.399 -204.322 167.207 -212.253 182.004V190.607C-203.804 173.573 -194.493 162.561 -184.492 157.227L-184.319 157.055Z" fill="#29ABE2"/>
</g>
<g style="mix-blend-mode:multiply" opacity="0.3">
<path d="M-180.181 157.915C-68.962 208.502 17.5991 165.658 70.5358 159.808C117.265 162.905 155.717 212.804 219 230.698V228.806C156.062 211.083 117.782 161.528 71.0531 158.259C17.7715 163.937 -69.8242 209.19 -182.25 153.441C-193.113 157.571 -203.114 167.551 -212.081 184.585V193.877C-202.425 174.433 -191.906 162.733 -180.181 157.915Z" fill="#29ABE2"/>
</g>
<g style="mix-blend-mode:multiply" opacity="0.3">
<path d="M219 225.537C175.375 206.437 137.095 180.628 99.5044 166.69C135.37 182.176 169.857 216.933 219 231.215V225.537Z" fill="#29ABE2"/>
</g>
<g style="mix-blend-mode:multiply" opacity="0.3">
<path d="M-17.4048 179.251C13.6331 168.927 39.3255 156.022 63.6385 157.399C37.7736 154.302 11.219 159.464 -17.4048 179.251Z" fill="#29ABE2"/>
</g>
<g style="mix-blend-mode:multiply" opacity="0.3">
<path d="M219 226.225C174.512 206.953 134.853 177.53 95.366 163.249C132.956 177.875 166.925 215.213 219 231.215V226.225Z" fill="#29ABE2"/>
</g>
<g style="mix-blend-mode:multiply" opacity="0.3">
<path d="M-7.92102 175.638C23.6341 163.593 49.8438 151.549 74.8465 157.743C80.5368 158.431 85.8822 159.98 91.2276 161.701C58.9828 151.033 26.9103 150.861 -7.92102 175.466V175.638Z" fill="#29ABE2"/>
</g>
<g style="mix-blend-mode:multiply" opacity="0.3">
<path d="M-167.076 162.045C-50.3393 218.138 22.9445 151.033 74.8466 156.539C122.438 162.389 157.614 211.772 219 231.387V230.354C157.614 213.32 123.3 156.539 73.1223 154.646C21.2202 148.624 -40.5107 220.031 -169.145 158.087C-185.526 159.464 -199.666 169.96 -212.081 193.189V202.136C-198.976 176.154 -184.147 164.11 -167.076 162.217V162.045Z" fill="#29ABE2"/>
</g>
<g style="mix-blend-mode:multiply" opacity="0.3">
<path d="M-162.42 163.765C-32.7513 220.718 23.979 145.354 75.7087 154.99C125.714 158.603 158.649 214.524 219.173 231.903V230.01C159.166 212.804 126.059 156.882 76.226 153.269C23.979 142.773 -32.9237 221.751 -164.49 159.808C-182.767 159.98 -198.286 170.476 -211.909 195.597V204.544C-197.769 176.326 -181.388 164.453 -162.248 163.765H-162.42Z" fill="#29ABE2"/>
</g>
<g style="mix-blend-mode:multiply" opacity="0.3">
<path d="M-157.937 165.658C-27.5782 221.235 25.531 141.741 76.9158 153.785C127.439 158.087 159.166 214.524 219 231.731V229.666C159.683 212.46 127.783 156.366 77.4332 151.893C25.3586 138.988 -27.7507 222.267 -160.006 161.7C-180.181 160.668 -197.252 170.648 -212.081 198.006V206.953C-196.907 176.498 -179.146 164.97 -157.937 165.486V165.658Z" fill="#29ABE2"/>
</g>
<g style="mix-blend-mode:multiply" opacity="0.3">
<path d="M-153.281 167.723C-22.2328 221.407 27.4277 138.128 78.8126 152.409C129.68 157.743 160.028 214.524 219 231.559V229.322C160.546 212.46 130.025 156.022 79.3299 150.688C27.4277 135.375 -22.4052 222.611 -155.351 163.937C-177.767 161.7 -196.217 171.164 -212.081 200.759V209.879C-195.7 177.014 -176.56 166.002 -153.281 167.551V167.723Z" fill="#29ABE2"/>
</g>
<g style="mix-blend-mode:multiply" opacity="0.3">
<path d="M-148.453 169.787C-16.5426 221.063 29.8417 134.342 81.2266 151.204C132.267 157.571 161.063 214.18 218.655 231.042C218.655 231.042 219 231.042 219.173 231.042V228.978C161.925 212.287 132.784 156.022 81.9163 149.484C29.8417 131.417 -16.715 222.267 -150.35 166.174C-174.836 162.733 -194.838 171.68 -211.736 203.512V212.46C-194.32 177.358 -173.629 167.034 -148.109 169.787H-148.453Z" fill="#29ABE2"/>
</g>
<g style="mix-blend-mode:multiply" opacity="0.3">
<path d="M-143.798 171.852C-11.1971 220.202 32.4283 130.557 83.9856 150.172C134.336 157.743 161.753 212.115 216.069 229.666C216.931 230.01 218.138 230.182 219 230.698V228.806C219 228.806 219 228.806 218.828 228.806C166.408 209.19 133.646 160.324 84.8477 149.312C32.7731 129.18 -23.6123 222.783 -145.867 168.755C-172.594 164.109 -193.976 172.196 -212.081 206.093V215.04C-193.631 177.702 -171.387 168.239 -143.798 172.196V171.852Z" fill="#29ABE2"/>
</g>
<g style="mix-blend-mode:multiply" opacity="0.3">
<path d="M-138.97 174.089C-5.85175 218.826 35.0148 126.943 86.9169 149.14C136.577 157.915 162.96 210.395 214.344 228.461C215.724 229.15 217.448 229.494 219 230.01V227.945C219 227.945 217.793 227.601 217.276 227.257C167.96 207.47 136.233 160.324 88.1239 148.107C35.7045 124.706 -17.922 221.751 -141.039 170.648C-170.007 165.142 -192.941 172.024 -212.081 207.986V217.105C-192.596 177.53 -168.8 168.927 -138.97 173.917V174.089Z" fill="#29ABE2"/>
</g>
<g style="mix-blend-mode:multiply" opacity="0.3">
<path d="M-212.081 219.858C-191.561 177.874 -166.214 170.476 -134.141 176.154C-0.506332 216.933 38.1186 123.502 90.3656 148.107C98.9872 150 106.747 153.097 113.989 156.71C106.747 152.925 99.5045 149.484 91.5726 147.247C38.6358 120.749 -12.5766 220.374 -136.211 173.057C-167.421 166.518 -192.079 172.368 -212.081 210.567V219.686L-212.081 219.858Z" fill="#29ABE2"/>
</g>
<g style="mix-blend-mode:multiply" opacity="0.3">
<path d="M213.655 227.257C215.379 228.118 217.276 228.806 219 229.494V227.257C219 227.257 217.448 226.569 216.586 226.225C185.376 212.804 160.373 188.371 133.129 169.271C158.649 188.543 181.237 215.213 213.655 227.085V227.257Z" fill="#29ABE2"/>
</g>
<g style="mix-blend-mode:multiply" opacity="0.3">
<path d="M-129.313 178.391C-8.09335 218.138 42.9466 120.061 94.8488 148.279C140.888 162.905 170.374 205.577 213.655 226.225C215.379 227.085 217.276 227.601 219 228.462V226.225C219 226.225 217.448 225.709 216.586 225.364C172.443 205.577 142.44 162.045 95.3661 146.903C42.6018 117.48 -8.61064 219.17 -131.21 175.638C-164.662 168.239 -190.872 173.057 -212.081 213.32V222.267C-190.527 178.219 -163.627 172.024 -129.313 178.563V178.391Z" fill="#29ABE2"/>
</g>
<g style="mix-blend-mode:multiply" opacity="0.3">
<path d="M-124.313 180.456C-2.92047 215.729 46.5677 116.62 98.9871 147.764C144.682 163.766 173.305 204.717 214.172 225.193C215.724 225.881 217.448 226.397 219 227.257V225.021C219 225.021 217.793 224.504 217.276 224.332C175.375 204.889 146.234 163.077 99.5044 146.387C46.2227 113.867 -3.26534 216.933 -126.21 177.875C-162.076 169.96 -189.665 173.057 -211.909 215.557V224.332C-189.32 178.047 -160.869 173.573 -124.14 180.628L-124.313 180.456Z" fill="#29ABE2"/>
</g>
<g style="mix-blend-mode:multiply" opacity="0.3">
<path d="M-119.312 182.521C2.25252 212.976 50.1888 113.179 103.298 147.247C148.82 164.798 176.754 204.201 215.551 224.16C216.758 224.848 217.966 225.365 219.173 226.053V223.472C219.173 223.472 218.828 223.472 218.655 223.3C176.582 207.814 153.303 161.873 104.16 145.699C49.1541 111.458 15.3574 208.846 -121.209 179.768C-159.317 171.336 -188.63 172.885 -211.909 217.278V226.053C-188.285 177.703 -158.11 174.95 -119.14 182.521H-119.312Z" fill="#29ABE2"/>
</g>
<g style="mix-blend-mode:multiply" opacity="0.3">
<path d="M-114.484 184.413C7.08066 209.879 54.1547 110.253 107.609 147.247C152.786 166.346 180.203 203.856 216.931 223.472C217.621 223.816 218.31 224.16 218.828 224.504V221.923C179.341 206.265 156.752 163.077 108.298 145.526C52.7752 109.049 19.8407 204.889 -116.553 181.832C-156.903 173.229 -187.94 172.713 -212.253 219.17V228.462C-187.596 177.702 -155.868 176.67 -114.657 184.413H-114.484Z" fill="#29ABE2"/>
</g>
<g style="mix-blend-mode:multiply" opacity="0.3">
<path d="M-109.484 186.306C11.9088 206.093 58.2931 107.5 112.437 147.247C157.442 167.895 184.169 203.34 219 222.611V220.031C182.789 204.028 160.718 164.454 113.127 145.354C57.0861 106.812 24.6688 200.415 -111.38 183.897C-154.144 175.294 -186.733 172.885 -212.081 221.579V230.871C-186.388 177.875 -153.109 178.735 -109.484 186.478V186.306Z" fill="#29ABE2"/>
</g>
<g style="mix-blend-mode:multiply" opacity="0.3">
<path d="M-104.483 188.026C19.4958 200.587 66.225 102.51 121.921 149.484C162.96 171.68 188.307 201.62 219 220.203V217.45C188.997 199.383 163.304 170.648 122.61 148.28C65.0179 99.4132 20.5304 200.587 -106.552 185.79C-151.557 177.186 -185.871 172.885 -212.253 223.644V233.107C-185.699 177.703 -150.695 180.628 -104.656 188.026H-104.483Z" fill="#29ABE2"/>
</g>
<g style="mix-blend-mode:multiply" opacity="0.3">
<path d="M-99.4825 189.575C24.3239 195.425 71.398 100.446 127.611 150.344C166.926 172.885 191.411 199.383 219 217.45V214.525C191.928 197.146 167.27 171.853 128.473 149.14C70.3634 97.3485 25.3585 195.253 -101.379 187.51C-148.798 179.423 -184.664 172.885 -212.081 226.053V235.516C-184.492 177.531 -147.764 182.693 -99.4825 189.747V189.575Z" fill="#29ABE2"/>
</g>
<g style="mix-blend-mode:multiply" opacity="0.3">
<path d="M-94.6544 191.123C28.8072 189.919 76.571 99.413 133.474 151.377C170.892 173.917 194.17 197.146 219 214.352V211.427C194.86 194.909 171.064 172.885 134.508 150.344C75.8813 96.1438 30.0142 189.575 -96.3788 189.059C-146.039 181.66 -183.802 172.713 -212.081 228.289V237.581C-183.63 177.186 -145.177 184.757 -94.6544 191.123Z" fill="#29ABE2"/>
</g>
<g style="mix-blend-mode:multiply" opacity="0.3">
<path d="M-89.6539 192.328C33.2904 184.069 82.0887 98.3807 139.681 152.581C174.685 174.605 197.274 194.393 219 210.567V207.47C197.618 192.328 174.857 173.401 140.543 151.549C81.2266 95.2836 34.325 183.381 -91.5507 190.263C-143.453 183.725 -182.94 172.369 -212.253 230.182V239.474C-182.767 176.67 -142.591 186.822 -89.8264 192.156L-89.6539 192.328Z" fill="#29ABE2"/>
</g>
<g style="mix-blend-mode:multiply" opacity="0.3">
<path d="M-84.6534 193.704C37.6012 177.874 87.9515 98.3806 145.889 154.302C178.306 175.121 199.688 191.984 219 206.437V203.34C200.033 189.919 178.479 173.917 146.751 153.269C86.9169 95.2835 38.4634 177.186 -86.5501 191.812C-140.521 186.478 -181.905 172.368 -212.081 232.591V241.71C-181.56 176.498 -139.659 189.575 -84.6534 193.704Z" fill="#29ABE2"/>
</g>
<g style="mix-blend-mode:multiply" opacity="0.3">
<path d="M-79.8252 194.565C41.5672 171.336 93.6418 98.7248 152.269 155.85C181.755 175.122 201.929 189.231 219 201.792V198.694C202.102 187.166 181.927 173.573 153.303 154.818C92.9521 95.6277 42.6018 170.304 -81.5496 192.672C-137.763 188.887 -180.871 171.68 -212.081 234.14V243.259C-180.698 175.638 -136.9 191.64 -79.8252 194.393V194.565Z" fill="#29ABE2"/>
</g>
<g style="mix-blend-mode:multiply" opacity="0.3">
<path d="M-74.9971 195.597C45.5331 164.798 99.6769 99.9294 158.821 157.743C185.031 174.605 203.826 186.478 219 197.146V194.393C203.826 184.757 185.203 173.401 160.028 157.055C98.9872 97.1763 46.5677 163.765 -76.7215 194.049C-135.004 191.812 -179.836 171.68 -212.081 236.549V246.184C-179.836 175.982 -134.141 194.737 -74.9971 195.769V195.597Z" fill="#29ABE2"/>
</g>
<g style="mix-blend-mode:multiply" opacity="0.3">
<path d="M-70.1691 196.113C49.499 157.915 105.712 101.478 165.718 159.636C188.307 173.917 205.378 183.725 219 192.328V189.747C205.378 182.004 188.479 172.541 166.925 158.775C105.367 98.7248 50.5336 156.539 -71.721 194.393C-132.072 194.221 -178.802 171.164 -211.909 238.269V247.905C-178.629 175.122 -131.21 196.974 -69.9967 195.941L-70.1691 196.113Z" fill="#29ABE2"/>
</g>
<g style="mix-blend-mode:multiply" opacity="0.3">
<path d="M-65.3409 196.63C53.2926 151.033 112.092 104.059 172.788 161.529C191.756 173.057 206.93 180.972 219 187.682V185.618C206.93 179.423 192.273 172.025 174.168 160.84C111.575 101.306 54.4996 149.312 -67.0652 195.081C-129.313 197.146 -177.939 170.992 -212.081 240.506V249.626C-177.939 174.605 -128.451 199.899 -65.3409 196.63Z" fill="#29ABE2"/>
</g>
<g style="mix-blend-mode:multiply" opacity="0.3">
<path d="M-60.6853 196.974C57.0861 143.978 118.472 106.984 180.203 163.593C195.722 172.541 208.309 178.563 219 183.725V181.832C208.482 177.015 196.239 171.336 181.582 162.905C118.127 104.403 58.2931 142.085 -62.2372 195.425C-126.21 199.899 -176.905 170.132 -212.081 242.227V251.519C-176.905 173.917 -125.52 202.652 -60.6853 196.974Z" fill="#29ABE2"/>
</g>
<g style="mix-blend-mode:multiply" opacity="0.3">
<path d="M-56.0296 197.146C60.8796 137.095 125.025 110.769 187.79 165.658C199.688 171.852 210.034 176.498 219 180.111V178.563C210.379 175.122 200.378 170.82 189.342 164.97C124.507 108.361 62.0867 134.858 -57.5815 195.597C-123.451 202.824 -176.043 169.443 -212.081 243.947V253.239C-176.043 173.057 -122.588 205.405 -56.0296 196.974V197.146Z" fill="#29ABE2"/>
</g>
<g style="mix-blend-mode:multiply" opacity="0.3">
<path d="M-51.3739 197.146C64.6731 129.869 131.404 115.243 195.894 167.551C204.343 171.508 212.103 174.606 219 177.187V175.81C212.448 173.401 205.206 170.648 197.446 167.035C131.06 113.351 65.8802 127.804 -52.9258 195.942C-120.519 206.093 -175.18 169.1 -212.081 245.84V255.476C-175.18 172.713 -119.657 208.674 -51.3739 197.318V197.146Z" fill="#29ABE2"/>
</g>
<g style="mix-blend-mode:multiply" opacity="0.3">
<path d="M-46.8907 196.974C68.4666 122.986 138.129 120.577 204.171 169.099C209.516 171.336 214.172 172.885 219 174.433V173.057C214.862 171.68 210.551 170.476 206.068 168.583C137.784 118.684 69.8461 120.405 -48.2701 195.597C-117.416 209.018 -174.146 168.411 -212.081 247.561V257.024C-174.318 171.68 -116.726 211.255 -46.8907 196.63V196.974Z" fill="#29ABE2"/>
</g>
<g style="mix-blend-mode:multiply" opacity="0.3">
<path d="M-42.235 196.63C72.4326 115.931 144.854 126.599 213.137 170.476C215.207 171.164 217.103 171.68 219 172.196V170.992C217.621 170.648 216.414 170.304 215.034 169.96C144.509 125.051 73.6396 113.178 -43.7869 195.425C-114.484 212.288 -173.456 167.895 -212.081 249.798V259.089C-173.456 171.164 -113.622 214.696 -42.235 196.63Z" fill="#29ABE2"/>
</g>
<g style="mix-blend-mode:multiply" opacity="0.3">
<path d="M-37.7517 196.113C74.5018 110.253 148.993 132.622 219 169.615V168.067C147.441 131.245 74.6742 108.532 -39.3036 195.081C-111.553 215.557 -172.594 167.379 -212.081 251.518V261.154C-172.594 170.648 -110.691 217.966 -37.7517 196.285V196.113Z" fill="#29ABE2"/>
</g>
<g style="mix-blend-mode:multiply" opacity="0.3">
<path d="M-33.4409 195.597C73.4672 107.844 148.648 137.095 219 166.174V164.626C147.268 135.375 73.6396 105.607 -34.8204 194.565C-108.277 218.826 -171.559 166.69 -212.081 253.411V262.875C-171.732 169.788 -107.587 221.235 -33.4409 195.769V195.597Z" fill="#29ABE2"/>
</g>
<g style="mix-blend-mode:multiply" opacity="0.3">
<path d="M-29.1301 194.909C73.1223 106.64 147.786 139.504 219 164.109V162.905C146.406 137.095 72.0877 105.607 -30.5096 193.705C-105.345 222.095 -170.697 165.83 -212.081 254.96V264.423C-170.87 168.411 -104.656 224.16 -29.1301 194.737V194.909Z" fill="#29ABE2"/>
</g>
<g style="mix-blend-mode:multiply" opacity="0.3">
<path d="M-24.8193 194.049C73.4672 107.672 146.406 138.988 219 163.077V161.873C145.027 136.579 72.4326 106.468 -26.1988 193.016C-102.241 225.365 -169.835 164.97 -212.081 257.024V266.832C-170.18 167.895 -101.552 227.601 -24.8193 194.049Z" fill="#29ABE2"/>
</g>
<g style="mix-blend-mode:multiply" opacity="0.3">
<path d="M-20.5085 193.016C73.6396 108.704 144.854 138.472 219 162.045V160.84C143.647 135.891 72.605 107.672 -21.888 191.984C-99.1377 228.634 -168.973 164.281 -212.081 259.089V269.241C-169.318 167.034 -98.6204 230.87 -20.5085 193.016Z" fill="#29ABE2"/>
</g>
</g>
</g>
</g>
<defs>
<clipPath id="clip0_1374_38">
<rect width="219" height="174" fill="white"/>
</clipPath>
</defs>
</svg>
