<svg width="638" height="301" viewBox="0 0 638 301" fill="none" xmlns="http://www.w3.org/2000/svg">
<g opacity="0.2" clip-path="url(#clip0_1345_682)">
<mask id="mask0_1345_682" style="mask-type:alpha" maskUnits="userSpaceOnUse" x="0" y="5" width="638" height="298">
<path d="M0 5H638V303H0V5Z" fill="white"/>
</mask>
<g mask="url(#mask0_1345_682)">
<g opacity="0.7">
<g style="mix-blend-mode:multiply" opacity="0.15">
<path d="M16.588 454.721C27.5616 437.117 39.556 422.575 52.316 410.328C118.668 343.994 209.264 381.754 301.391 319.247C384.331 261.332 444.814 127.389 638 204.948V202.142C444.558 122.796 383.055 259.546 300.37 317.461C207.733 379.968 116.116 338.892 49.764 403.185C31.9 421.044 15.5672 445.026 7.62939e-06 473.09V485.082C5.35921 474.366 10.9736 464.161 16.588 454.721Z" fill="#29ABE2"/>
</g>
<g style="mix-blend-mode:multiply" opacity="0.15">
<path d="M7.62939e-06 489.164C6.12481 477.173 12.2496 465.947 18.6296 455.487C77.3256 356.496 137.808 381.754 248.054 347.056C293.225 335.575 334.312 294.754 378.717 251.382C342.478 282.508 311.089 314.655 275.871 330.473C181.958 374.61 92.6376 350.118 40.832 418.748C27.0512 433.035 13.2704 452.17 7.62939e-06 476.407L7.62939e-06 489.164Z" fill="#29ABE2"/>
</g>
<g style="mix-blend-mode:multiply" opacity="0.15">
<path d="M627.792 210.561C501.213 167.955 431.288 200.611 378.717 251.637C431.543 204.948 501.723 175.608 627.792 210.561Z" fill="#29ABE2"/>
</g>
<g style="mix-blend-mode:multiply" opacity="0.15">
<path d="M7.62939e-06 494.011C7.14561 480.234 14.2912 467.222 21.692 455.741C33.176 438.903 45.4256 424.615 58.696 413.135C125.814 351.648 215.899 384.305 305.985 321.033C337.119 301.132 365.957 268.221 399.133 239.136C353.707 273.068 318.745 314.144 277.658 332.513C184.51 377.161 95.4448 354.965 43.384 422.574C28.8376 437.117 14.2912 457.527 0.255208 482.785V494.266L7.62939e-06 494.011Z" fill="#29ABE2"/>
</g>
<g style="mix-blend-mode:multiply" opacity="0.15">
<path d="M638 215.153V213.112C521.884 168.465 452.725 189.385 398.878 238.881C450.938 198.825 520.608 184.538 638 215.153Z" fill="#29ABE2"/>
</g>
<g style="mix-blend-mode:multiply" opacity="0.15">
<path d="M25.2648 454.721C36.7488 438.903 48.7432 425.381 61.7584 414.41C129.131 354.965 218.962 385.07 308.026 321.543C389.69 262.098 449.407 140.145 638.255 211.837V209.286C449.152 135.808 388.414 260.312 307.006 319.502C217.43 383.284 127.09 350.118 59.4616 407.522C38.28 426.402 18.6296 452.17 0.255203 484.571V497.328C8.4216 481.765 16.588 467.222 25.52 454.466L25.2648 454.721Z" fill="#29ABE2"/>
</g>
<g style="mix-blend-mode:multiply" opacity="0.15">
<path d="M27.8168 455.487C39.3008 439.669 51.5504 426.657 64.8208 415.686C132.704 358.282 221.769 385.836 310.068 322.053C391.222 262.353 450.938 144.228 638 213.878V211.582C450.173 140.146 389.946 260.567 309.047 320.268C220.493 384.305 130.407 353.69 62.2688 409.308C39.8112 428.443 19.14 454.976 7.62939e-06 488.654V502.175C8.93201 485.082 18.1192 469.264 27.8168 455.487Z" fill="#29ABE2"/>
</g>
<g style="mix-blend-mode:multiply" opacity="0.15">
<path d="M29.8584 456.762C41.5976 440.944 54.3576 427.932 67.8832 417.217C136.022 361.854 224.831 387.112 312.11 323.074C392.753 263.118 452.214 148.82 638 216.684V214.133C451.704 144.738 391.732 261.332 311.089 321.033C223.555 385.326 133.725 357.516 65.5864 410.839C41.8528 430.994 20.1608 458.548 7.62939e-06 493.756V507.023C9.69761 488.653 19.6504 471.56 29.8584 456.762Z" fill="#29ABE2"/>
</g>
<g style="mix-blend-mode:multiply" opacity="0.15">
<path d="M32.4104 457.527C44.4048 442.22 57.1648 428.953 70.9456 418.748C139.339 365.17 227.638 388.132 313.896 323.839C394.284 263.373 453.235 152.902 637.745 218.725V216.429C452.725 148.82 393.263 261.587 312.875 321.798C226.362 386.346 137.042 360.833 68.3936 412.369C43.384 432.78 20.6712 461.099 -0.255196 497.583V511.105C10.208 491.46 20.9264 473.09 32.1552 457.527H32.4104Z" fill="#29ABE2"/>
</g>
<g style="mix-blend-mode:multiply" opacity="0.15">
<path d="M36.2384 456.762C48.2328 442.22 60.7376 429.974 74.2632 420.024C142.912 368.487 230.701 388.898 316.193 324.35C396.07 263.884 454.766 156.984 638 220.767V218.471C454.511 152.902 395.05 261.843 315.172 322.309C229.425 386.857 140.615 363.895 71.7112 413.645C45.4256 433.801 21.692 462.63 -0.255196 500.134V513.401C11.2288 491.97 23.2232 472.58 35.9832 456.507L36.2384 456.762Z" fill="#29ABE2"/>
</g>
<g style="mix-blend-mode:multiply" opacity="0.15">
<path d="M38.7904 457.527C50.7848 443.24 63.5448 431.249 77.3256 421.554C146.23 371.548 233.763 389.918 318.234 325.37C397.857 264.649 456.042 161.576 638 223.063V220.766C455.787 157.239 396.836 262.608 317.214 323.329C232.232 387.877 144.188 367.466 74.7736 415.431C47.212 435.841 22.4576 465.436 -0.255196 504.216V517.738C11.9944 494.776 25.0096 474.366 38.5352 457.527H38.7904Z" fill="#29ABE2"/>
</g>
<g style="mix-blend-mode:multiply" opacity="0.15">
<path d="M41.5976 458.548C53.8472 444.516 66.8624 432.78 80.6432 423.34C149.802 374.865 236.57 390.683 320.531 326.39C399.643 265.414 457.829 165.913 638.255 225.359V223.063C457.318 161.576 398.622 263.373 319.766 324.349C235.805 388.897 148.016 370.783 78.6016 417.217C49.764 437.882 23.9888 467.988 0.510406 508.298V521.82C13.7808 497.583 27.3064 475.897 42.108 458.548H41.5976Z" fill="#29ABE2"/>
</g>
<g style="mix-blend-mode:multiply" opacity="0.15">
<path d="M612.99 224.593C551.998 212.602 506.062 216.684 468.292 229.441C507.593 218.215 554.55 214.643 612.99 224.593Z" fill="#29ABE2"/>
</g>
<g style="mix-blend-mode:multiply" opacity="0.15">
<path d="M468.547 229.441C393.518 250.872 346.051 299.857 297.818 337.361C305.985 331.748 314.151 326.135 321.807 320.012C369.53 290.927 408.83 249.851 468.802 229.441H468.547Z" fill="#29ABE2"/>
</g>
<g style="mix-blend-mode:multiply" opacity="0.15">
<path d="M612.99 226.634C551.998 214.898 506.062 219.236 468.547 231.992C507.848 220.766 554.55 217.195 612.99 226.634Z" fill="#29ABE2"/>
</g>
<g style="mix-blend-mode:multiply" opacity="0.15">
<path d="M468.547 232.248C393.774 253.934 346.306 302.919 297.818 340.168C306.75 334.3 315.427 327.921 323.849 321.033C370.806 292.203 409.851 252.148 468.547 232.248Z" fill="#29ABE2"/>
</g>
<g style="mix-blend-mode:multiply" opacity="0.15">
<path d="M50.7848 459.568C63.0344 446.812 76.3048 436.351 90.0856 427.677C148.271 410.838 250.351 384.05 325.635 322.308C406.023 272.558 462.678 191.681 638 234.288V232.247C462.167 188.11 405.258 270.517 324.614 320.267C248.82 382.264 146.23 407.267 87.5336 422.064C54.868 442.219 25.7752 474.621 -0.255196 518.759V530.75C15.5672 502.175 32.4104 477.938 50.5296 459.568H50.7848Z" fill="#29ABE2"/>
</g>
<g style="mix-blend-mode:multiply" opacity="0.15">
<path d="M52.8264 461.099C65.8416 448.087 79.3672 437.627 93.4032 428.953C152.354 413.39 252.903 384.305 327.932 323.074C407.554 273.068 464.464 194.998 638 235.819V233.778C463.698 191.171 406.789 271.282 326.911 321.033C251.627 382.519 150.313 409.563 91.1064 423.34C58.9512 444.771 28.8376 472.58 0.255203 521.055V534.322C17.3536 503.706 34.9624 480.489 53.0816 461.099H52.8264Z" fill="#29ABE2"/>
</g>
<g style="mix-blend-mode:multiply" opacity="0.15">
<path d="M55.3784 462.12C68.3936 449.363 82.1744 438.903 96.4656 430.483C155.927 415.941 255.455 384.815 329.718 324.094C408.575 274.344 465.485 198.315 638 237.86V235.819C464.974 194.743 408.065 272.303 328.953 322.053C254.179 383.029 154.141 412.369 94.1688 425.126C60.7376 446.557 29.6032 475.131 7.62939e-06 525.137V538.148C18.1192 506.257 36.4936 482.02 55.3784 462.12Z" fill="#29ABE2"/>
</g>
<g style="mix-blend-mode:multiply" opacity="0.15">
<path d="M58.1856 462.885C71.456 450.129 85.2368 440.179 99.7832 431.759C159.755 418.493 258.007 385.071 332.015 325.115C410.362 275.365 467.016 201.887 638.255 239.901V237.86C466.761 198.315 409.851 273.579 331.25 323.074C256.986 383.285 157.969 414.921 97.7416 426.657C63.0344 448.343 30.8792 477.173 0.255203 528.454V541.465C19.14 508.043 38.5352 483.041 58.4408 462.885H58.1856Z" fill="#29ABE2"/>
</g>
<g style="mix-blend-mode:multiply" opacity="0.15">
<path d="M638 245.004C533.368 217.45 473.141 224.593 422.101 261.842C473.141 230.716 535.154 226.89 638 245.004Z" fill="#29ABE2"/>
</g>
<g style="mix-blend-mode:multiply" opacity="0.15">
<path d="M7.62939e-06 542.996C19.9056 507.788 40.3216 482.275 61.5032 462.375C134.235 395.531 220.238 407.777 310.323 348.842C347.582 327.156 381.524 290.162 422.101 262.098C338.65 321.288 264.642 389.663 176.854 397.317C102.846 426.912 48.7432 443.24 7.62939e-06 528.199V543.251V542.996Z" fill="#29ABE2"/>
</g>
<g style="mix-blend-mode:multiply" opacity="0.15">
<path d="M638 246.79C533.878 220.256 474.162 226.89 423.122 264.139C474.162 233.268 535.665 229.951 638 246.79Z" fill="#29ABE2"/>
</g>
<g style="mix-blend-mode:multiply" opacity="0.15">
<path d="M7.62939e-06 547.588C20.9264 510.85 42.3632 484.571 64.8208 463.906C137.553 398.847 223.045 409.053 312.365 349.862C349.114 328.176 383.055 291.693 423.377 264.139C339.926 322.308 266.429 391.194 179.15 399.868C104.632 430.739 50.0192 446.557 0.255208 533.046V547.844L7.62939e-06 547.588Z" fill="#29ABE2"/>
</g>
<g style="mix-blend-mode:multiply" opacity="0.15">
<path d="M638 250.617V247.045C493.557 215.919 434.095 247.81 374.634 303.684C434.606 262.097 503.254 243.218 638 250.361V250.617Z" fill="#29ABE2"/>
</g>
<g style="mix-blend-mode:multiply" opacity="0.15">
<path d="M70.18 465.692C83.7056 454.466 97.7416 445.281 112.288 437.882C174.302 427.677 267.96 387.367 339.926 329.452C415.721 279.957 472.375 215.409 638 247.3V245.514C471.865 212.092 415.21 277.916 339.161 327.411C266.939 385.326 172.77 424.36 110.246 432.78C70.9456 454.721 34.7072 483.806 7.62939e-06 541.21V553.456C22.7128 513.911 45.936 486.612 70.18 465.436V465.692Z" fill="#29ABE2"/>
</g>
<g style="mix-blend-mode:multiply" opacity="0.15">
<path d="M72.9872 466.712C86.768 455.486 100.804 446.812 115.606 439.158C177.874 429.718 270.512 387.622 342.223 330.472C417.507 281.232 474.162 218.725 638.255 249.086V247.3C473.651 215.409 416.742 279.191 341.458 328.431C269.491 385.836 176.598 426.402 113.819 434.311C73.4976 456.252 35.9832 485.337 0.510406 544.527V556.773C23.9888 515.697 48.2328 487.888 73.4976 466.457L72.9872 466.712Z" fill="#29ABE2"/>
</g>
<g style="mix-blend-mode:multiply" opacity="0.15">
<path d="M75.5392 467.733C89.5752 457.017 103.866 447.833 118.413 440.434C181.192 431.759 272.554 387.877 343.754 331.493C418.273 282.508 474.927 222.042 637.745 250.872V249.086C474.417 218.726 417.762 280.212 342.989 329.452C271.533 386.091 179.661 428.698 116.626 435.842C75.0288 458.038 36.4936 487.633 7.62939e-06 548.354V560.09C24.4992 517.738 49.5088 489.419 75.5392 467.733Z" fill="#29ABE2"/>
</g>
<g style="mix-blend-mode:multiply" opacity="0.15">
<path d="M78.3464 468.753C92.3824 457.783 106.929 449.108 121.73 441.709C184.765 433.29 275.361 388.387 346.051 332.514C420.059 283.529 476.714 225.359 638.255 252.658V250.872C476.203 222.042 419.549 281.487 345.286 330.472C274.34 386.601 183.489 430.484 119.944 437.117C77.0704 459.568 37.7696 489.164 0.255203 551.415V562.896C25.52 519.014 51.5504 490.439 78.6016 468.498L78.3464 468.753Z" fill="#29ABE2"/>
</g>
<g style="mix-blend-mode:multiply" opacity="0.15">
<path d="M82.4296 468.498C96.2104 458.548 110.502 450.384 124.793 443.24C188.338 435.331 277.658 388.897 347.838 333.534C421.08 284.804 477.734 228.42 638 254.444V252.658C477.224 225.104 420.57 282.763 347.072 331.493C276.637 386.856 186.806 432.27 123.006 438.648C79.3672 460.334 38.7904 489.164 7.62939e-06 552.946V563.917C26.5408 518.248 53.8472 489.674 82.4296 468.243V468.498Z" fill="#29ABE2"/>
</g>
<g style="mix-blend-mode:multiply" opacity="0.15">
<path d="M638 262.098V258.271C488.963 233.778 433.074 265.925 371.826 321.798C433.585 281.998 501.468 263.884 638 261.842V262.098Z" fill="#29ABE2"/>
</g>
<g style="mix-blend-mode:multiply" opacity="0.15">
<path d="M87.7888 470.794C101.57 461.355 116.116 453.19 131.428 446.047C195.483 438.903 282.506 389.663 351.921 335.831C424.142 287.611 480.542 235.054 638 258.271V256.485C480.031 232.248 423.377 285.825 350.9 334.045C281.23 388.132 193.697 436.352 129.131 441.965C79.8776 463.906 37.004 499.369 -0.255196 559.835V570.806C26.2856 525.647 55.3784 493.246 87.5336 471.05L87.7888 470.794Z" fill="#29ABE2"/>
</g>
<g style="mix-blend-mode:multiply" opacity="0.15">
<path d="M90.3408 472.07C104.377 462.375 118.923 454.466 134.235 447.322C198.546 440.434 284.548 390.173 353.452 336.851C425.163 288.886 481.562 238.37 637.745 259.801V258.271C481.052 235.309 424.653 287.1 352.686 335.065C283.527 388.642 197.014 437.882 132.194 443.24C116.882 449.874 102.335 457.783 88.2992 466.967C55.6336 487.888 26.2856 518.759 -0.255196 562.386V573.612C27.0512 527.178 56.9096 494.521 90.0856 472.07H90.3408Z" fill="#29ABE2"/>
</g>
<g style="mix-blend-mode:multiply" opacity="0.15">
<path d="M93.148 473.09C107.184 463.651 121.986 455.742 137.553 448.598C202.118 441.965 287.1 390.683 355.749 338.127C426.694 290.417 483.094 241.687 638 261.587V260.057C482.583 238.626 426.184 288.376 354.983 336.086C286.334 388.897 200.587 439.413 135.766 444.516C83.9608 466.967 38.7904 502.941 7.62939e-06 565.448V576.418C27.8168 528.964 58.696 495.797 93.148 473.09Z" fill="#29ABE2"/>
</g>
<g style="mix-blend-mode:multiply" opacity="0.15">
<path d="M95.9552 474.366C110.246 464.926 125.048 457.272 140.615 450.129C205.181 443.75 289.397 391.193 357.535 339.402C427.97 291.948 484.37 245.004 638 263.628V262.098C483.859 242.197 427.46 289.907 356.77 337.616C288.376 389.663 203.905 441.199 138.829 446.302C85.7472 469.008 39.556 504.982 7.62939e-06 568.509V579.99C28.5824 531.26 60.4824 497.583 95.9552 474.366Z" fill="#29ABE2"/>
</g>
<g style="mix-blend-mode:multiply" opacity="0.15">
<path d="M98.7624 475.387C113.054 466.202 128.11 458.293 143.933 451.404C208.754 445.026 291.949 391.704 359.577 340.423C429.502 293.224 485.646 248.065 638 265.159V263.628C485.135 245.259 428.991 291.182 358.811 338.382C290.928 389.918 207.478 442.475 142.146 447.322C126.324 453.956 111.267 461.61 96.976 470.284C60.9928 492.225 28.8376 524.372 7.62939e-06 571.316V582.541C29.348 532.791 62.0136 498.348 98.7624 475.131V475.387Z" fill="#29ABE2"/>
</g>
<g style="mix-blend-mode:multiply" opacity="0.15">
<path d="M638 272.813V268.731C486.922 251.892 434.095 282.508 371.061 337.616C433.84 299.602 501.213 283.018 638 272.813Z" fill="#29ABE2"/>
</g>
<g style="mix-blend-mode:multiply" opacity="0.15">
<path d="M638 274.599V271.793C489.218 260.822 430.778 286.845 362.894 344.505C427.715 304.96 495.343 285.57 638 274.854V274.599Z" fill="#29ABE2"/>
</g>
<g style="mix-blend-mode:multiply" opacity="0.15">
<path d="M108.205 477.683C122.496 469.263 137.553 461.865 153.12 454.976C218.451 448.853 298.584 392.979 364.936 343.739C433.074 297.816 489.218 257.505 637.745 270.262V268.986C488.963 254.699 432.564 295.775 364.17 341.953C297.563 391.449 216.92 446.557 151.334 451.404C92.6376 474.111 41.8528 511.87 -0.255196 578.459V589.685C31.1344 536.873 67.1176 500.644 107.95 477.938L108.205 477.683Z" fill="#29ABE2"/>
</g>
<g style="mix-blend-mode:multiply" opacity="0.15">
<path d="M110.757 478.958C125.303 470.539 140.36 463.14 156.182 456.507C221.514 450.384 300.881 393.745 366.978 345.015C434.606 299.347 490.75 260.567 638 272.303V270.772C490.239 258.015 434.35 297.306 366.212 343.229C300.115 391.959 220.238 448.088 154.651 452.935C138.829 459.313 123.772 466.457 109.226 474.366C68.1384 496.052 31.6448 531.005 7.62939e-06 581.776V592.491C32.1552 538.659 68.904 501.92 110.757 478.958Z" fill="#29ABE2"/>
</g>
<g style="mix-blend-mode:multiply" opacity="0.15">
<path d="M113.564 479.979C128.11 471.56 143.422 464.416 159.245 457.528C224.576 451.404 303.178 394 368.764 346.036C435.882 300.622 492.026 263.629 638 273.834V272.558C491.77 261.077 435.626 299.092 368.254 344.25C302.412 392.214 223.555 449.108 157.714 453.956C96.4656 477.428 43.6392 515.187 7.62939e-06 583.562V595.043C32.9208 540.19 70.6904 502.941 113.564 479.724V479.979Z" fill="#29ABE2"/>
</g>
<g style="mix-blend-mode:multiply" opacity="0.15">
<path d="M116.371 480.999C131.173 472.835 146.485 465.436 162.307 458.803C227.638 452.425 305.474 394.51 370.55 347.311C437.158 302.408 493.046 266.69 637.745 275.619V274.344C492.791 264.394 436.647 300.622 369.785 345.525C304.454 392.979 226.362 450.384 160.521 455.486C97.9968 479.469 43.8944 517.483 -0.255196 586.878V598.104C33.176 542.231 71.9664 504.471 116.116 480.999H116.371Z" fill="#29ABE2"/>
</g>
<g style="mix-blend-mode:multiply" opacity="0.15">
<path d="M119.178 482.275C133.98 474.111 149.547 466.712 165.625 460.079C230.956 453.7 307.771 395.275 372.592 348.587C438.689 303.939 494.578 269.751 638 277.405V276.13C494.322 267.455 438.434 302.408 371.826 346.801C306.75 393.49 229.68 451.404 163.838 456.762C100.038 480.744 44.66 519.014 7.62939e-06 589.43V600.91C34.1968 544.016 73.7528 505.747 119.178 482.275Z" fill="#29ABE2"/>
</g>
<g style="mix-blend-mode:multiply" opacity="0.15">
<path d="M638 285.57V284.549C477.479 288.376 417.252 315.165 348.348 366.701C417.762 326.646 485.646 303.174 638 285.57Z" fill="#29ABE2"/>
</g>
<g style="mix-blend-mode:multiply" opacity="0.15">
<path d="M124.793 484.316C139.85 476.407 155.417 469.008 171.75 462.12C237.081 455.486 312.11 396.041 376.42 350.883C441.496 307.256 497.385 275.62 638.255 280.722V279.447C497.13 273.579 441.241 305.47 375.91 349.352C311.599 394.765 236.315 453.701 170.474 459.058C103.866 484.061 46.4464 522.331 0.255203 595.043V606.269C35.728 547.589 77.3256 508.554 125.048 484.316H124.793Z" fill="#29ABE2"/>
</g>
<g style="mix-blend-mode:multiply" opacity="0.15">
<path d="M127.345 485.337C142.402 477.428 158.224 470.284 174.812 463.14C240.143 456.252 314.406 396.551 378.206 351.903C443.027 308.531 498.406 278.426 638.255 282.253V280.977C498.406 276.385 442.517 307 377.696 350.373C313.896 395.02 239.378 454.466 173.536 460.079C105.398 485.337 46.9568 523.861 0.255203 597.339V608.309C36.4936 548.864 78.8568 509.319 127.6 485.081L127.345 485.337Z" fill="#29ABE2"/>
</g>
<g style="mix-blend-mode:multiply" opacity="0.15">
<path d="M130.152 486.357C145.464 478.448 161.286 471.304 177.874 464.416C243.206 457.272 316.703 397.317 379.993 353.434C444.303 310.572 499.682 281.742 638.255 284.039V282.763C499.426 279.446 443.793 308.786 379.482 351.648C315.938 395.786 242.185 455.231 176.343 461.354C106.929 487.122 47.4672 525.902 7.62939e-06 600.4V611.371C36.7488 550.905 80.388 511.105 130.152 486.612V486.357Z" fill="#29ABE2"/>
</g>
<g style="mix-blend-mode:multiply" opacity="0.15">
<path d="M638 290.417V289.907C523.67 291.438 467.526 295.775 412.914 334.299C466.506 302.663 525.712 298.836 638 290.162V290.417Z" fill="#29ABE2"/>
</g>
<g style="mix-blend-mode:multiply" opacity="0.15">
<path d="M135.766 488.653C151.078 480.744 167.156 473.6 183.999 466.712C249.33 459.058 321.042 398.592 383.566 355.985C446.855 314.144 502.234 287.61 638 287.61V286.335C501.723 285.314 446.345 312.103 382.8 354.199C320.021 397.061 248.054 457.017 182.213 463.65C165.37 470.284 149.292 477.172 133.98 484.826C82.4296 508.553 37.5144 546.823 -0.255196 606.268V616.218C37.7696 553.967 83.1952 513.656 135.511 488.653H135.766Z" fill="#29ABE2"/>
</g>
<g style="mix-blend-mode:multiply" opacity="0.15">
<path d="M638 295.264V291.438C490.239 294.754 435.882 314.399 366.212 372.059C432.054 335.575 498.916 321.543 638 295.264Z" fill="#29ABE2"/>
</g>
<g style="mix-blend-mode:multiply" opacity="0.15">
<path d="M142.402 489.929C157.714 482.275 173.536 475.642 189.869 468.498C254.945 460.334 325.125 399.613 387.138 358.282C449.407 317.206 504.786 293.223 638 290.672V289.396C504.275 290.927 448.897 315.42 386.628 356.496C324.614 397.827 253.924 458.293 188.593 465.692C114.074 491.97 49.764 531.515 7.62939e-06 607.799V619.025C39.3008 555.497 87.2784 513.911 142.402 489.929Z" fill="#29ABE2"/>
</g>
<g style="mix-blend-mode:multiply" opacity="0.15">
<path d="M638 291.693C590.533 290.672 550.466 295.01 515.759 303.429C548.17 296.54 587.726 292.713 638 291.693Z" fill="#29ABE2"/>
</g>
<g style="mix-blend-mode:multiply" opacity="0.15">
<path d="M147.761 491.97C163.328 484.571 179.406 477.683 195.738 470.794C349.114 435.331 388.67 290.417 638 292.968V291.948C388.159 287.866 348.858 434.821 194.462 468.243C177.874 474.876 161.797 481.765 146.23 488.653C89.32 512.125 40.0664 552.436 -0.255196 614.688V624.127C40.3216 559.069 90.0856 516.973 147.506 492.225L147.761 491.97Z" fill="#29ABE2"/>
</g>
<g style="mix-blend-mode:multiply" opacity="0.15">
<path d="M638 300.367V299.602C524.181 307 469.313 309.807 414.445 348.587C468.292 317.206 525.967 314.909 638 300.367Z" fill="#29ABE2"/>
</g>
<g style="mix-blend-mode:multiply" opacity="0.2">
<path d="M27.0512 497.583C37.7696 478.193 49.2536 461.609 61.7584 447.577C127.345 374.355 216.92 399.613 307.771 344.249C397.091 287.611 448.386 203.162 638 252.658V251.127C447.876 199.846 396.07 286.08 306.75 342.464C215.389 397.827 125.303 370.528 59.4616 442.475C37.2592 468.498 17.6088 503.961 0 547.588V560.345C8.6768 537.383 17.3536 515.952 27.0512 497.328V497.583Z" fill="#29ABE2"/>
</g>
<g style="mix-blend-mode:multiply" opacity="0.2">
<path d="M0 560.089C8.932 536.617 18.1192 514.421 28.3272 495.542C83.9608 389.152 147.506 405.991 254.69 369.252C298.329 357.516 340.182 323.073 384.842 289.651C348.858 313.378 316.703 339.402 282.506 353.689C190.124 395.53 103.101 383.029 51.2952 453.955C33.176 475.896 16.0776 507.278 0 547.078L0 560.089Z" fill="#29ABE2"/>
</g>
<g style="mix-blend-mode:multiply" opacity="0.2">
<path d="M622.433 258.525C499.937 230.716 439.199 247.045 384.842 289.651C439.199 250.872 500.958 236.329 622.433 258.525Z" fill="#29ABE2"/>
</g>
<g style="mix-blend-mode:multiply" opacity="0.2">
<path d="M327.677 328.431C382.545 298.581 428.736 258.526 510.655 248.831C423.122 256.74 377.441 295.264 327.677 328.431Z" fill="#29ABE2"/>
</g>
<g style="mix-blend-mode:multiply" opacity="0.2">
<path d="M620.136 253.423C583.387 247.3 551.998 245.769 524.691 247.81C551.998 246.535 583.642 248.065 620.136 253.423Z" fill="#29ABE2"/>
</g>
<g style="mix-blend-mode:multiply" opacity="0.2">
<path d="M32.9208 488.143C43.8944 470.539 55.8888 455.486 68.6488 443.24C119.689 408.287 233.253 390.938 312.875 337.361C399.388 295.519 455.787 221.787 638 257.505V255.974C455.022 218.47 398.622 293.989 311.854 335.575C231.722 389.152 117.647 404.205 66.352 437.882C41.3424 462.885 19.3952 499.369 0 545.547V557.538C10.208 531.515 21.1816 507.533 32.9208 487.888V488.143Z" fill="#29ABE2"/>
</g>
<g style="mix-blend-mode:multiply" opacity="0.2">
<path d="M34.7072 485.592C45.936 468.243 57.9304 453.7 70.9456 441.709C123.006 409.563 235.55 390.683 314.662 337.616C400.409 295.775 456.808 223.573 638 258.526V256.995C456.298 220.511 399.898 294.499 313.641 336.085C234.018 389.407 120.71 406.246 68.6488 437.117C42.6184 461.864 19.9056 498.603 -0.255196 545.292V557.283C10.4632 530.494 21.9472 505.747 34.452 485.847L34.7072 485.592Z" fill="#29ABE2"/>
</g>
<g style="mix-blend-mode:multiply" opacity="0.2">
<path d="M35.728 484.061C47.212 466.712 59.7168 452.17 72.9872 440.689C126.069 411.094 237.591 390.683 316.448 337.871C401.685 295.775 458.084 225.359 638 259.546V258.015C457.574 222.297 401.174 294.499 315.682 336.34C236.57 389.152 124.282 407.522 71.2008 435.841C44.1496 460.844 20.6712 497.073 0 544.272V556.773C11.2288 529.474 22.968 504.727 35.728 484.316V484.061Z" fill="#29ABE2"/>
</g>
<g style="mix-blend-mode:multiply" opacity="0.2">
<path d="M37.5144 481.509C49.2536 464.416 61.7584 450.383 75.5392 439.158C129.642 412.369 239.888 390.173 318.49 337.871C403.216 295.774 459.36 226.889 638 260.056V258.525C458.594 223.573 402.45 294.244 317.469 336.085C238.867 388.387 127.6 408.542 73.4976 434.055C45.6808 458.548 21.4368 494.776 0 542.486V555.242C11.7392 526.923 23.9888 501.665 37.5144 480.999V481.509Z" fill="#29ABE2"/>
</g>
<g style="mix-blend-mode:multiply" opacity="0.2">
<path d="M40.3216 477.683C52.0608 461.865 64.5656 448.853 78.0912 438.393C132.959 413.9 242.44 390.428 320.531 338.637C404.492 296.54 460.636 229.186 638.255 261.587V260.056C460.126 225.869 403.982 295.009 319.51 336.851C241.164 388.897 131.173 410.328 76.0496 433.545C47.212 457.017 22.2024 492.99 0.255203 541.21V553.711C12.76 524.371 26.0304 498.348 40.5768 477.683H40.3216Z" fill="#29ABE2"/>
</g>
<g style="mix-blend-mode:multiply" opacity="0.2">
<path d="M41.8528 475.642C53.592 459.824 66.352 447.322 80.1328 437.117C136.022 414.921 244.482 390.173 322.062 338.637C405.513 296.54 461.657 230.461 638 262.353V260.822C461.146 227.655 405.002 295.009 321.297 336.851C243.461 388.642 134.235 411.604 78.3464 432.27C48.488 455.486 22.7128 491.46 0.255203 540.445V552.691C13.2704 522.586 27.0512 496.307 42.108 475.387L41.8528 475.642Z" fill="#29ABE2"/>
</g>
<g style="mix-blend-mode:multiply" opacity="0.2">
<path d="M43.6392 473.601C55.6336 458.548 68.6488 446.046 82.6848 436.096C139.594 416.196 246.778 390.173 324.104 338.892C407.044 296.795 462.933 232.502 638.255 263.373V261.842C462.422 229.441 406.534 295.264 323.338 337.106C246.013 388.387 137.808 412.88 80.8984 431.504C50.0192 454.211 23.4784 490.184 0.255203 539.679V551.67C13.7808 521.055 28.072 494.521 43.8944 473.601H43.6392Z" fill="#29ABE2"/>
</g>
<g style="mix-blend-mode:multiply" opacity="0.2">
<path d="M493.812 261.587C404.747 276.895 351.41 322.819 295.777 357.006C306.24 351.393 316.193 345.27 325.89 338.892C379.738 311.338 422.356 275.109 493.812 261.587Z" fill="#29ABE2"/>
</g>
<g style="mix-blend-mode:multiply" opacity="0.2">
<path d="M493.812 262.863C405.258 278.171 352.431 323.329 297.053 357.261C307.516 351.648 317.724 345.525 327.677 339.147C380.758 311.593 423.122 276.385 494.067 262.863H493.812Z" fill="#29ABE2"/>
</g>
<g style="mix-blend-mode:multiply" opacity="0.2">
<path d="M50.5296 465.947C62.524 452.68 75.7944 441.709 89.8304 433.29C149.292 419.513 253.414 389.152 329.463 339.402C410.617 297.305 466.506 237.86 638 266.18V264.649C465.995 234.799 409.851 295.775 328.698 337.871C252.648 387.877 147.506 416.706 88.044 428.953C54.1024 449.363 25.2648 485.592 0 536.363V546.823C15.312 513.656 31.9 486.357 50.5296 465.691V465.947Z" fill="#29ABE2"/>
</g>
<g style="mix-blend-mode:multiply" opacity="0.2">
<path d="M51.5504 465.181C64.5656 451.404 77.836 440.944 92.1272 432.525C152.099 420.789 255.71 389.153 331.25 339.657C411.893 297.561 467.782 239.391 638 266.945V265.669C467.016 236.585 411.127 296.03 330.229 338.126C254.434 387.877 150.568 417.982 90.3408 428.443C57.1648 448.853 27.3064 479.469 0 535.087V545.803C16.3328 511.105 33.4312 485.337 51.5504 465.436V465.181Z" fill="#29ABE2"/>
</g>
<g style="mix-blend-mode:multiply" opacity="0.2">
<path d="M53.3368 463.395C66.352 450.128 80.1328 439.923 94.6792 431.759C155.417 421.809 258.007 388.897 333.036 339.912C412.914 297.816 468.802 241.432 638 267.965V266.69C468.292 238.625 412.403 296.285 332.27 338.381C256.986 387.877 153.886 419.258 92.8928 427.932C58.696 448.087 28.072 478.193 0 534.066V545.037C16.8432 509.574 34.7072 483.55 53.3368 463.65V463.395Z" fill="#29ABE2"/>
</g>
<g style="mix-blend-mode:multiply" opacity="0.2">
<path d="M55.1232 461.609C68.3936 448.598 82.4296 438.648 96.976 430.994C158.479 422.574 260.049 388.387 334.567 339.657C413.934 297.561 469.823 242.707 637.745 268.731V267.455C469.313 240.156 413.424 296.285 333.802 338.381C258.773 387.366 156.948 420.023 95.1896 427.167C59.972 446.812 28.5824 476.407 0 533.046V544.016C17.3536 508.043 35.728 481.765 55.1232 461.864V461.609Z" fill="#29ABE2"/>
</g>
<g style="mix-blend-mode:multiply" opacity="0.2">
<path d="M638 270.772V268.986C471.099 244.494 395.305 301.133 322.318 347.566C404.492 307.001 464.209 248.576 638 270.772Z" fill="#29ABE2"/>
</g>
<g style="mix-blend-mode:multiply" opacity="0.2">
<path d="M638 271.537V269.751C471.099 246.024 395.56 302.153 322.573 348.587C405.002 308.021 464.209 250.106 638 271.537Z" fill="#29ABE2"/>
</g>
<g style="mix-blend-mode:multiply" opacity="0.2">
<path d="M638 277.66V275.109C494.067 256.995 438.944 269.751 376.675 320.522C438.434 282.763 502.744 279.191 638 277.915V277.66Z" fill="#29ABE2"/>
</g>
<g style="mix-blend-mode:multiply" opacity="0.2">
<path d="M64.0552 454.211C77.5808 443.24 92.1272 435.076 106.929 428.698C171.239 426.146 268.726 387.367 341.968 340.423C419.038 298.836 474.927 250.106 638.255 272.303V271.027C474.417 247.3 418.783 297.306 341.458 338.637C267.96 385.581 170.218 423.34 105.653 424.616C66.8624 441.709 32.1552 469.263 0.510399 527.688V539.424C20.416 499.624 41.5976 472.325 64.5656 453.7L64.0552 454.211Z" fill="#29ABE2"/>
</g>
<g style="mix-blend-mode:multiply" opacity="0.2">
<path d="M65.8416 452.935C79.6224 442.219 94.1688 434.31 109.226 428.442C174.302 427.167 270.767 387.366 343.244 340.933C419.804 299.346 475.693 252.147 637.745 273.578V272.303C475.182 249.596 419.549 297.816 342.478 339.147C269.491 385.836 172.515 424.36 107.184 424.36C67.3728 440.944 31.9 468.243 -0.510399 527.178V538.914C20.1608 498.603 41.8528 471.304 65.3312 452.68L65.8416 452.935Z" fill="#29ABE2"/>
</g>
<g style="mix-blend-mode:multiply" opacity="0.2">
<path d="M67.8832 451.659C81.9192 441.454 96.4656 433.8 111.778 427.932C177.364 427.932 272.809 387.111 345.286 341.188C421.335 299.857 476.969 254.188 638 274.599V273.323C476.714 251.382 420.825 298.326 344.52 339.402C272.043 385.58 176.088 425.381 109.991 424.105C69.1592 440.178 32.9208 466.967 -0.255196 526.667V537.893C20.9264 496.817 43.384 469.518 67.628 451.404L67.8832 451.659Z" fill="#29ABE2"/>
</g>
<g style="mix-blend-mode:multiply" opacity="0.2">
<path d="M69.6696 450.639C83.9608 440.689 98.7624 433.29 114.33 427.677C180.682 428.698 275.106 386.856 347.072 341.443C422.611 300.112 478.245 255.974 638 275.874V274.599C477.734 253.423 422.101 298.836 346.306 339.912C274.085 385.581 179.15 426.401 112.543 424.105C70.6904 439.923 33.6864 465.947 0 526.157V537.128C21.692 495.542 44.66 468.243 69.6696 450.384V450.639Z" fill="#29ABE2"/>
</g>
<g style="mix-blend-mode:multiply" opacity="0.2">
<path d="M72.9872 448.088C87.0232 439.158 101.825 432.27 116.626 426.912C183.489 428.953 277.147 386.346 348.603 341.443C423.632 300.622 479.266 257.505 637.745 276.64V275.364C478.755 255.209 423.122 299.092 347.838 339.912C276.126 385.07 181.958 426.912 114.84 423.34C72.4768 437.882 34.1968 462.375 -0.255196 523.096V534.577C22.4576 491.715 46.4464 464.671 72.732 447.833L72.9872 448.088Z" fill="#29ABE2"/>
</g>
<g style="mix-blend-mode:multiply" opacity="0.2">
<path d="M638 284.039V280.977C490.239 266.179 436.647 279.956 372.847 330.983C436.137 294.244 500.702 290.927 638 284.039Z" fill="#29ABE2"/>
</g>
<g style="mix-blend-mode:multiply" opacity="0.2">
<path d="M76.8152 446.046C90.8512 437.627 105.908 431.504 121.986 426.401C189.869 430.483 281.486 385.836 352.431 341.953C426.439 301.387 482.073 261.332 638.255 278.681V277.405C481.562 259.036 425.929 299.857 351.666 340.422C280.465 384.56 188.593 428.442 120.454 423.085C72.9872 436.606 33.4312 465.946 0.255203 522.075V530.75C22.968 490.694 48.2328 463.14 77.0704 446.046H76.8152Z" fill="#29ABE2"/>
</g>
<g style="mix-blend-mode:multiply" opacity="0.2">
<path d="M78.6016 445.026C92.8928 436.862 108.205 430.738 124.282 425.891C192.676 430.738 283.272 385.325 353.962 341.953C427.46 301.642 483.094 262.863 638 279.446V278.171C482.583 260.822 426.95 300.112 353.197 340.422C282.506 384.05 191.4 428.697 122.751 422.829C74.2632 435.841 33.9416 464.671 0 520.799V529.474C23.2232 489.163 48.9984 461.354 78.6016 444.771V445.026Z" fill="#29ABE2"/>
</g>
<g style="mix-blend-mode:multiply" opacity="0.2">
<path d="M80.6432 444.26C95.1896 436.351 110.502 430.739 126.834 426.146C195.738 431.759 285.314 385.325 355.494 342.464C428.481 302.408 484.114 265.159 638 280.722V279.701C483.859 263.118 427.97 301.132 354.983 341.188C284.548 384.305 194.462 429.973 125.303 423.085C75.7944 435.841 34.452 464.161 0 520.8V529.219C23.7336 488.398 50.2744 460.844 80.6432 444.771V444.26Z" fill="#29ABE2"/>
</g>
<g style="mix-blend-mode:multiply" opacity="0.2">
<path d="M82.6848 443.24C97.2312 435.586 112.798 429.973 129.386 425.636C198.546 432.014 287.355 384.815 357.28 342.463C429.757 302.663 485.39 266.945 638 281.487V280.467C484.88 264.904 429.246 301.132 356.514 341.188C286.59 383.539 197.27 429.973 127.855 422.574C77.0704 434.565 34.9624 462.12 0 518.758V527.688C24.244 486.612 51.2952 459.058 82.6848 443.24Z" fill="#29ABE2"/>
</g>
<g style="mix-blend-mode:multiply" opacity="0.2">
<path d="M84.7264 442.475C99.528 435.076 115.35 429.973 131.938 425.381C201.608 432.269 289.397 384.56 359.066 342.719C431.033 303.173 486.666 268.731 638 282.508V281.232C486.156 266.435 430.522 301.643 358.301 341.188C288.631 383.284 200.332 430.483 130.407 422.319C78.6016 434.055 35.728 461.354 0 517.993V526.412C24.7544 485.081 52.5712 457.782 84.7264 442.219V442.475Z" fill="#29ABE2"/>
</g>
<g style="mix-blend-mode:multiply" opacity="0.2">
<path d="M638 290.927C476.714 287.611 415.466 304.959 344.01 352.159C415.466 312.613 481.562 298.071 638 290.927Z" fill="#29ABE2"/>
</g>
<g style="mix-blend-mode:multiply" opacity="0.2">
<path d="M638 291.948C477.479 289.141 416.486 305.725 345.541 352.669C416.486 313.379 482.583 299.601 638 291.948Z" fill="#29ABE2"/>
</g>
<g style="mix-blend-mode:multiply" opacity="0.2">
<path d="M91.872 439.413C106.929 433.29 122.751 428.697 139.594 424.87C210.285 433.29 295.522 383.539 363.915 343.229C434.35 304.449 489.984 274.088 638 285.314V284.294C489.729 272.047 434.095 303.173 363.405 341.953C294.756 382.264 209.264 431.759 138.318 422.319C82.94 432.014 37.2592 457.782 0 513.911V521.565C26.2856 479.723 56.6544 452.935 91.872 439.413Z" fill="#29ABE2"/>
</g>
<g style="mix-blend-mode:multiply" opacity="0.2">
<path d="M93.9136 438.648C108.97 432.78 125.048 428.442 141.891 424.871C213.092 433.8 297.308 383.284 365.446 343.739C435.371 305.215 491.005 276.13 637.745 286.59V285.569C490.75 274.089 434.861 303.939 364.681 342.464C296.542 382.264 211.816 432.269 140.36 422.319C123.517 425.636 107.439 429.718 92.3824 435.331C56.6544 447.577 26.0304 472.835 -0.510399 512.891V520.8C26.2856 478.703 57.1648 452.17 93.4032 438.903L93.9136 438.648Z" fill="#29ABE2"/>
</g>
<g style="mix-blend-mode:multiply" opacity="0.2">
<path d="M95.9552 437.882C111.267 432.269 127.6 428.187 144.698 424.616C216.154 433.8 299.605 382.774 367.233 343.739C436.647 305.47 492.536 277.916 638 287.355V286.335C492.026 275.875 436.392 304.194 366.722 342.464C298.839 381.754 215.134 432.269 143.422 422.064C85.7472 430.994 38.5352 455.231 0 510.85V519.014C27.3064 476.662 58.9512 450.639 95.9552 437.882Z" fill="#29ABE2"/>
</g>
<g style="mix-blend-mode:multiply" opacity="0.2">
<path d="M97.9968 437.372C113.564 432.014 129.897 427.932 146.995 424.615C218.706 434.055 301.391 382.774 368.764 343.994C437.668 306.235 493.557 279.446 637.745 288.376V287.355C493.046 277.66 437.158 304.704 367.998 342.463C300.37 381.243 217.43 432.269 145.719 421.809C87.0232 430.483 38.7904 454.211 -0.255196 509.829V517.738C27.5616 475.386 59.7168 449.363 97.7416 437.117L97.9968 437.372Z" fill="#29ABE2"/>
</g>
<g style="mix-blend-mode:multiply" opacity="0.2">
<path d="M100.294 436.862C115.861 431.504 132.449 427.932 149.802 424.615C221.769 434.31 303.433 382.264 370.55 344.249C439.199 306.745 494.833 281.487 638 289.396V288.376C494.578 279.446 438.689 305.214 370.04 342.974C302.667 381.243 220.748 432.78 148.526 422.064C88.5544 430.483 39.556 453.19 0 509.064V517.228C28.3272 474.621 61.248 449.108 100.294 437.117V436.862Z" fill="#29ABE2"/>
</g>
<g style="mix-blend-mode:multiply" opacity="0.2">
<path d="M638 297.305V296.54C476.458 298.071 417.507 311.338 345.541 359.047C417.507 320.777 483.094 310.827 638 297.05V297.305Z" fill="#29ABE2"/>
</g>
<g style="mix-blend-mode:multiply" opacity="0.2">
<path d="M104.377 435.586C120.199 430.739 137.298 427.422 155.162 424.361C227.383 434.311 307.516 381.499 374.123 344.76C441.751 308.021 497.385 285.059 638.255 291.438V290.417C497.13 283.018 441.241 306.49 373.613 343.484C307.006 380.478 226.618 433.035 154.141 422.064C91.872 429.973 41.0872 451.404 0.510399 507.023V514.677C29.8584 471.815 64.0552 447.067 104.887 435.841L104.377 435.586Z" fill="#29ABE2"/>
</g>
<g style="mix-blend-mode:multiply" opacity="0.2">
<path d="M106.418 435.076C122.496 430.484 139.594 427.422 157.458 424.361C229.935 434.311 309.302 381.244 375.399 344.76C442.517 308.276 498.406 286.59 638 292.203V291.183C498.15 284.549 442.262 306.745 374.889 343.229C308.537 379.713 229.17 432.525 156.182 421.554C92.8928 429.463 41.3424 449.874 0 505.492V512.891C29.8584 470.029 64.8208 445.536 106.418 434.821V435.076Z" fill="#29ABE2"/>
</g>
<g style="mix-blend-mode:multiply" opacity="0.2">
<path d="M108.46 434.566C124.793 430.228 141.891 427.167 160.01 424.36C232.742 434.566 311.089 380.988 376.93 345.27C443.538 309.041 499.426 288.631 637.745 293.478V292.458C498.916 286.845 443.282 307.766 376.42 343.994C310.323 379.968 231.722 433.035 158.734 422.064C94.1688 429.463 41.5976 448.853 -0.255196 504.216V511.87C30.1136 469.008 65.8416 445.026 108.205 434.566H108.46Z" fill="#29ABE2"/>
</g>
<g style="mix-blend-mode:multiply" opacity="0.2">
<path d="M638 299.602C524.946 299.602 469.058 293.989 412.914 327.156C467.782 299.602 525.967 305.725 638 299.602Z" fill="#29ABE2"/>
</g>
<g style="mix-blend-mode:multiply" opacity="0.2">
<path d="M112.798 433.8C129.386 429.718 146.995 427.167 165.37 424.105C238.357 434.311 315.172 380.223 380.503 345.525C446.345 310.062 502.234 291.693 638.255 295.265V294.244C501.723 289.907 446.09 308.786 379.993 344.25C314.662 379.202 237.591 432.78 164.349 421.809C97.4864 428.953 43.384 446.812 0.255203 501.92V509.064C31.3896 466.202 68.6488 442.985 113.054 433.545L112.798 433.8Z" fill="#29ABE2"/>
</g>
<g style="mix-blend-mode:multiply" opacity="0.2">
<path d="M638 302.153V298.836C489.218 299.092 434.861 305.725 361.363 359.047C429.757 323.584 494.322 323.074 638 302.408V302.153Z" fill="#29ABE2"/>
</g>
<g style="mix-blend-mode:multiply" opacity="0.2">
<path d="M118.413 432.525C135.001 429.208 152.354 426.657 170.474 424.105C243.716 434.055 319 379.458 383.566 346.036C448.386 311.593 504.275 295.265 638 297.306V296.285C504.02 293.479 448.131 310.062 383.055 344.76C318.234 378.437 242.695 432.78 169.198 421.809C100.294 427.932 43.8944 443.495 0 497.328V505.237C32.4104 462.375 71.456 440.434 118.413 432.525Z" fill="#29ABE2"/>
</g>
<g style="mix-blend-mode:multiply" opacity="0.2">
<path d="M120.454 432.27C137.042 428.953 154.651 426.657 172.77 424.105C246.013 433.8 320.531 379.458 384.842 346.291C449.407 312.103 505.041 297.051 637.745 298.326V297.306C504.786 295.009 448.897 310.828 384.331 345.015C319.766 377.927 244.992 432.525 171.75 421.809C101.57 427.677 44.4048 442.22 -0.255196 495.797V503.961C32.6656 461.099 72.4768 439.668 120.199 432.27H120.454Z" fill="#29ABE2"/>
</g>
<g style="mix-blend-mode:multiply" opacity="0.2">
<path d="M122.751 432.014C139.594 428.953 157.203 426.657 175.578 424.105C345.541 419.258 388.159 280.467 638 297.05V296.03C387.394 278.171 345.03 419.003 174.557 421.809C156.182 424.105 138.574 426.146 121.73 428.953C73.4976 435.331 33.176 455.231 0 496.052V502.43C33.4312 459.823 74.008 438.648 122.751 431.759V432.014Z" fill="#29ABE2"/>
</g>
<g style="mix-blend-mode:multiply" opacity="0.2">
<path d="M638 305.215C569.351 307.511 525.712 299.857 486.156 309.807C525.712 301.898 570.372 309.807 638 305.215Z" fill="#29ABE2"/>
</g>
<g style="mix-blend-mode:multiply" opacity="0.3">
<path d="M7.62939e-06 233.268C26.2856 220.256 61.248 250.362 100.804 270.517C169.708 318.226 252.138 335.065 304.709 313.634C387.394 281.232 462.167 287.611 549.19 336.085C464.209 287.1 395.56 272.813 301.902 311.338C300.881 311.338 299.86 311.848 298.839 312.103C247.289 331.238 168.177 316.44 101.314 267.966C62.0136 247.045 27.3064 215.664 7.62939e-06 230.206L7.62939e-06 233.268Z" fill="#29ABE2"/>
</g>
<g style="mix-blend-mode:multiply" opacity="0.3">
<path d="M108.97 275.619C178.13 323.329 258.262 331.493 309.558 312.103C416.742 257.25 507.338 324.349 638 370.528V367.466C507.082 322.818 416.486 254.188 309.558 310.062C258.262 329.962 176.854 321.798 107.184 271.537C65.3312 249.596 27.8168 213.368 7.62939e-06 226.634V236.074C27.8168 218.47 66.352 254.188 108.97 275.619Z" fill="#29ABE2"/>
</g>
<g style="mix-blend-mode:multiply" opacity="0.3">
<path d="M105.142 273.833C171.494 316.95 250.096 333.789 302.922 313.378C411.382 258.525 499.426 319.246 638 370.528V367.466C498.916 318.226 411.127 255.464 302.922 311.593C250.096 332.768 170.218 315.42 103.356 269.751C62.2688 248.065 26.0304 216.174 7.62939e-06 230.206V239.901C26.0304 221.532 63.2896 252.913 105.142 273.833Z" fill="#29ABE2"/>
</g>
<g style="mix-blend-mode:multiply" opacity="0.3">
<path d="M115.095 279.701C181.958 322.818 258.007 330.217 309.302 311.337C414.7 257.25 500.447 323.584 638 371.293V368.232C499.937 322.308 414.445 253.933 309.047 309.296C257.752 328.686 180.426 321.032 113.054 275.619C68.3936 253.168 27.8168 214.133 7.62939e-06 233.523V243.728C27.8168 219.235 69.4144 257.76 115.095 279.701Z" fill="#29ABE2"/>
</g>
<g style="mix-blend-mode:multiply" opacity="0.3">
<path d="M153.375 298.836C226.618 343.739 295.522 308.276 341.968 301.898C437.158 257.505 521.629 343.994 637.745 374.355V371.548C521.374 341.953 436.902 254.443 341.968 299.857C295.266 306.235 225.597 343.229 151.589 296.03C95.7 274.344 37.2592 203.417 7.62939e-06 241.942V253.168C37.004 207.244 96.7208 277.915 153.375 298.836Z" fill="#29ABE2"/>
</g>
<g style="mix-blend-mode:multiply" opacity="0.3">
<path d="M160.01 301.898C232.742 343.994 298.839 305.98 345.286 300.877C438.944 258.015 521.374 345.27 638 375.375V372.569C520.608 342.719 438.178 254.699 344.52 298.836C298.074 304.194 231.211 342.974 157.969 298.836C100.038 277.915 38.0248 202.907 7.62939e-06 247.3V259.291C37.5144 206.479 101.059 281.742 160.01 301.643V301.898Z" fill="#29ABE2"/>
</g>
<g style="mix-blend-mode:multiply" opacity="0.3">
<path d="M166.39 304.449C238.102 343.484 301.646 303.939 347.838 299.601C440.22 258.27 520.353 345.78 638 376.141V373.589C519.332 343.484 439.199 255.209 346.306 298.071C300.115 302.663 235.805 342.463 163.838 301.643C103.866 281.232 38.28 203.162 7.62939e-06 254.188V265.924C38.0248 206.224 105.398 285.569 166.39 304.704V304.449Z" fill="#29ABE2"/>
</g>
<g style="mix-blend-mode:multiply" opacity="0.3">
<path d="M172.005 306.745C242.44 342.719 303.688 302.408 349.624 298.836C440.986 258.526 519.332 346.29 638 377.161V374.355C518.311 343.739 440.22 255.209 348.093 296.795C302.412 300.877 240.398 341.443 169.453 303.684C107.694 284.804 38.5352 203.162 7.62939e-06 260.567V273.068C38.28 206.479 108.97 288.376 172.005 306.49V306.745Z" fill="#29ABE2"/>
</g>
<g style="mix-blend-mode:multiply" opacity="0.3">
<path d="M177.874 308.786C247.289 341.698 306.24 300.877 351.666 297.815C442.006 258.781 518.311 346.801 638 378.182V375.63C518.566 345.27 445.324 257.25 356.004 293.478C309.302 295.264 250.606 340.422 179.916 307.255C115.35 290.927 40.3216 205.458 7.62939e-06 267.71V280.212C38.28 206.734 112.798 291.692 177.874 308.786Z" fill="#29ABE2"/>
</g>
<g style="mix-blend-mode:multiply" opacity="0.3">
<path d="M638 377.927V377.416C565.268 353.689 516.525 312.868 465.995 299.602C515.504 318.226 567.31 361.598 638 377.927Z" fill="#29ABE2"/>
</g>
<g style="mix-blend-mode:multiply" opacity="0.3">
<path d="M7.62939e-06 286.335C7.62939e-06 286.335 0.510408 284.804 1.02081 284.294C37.7696 222.808 81.9192 266.945 129.131 286.845C78.3464 264.139 32.4104 215.919 7.62939e-06 273.578V286.335Z" fill="#29ABE2"/>
</g>
<g style="mix-blend-mode:multiply" opacity="0.3">
<path d="M465.995 299.601C431.288 285.569 397.857 282.763 362.894 291.182C313.896 299.346 260.559 330.727 189.103 310.572C305.985 339.402 379.738 265.669 465.995 299.601Z" fill="#29ABE2"/>
</g>
<g style="mix-blend-mode:multiply" opacity="0.3">
<path d="M6.38001 280.977C122.241 249.341 269.236 365.936 356.77 307.511C444.048 249.341 513.207 337.361 638 378.182V375.631C512.442 335.32 443.282 245.004 354.728 297.816C267.705 365.936 118.668 245.514 3.31761 273.323C2.29681 275.364 1.02081 277.916 7.62939e-06 279.957V293.223C2.04161 288.886 4.08321 284.549 6.38001 280.722V280.977Z" fill="#29ABE2"/>
</g>
<g style="mix-blend-mode:multiply" opacity="0.3">
<path d="M472.12 301.132C439.454 286.59 408.575 281.487 376.675 286.845C326.911 290.672 274.85 328.431 201.353 313.634C314.406 330.472 385.352 261.077 471.865 301.132H472.12Z" fill="#29ABE2"/>
</g>
<g style="mix-blend-mode:multiply" opacity="0.3">
<path d="M7.62939e-06 299.602C3.82801 291.693 7.65601 284.294 11.7392 278.171C59.2064 228.675 118.413 294.754 174.046 306.235C113.564 293.223 50.2744 217.45 8.67681 270.772C5.61441 275.364 2.80721 280.467 7.62939e-06 285.825V299.602Z" fill="#29ABE2"/>
</g>
<g style="mix-blend-mode:multiply" opacity="0.3">
<path d="M17.3536 276.385C75.7944 243.473 161.031 315.42 225.342 317.716C292.459 333.024 338.65 278.426 383.31 287.355C465.995 267.2 533.368 358.282 638 383.029V380.223C532.858 355.475 465.23 263.628 382.034 285.059C337.374 276.385 290.928 332.003 223.3 315.93C158.479 312.868 72.4768 237.605 14.5464 268.986C9.69761 275.109 4.84881 283.273 7.62939e-06 292.203V305.47C5.61441 293.989 11.2288 283.783 17.3536 276.385Z" fill="#29ABE2"/>
</g>
<g style="mix-blend-mode:multiply" opacity="0.3">
<path d="M23.2232 275.364C83.4504 252.148 166.646 316.951 229.17 317.716C294.246 329.962 338.906 278.171 382.8 285.825C464.974 265.159 529.54 356.496 638 383.54V379.458C521.884 347.821 463.698 267.966 390.711 283.018C342.734 270.772 296.798 328.942 228.659 315.93C163.583 315.93 76.56 244.494 19.9056 268.221C13.0152 275.364 6.1248 285.57 -0.255196 297.816V310.572C7.14561 295.52 14.8016 284.039 22.968 275.364H23.2232Z" fill="#29ABE2"/>
</g>
<g style="mix-blend-mode:multiply" opacity="0.3">
<path d="M29.0928 275.109C90.8512 260.312 172.005 318.481 233.253 317.971C296.798 327.411 340.182 278.171 383.821 285.314C465.23 264.904 528.264 356.241 638.255 384.305V381.498C527.754 353.689 464.719 261.332 382.8 283.018C339.161 276.13 295.522 326.645 231.466 316.185C169.963 316.185 87.7888 255.209 26.2856 268.221C17.0984 275.875 8.4216 287.61 0.255203 302.918V316.695C9.4424 298.071 18.8848 284.039 29.348 275.109H29.0928Z" fill="#29ABE2"/>
</g>
<g style="mix-blend-mode:multiply" opacity="0.3">
<path d="M400.154 281.998C479.01 272.303 540.003 361.598 638 385.581V380.988C537.706 353.944 478.245 276.13 404.747 279.957C368.509 266.435 335.333 296.03 292.459 309.552C335.843 304.704 372.337 294.499 399.898 281.998H400.154Z" fill="#29ABE2"/>
</g>
<g style="mix-blend-mode:multiply" opacity="0.3">
<path d="M7.62939e-06 321.543C10.9736 299.602 22.4576 283.784 34.9624 275.109C95.4448 296.795 151.844 307.766 202.629 311.083C146.485 299.091 82.1744 265.159 31.9 267.965C20.416 275.619 9.95281 289.141 7.62939e-06 308.021V321.288V321.543Z" fill="#29ABE2"/>
</g>
<g style="mix-blend-mode:multiply" opacity="0.3">
<path d="M41.0872 275.875C109.226 278.426 195.228 325.115 257.497 315.93C322.573 316.44 363.915 261.077 411.382 280.977C481.307 279.957 534.899 355.22 638 384.56V381.754C535.41 352.924 481.818 277.916 411.893 278.681C363.66 258.271 322.318 315.165 256.476 314.399C193.697 323.329 106.418 274.599 37.7696 269.241C23.9888 276.385 11.484 290.927 -0.255196 312.868V325.625C12.2496 300.367 26.0304 284.039 40.832 276.13L41.0872 275.875Z" fill="#29ABE2"/>
</g>
<g style="mix-blend-mode:multiply" opacity="0.3">
<path d="M47.212 277.15C211.816 352.158 339.926 288.631 418.273 279.956C487.432 284.549 544.342 358.537 638 385.07V382.264C544.852 355.985 488.198 282.508 419.038 277.66C340.182 286.08 210.54 353.179 44.1496 270.517C28.072 276.64 13.2704 291.437 7.62939e-06 316.695V330.472C14.2912 301.642 29.8584 284.294 47.212 277.15Z" fill="#29ABE2"/>
</g>
<g style="mix-blend-mode:multiply" opacity="0.3">
<path d="M638 377.416C573.434 349.097 516.78 310.827 461.146 290.162C514.228 313.123 565.268 364.66 638 385.835V377.416Z" fill="#29ABE2"/>
</g>
<g style="mix-blend-mode:multiply" opacity="0.3">
<path d="M288.121 308.786C334.057 293.478 372.082 274.344 408.065 276.385C369.785 271.792 330.484 279.446 288.121 308.786Z" fill="#29ABE2"/>
</g>
<g style="mix-blend-mode:multiply" opacity="0.3">
<path d="M68.3936 279.191C166.135 323.584 239.122 330.983 288.376 308.787C232.487 337.361 146.995 299.857 68.3936 279.191Z" fill="#29ABE2"/>
</g>
<g style="mix-blend-mode:multiply" opacity="0.3">
<path d="M7.62939e-06 338.381C17.6088 303.173 37.5144 285.569 60.2272 280.977C64.5656 280.467 69.4144 281.742 74.008 281.997C68.3936 279.701 63.0344 276.895 57.1648 274.599C35.728 278.17 16.8432 293.733 7.62939e-06 325.114L7.62939e-06 338.381Z" fill="#29ABE2"/>
</g>
<g style="mix-blend-mode:multiply" opacity="0.3">
<path d="M638 378.437C572.158 349.862 513.462 306.235 455.022 285.059C510.655 306.745 560.93 362.108 638 385.836V378.437Z" fill="#29ABE2"/>
</g>
<g style="mix-blend-mode:multiply" opacity="0.3">
<path d="M302.157 303.429C348.858 285.57 387.649 267.71 424.653 276.895C433.074 277.916 440.986 280.212 448.897 282.763C401.174 266.945 353.707 266.69 302.157 303.174V303.429Z" fill="#29ABE2"/>
</g>
<g style="mix-blend-mode:multiply" opacity="0.3">
<path d="M73.7528 281.998C180.682 333.789 253.158 328.176 301.902 303.429C246.268 335.83 158.734 308.276 73.7528 281.998Z" fill="#29ABE2"/>
</g>
<g style="mix-blend-mode:multiply" opacity="0.3">
<path d="M66.6072 283.273C239.378 366.446 347.838 266.945 424.653 275.109C495.088 283.783 547.149 357.006 638 386.091V384.56C547.149 359.302 496.364 275.109 422.101 272.303C345.286 263.373 253.924 369.252 63.5448 277.405C39.3008 279.446 18.3744 295.009 7.62939e-06 329.452V342.719C19.3952 304.194 41.3424 286.335 66.6072 283.528V283.273Z" fill="#29ABE2"/>
</g>
<g style="mix-blend-mode:multiply" opacity="0.3">
<path d="M73.4976 285.824C265.408 370.272 349.369 258.525 425.929 272.813C499.937 278.17 548.68 361.088 638.255 386.856V384.05C549.446 358.536 500.447 275.619 426.694 270.261C349.369 254.698 265.153 371.803 70.4352 279.956C43.384 280.211 20.416 295.774 0.255203 333.023V346.29C21.1816 304.449 45.4256 286.845 73.7528 285.824H73.4976Z" fill="#29ABE2"/>
</g>
<g style="mix-blend-mode:multiply" opacity="0.3">
<path d="M80.1328 288.631C273.064 371.038 351.666 253.168 427.715 271.027C502.489 277.405 549.446 361.088 638 386.601V383.54C550.211 358.026 502.999 274.854 428.481 268.221C351.41 249.086 272.809 372.569 77.0704 282.763C47.212 281.232 21.9472 296.03 7.62939e-06 336.596V349.862C22.4576 304.704 48.7432 287.611 80.1328 288.376V288.631Z" fill="#29ABE2"/>
</g>
<g style="mix-blend-mode:multiply" opacity="0.3">
<path d="M87.0232 291.693C280.975 371.293 354.473 247.81 430.522 268.986C505.806 276.895 550.722 361.088 638 386.346V383.029C551.487 358.027 506.317 274.344 431.288 266.435C354.473 243.728 280.72 373.079 83.9608 286.08C50.7848 282.763 23.4784 296.795 7.62939e-06 340.678V354.2C24.244 305.47 52.5712 289.142 87.0232 291.438V291.693Z" fill="#29ABE2"/>
</g>
<g style="mix-blend-mode:multiply" opacity="0.3">
<path d="M94.1688 294.754C289.397 370.783 358.046 242.197 434.095 267.2C509.634 276.64 552.253 360.578 637.49 385.581C637.49 385.581 638 385.581 638.255 385.581V382.519C553.529 357.771 510.4 274.344 435.116 264.649C358.046 237.86 289.142 372.569 91.3616 289.397C55.1232 284.294 25.52 297.561 0.510406 344.76V358.027C26.2856 305.98 56.9096 290.672 94.6792 294.754H94.1688Z" fill="#29ABE2"/>
</g>
<g style="mix-blend-mode:multiply" opacity="0.3">
<path d="M101.059 297.816C297.308 369.507 361.874 236.585 438.178 265.669C512.697 276.895 553.274 357.516 633.662 383.54C634.938 384.05 636.724 384.305 638 385.07V382.264C638 382.264 638 382.264 637.745 382.264C560.164 353.179 511.676 280.722 439.454 264.394C362.384 234.543 278.934 373.334 97.9968 293.223C58.4408 286.335 26.796 298.326 7.62939e-06 348.587V361.854C27.3064 306.49 60.2272 292.458 101.059 298.326V297.816Z" fill="#29ABE2"/>
</g>
<g style="mix-blend-mode:multiply" opacity="0.3">
<path d="M108.205 301.132C305.219 367.466 365.702 231.227 442.517 264.138C516.014 277.15 555.06 354.965 631.11 381.753C633.151 382.774 635.703 383.284 638 384.05V380.988C638 380.988 636.214 380.478 635.448 379.968C562.461 350.628 515.504 280.722 444.303 262.608C366.722 227.91 287.355 371.803 105.142 296.03C62.2688 287.866 28.3272 298.071 7.62939e-06 351.393V364.915C28.8376 306.235 64.0552 293.478 108.205 300.877V301.132Z" fill="#29ABE2"/>
</g>
<g style="mix-blend-mode:multiply" opacity="0.3">
<path d="M7.62939e-06 368.997C30.3688 306.745 67.8832 295.775 115.35 304.194C313.13 364.66 370.295 226.124 447.621 262.608C460.381 265.414 471.865 270.006 482.583 275.364C471.865 269.751 461.146 264.649 449.407 261.332C371.061 222.042 295.266 369.762 112.288 299.601C66.0968 289.907 29.6032 298.581 7.62939e-06 355.22V368.742L7.62939e-06 368.997Z" fill="#29ABE2"/>
</g>
<g style="mix-blend-mode:multiply" opacity="0.3">
<path d="M630.089 379.968C632.641 381.243 635.448 382.264 638 383.284V379.968C638 379.968 635.703 378.947 634.427 378.437C588.236 358.537 551.232 322.308 510.91 293.989C548.68 322.563 582.111 362.109 630.089 379.713V379.968Z" fill="#29ABE2"/>
</g>
<g style="mix-blend-mode:multiply" opacity="0.3">
<path d="M122.496 307.511C301.902 366.446 377.441 221.022 454.256 262.863C522.394 284.549 566.034 347.821 630.089 378.437C632.641 379.713 635.448 380.478 638 381.754V378.437C638 378.437 635.703 377.672 634.427 377.161C569.096 347.821 524.691 283.273 455.022 260.822C376.93 217.195 301.136 367.977 119.689 303.429C70.18 292.458 31.3896 299.602 7.62939e-06 359.302V372.569C31.9 307.256 71.7112 298.071 122.496 307.766V307.511Z" fill="#29ABE2"/>
</g>
<g style="mix-blend-mode:multiply" opacity="0.3">
<path d="M129.897 310.572C309.558 362.874 382.8 215.919 460.381 262.098C528.009 285.825 570.372 346.546 630.854 376.906C633.151 377.927 635.703 378.692 638 379.968V376.651C638 376.651 636.214 375.886 635.448 375.631C573.434 346.801 530.306 284.804 461.146 260.056C382.29 211.837 309.047 364.66 127.09 306.745C74.008 295.009 33.176 299.602 0.255203 362.619V375.631C33.6864 307 75.7944 300.367 130.152 310.827L129.897 310.572Z" fill="#29ABE2"/>
</g>
<g style="mix-blend-mode:multiply" opacity="0.3">
<path d="M137.298 313.634C317.214 358.792 388.159 210.816 466.761 261.332C534.134 287.355 575.476 345.78 632.896 375.375C634.682 376.396 636.469 377.161 638.255 378.182V374.355C638.255 374.355 637.745 374.355 637.49 374.1C575.221 351.138 540.769 283.018 468.037 259.036C386.628 208.265 336.609 352.669 134.49 309.552C78.0912 297.05 34.7072 299.346 0.255203 365.17V378.182C35.2176 306.49 79.8776 302.408 137.553 313.634H137.298Z" fill="#29ABE2"/>
</g>
<g style="mix-blend-mode:multiply" opacity="0.3">
<path d="M144.443 316.44C324.359 354.2 394.029 206.479 473.141 261.332C540.003 289.652 580.58 345.27 634.938 374.355C635.958 374.865 636.979 375.375 637.745 375.886V372.059C579.304 348.842 545.873 284.804 474.162 258.781C391.987 204.693 343.244 346.801 141.381 312.613C81.664 299.857 35.728 299.091 -0.255196 367.977V381.754C36.2384 306.49 83.1952 304.959 144.188 316.44H144.443Z" fill="#29ABE2"/>
</g>
<g style="mix-blend-mode:multiply" opacity="0.3">
<path d="M151.844 319.247C331.505 348.587 400.154 202.397 480.286 261.332C546.894 291.948 586.45 344.505 638 373.079V369.252C584.408 345.525 551.742 286.845 481.307 258.526C398.367 201.377 350.39 340.167 149.037 315.675C85.7472 302.918 37.5144 299.347 7.62939e-06 371.548V385.326C38.0248 306.745 87.2784 308.021 151.844 319.502V319.247Z" fill="#29ABE2"/>
</g>
<g style="mix-blend-mode:multiply" opacity="0.3">
<path d="M159.245 321.798C342.734 340.423 411.893 194.998 494.322 264.649C555.06 297.561 592.574 341.953 638 369.508V365.425C593.595 338.637 555.57 296.03 495.343 262.863C410.106 190.406 344.265 340.423 156.182 318.481C89.5752 305.725 38.7904 299.347 -0.255196 374.61V388.642C39.0456 306.49 90.8512 310.828 158.99 321.798H159.245Z" fill="#29ABE2"/>
</g>
<g style="mix-blend-mode:multiply" opacity="0.3">
<path d="M166.646 324.094C349.879 332.769 419.549 191.937 502.744 265.924C560.93 299.346 597.168 338.637 638 365.425V361.088C597.934 335.32 561.44 297.816 504.02 264.139C418.018 187.344 351.41 332.513 163.838 321.033C93.6584 309.041 40.5768 299.346 7.62939e-06 378.182V392.214C40.832 306.235 95.1896 313.889 166.646 324.349V324.094Z" fill="#29ABE2"/>
</g>
<g style="mix-blend-mode:multiply" opacity="0.3">
<path d="M173.791 326.39C356.514 324.604 427.205 190.406 511.421 267.455C566.799 300.877 601.251 335.32 638 360.833V356.496C602.272 332.003 567.054 299.346 512.952 265.924C426.184 185.558 358.301 324.094 171.239 323.329C97.7416 312.358 41.8528 299.091 7.62939e-06 381.498V395.275C42.108 305.725 99.0176 316.95 173.791 326.39Z" fill="#29ABE2"/>
</g>
<g style="mix-blend-mode:multiply" opacity="0.3">
<path d="M181.192 328.176C363.15 315.93 435.371 188.875 520.608 269.241C572.414 301.898 605.845 331.238 638 355.22V350.628C606.355 328.176 572.669 300.112 521.884 267.71C434.095 184.283 364.681 314.91 178.385 325.115C101.57 315.42 43.1288 298.581 -0.255196 384.305V398.082C43.384 304.959 102.846 320.012 180.937 327.921L181.192 328.176Z" fill="#29ABE2"/>
</g>
<g style="mix-blend-mode:multiply" opacity="0.3">
<path d="M188.593 330.217C369.53 306.745 444.048 188.875 529.795 271.793C577.773 302.663 609.418 327.666 638 349.097V344.505C609.928 324.605 578.028 300.877 531.071 270.262C442.517 184.283 370.806 305.725 185.786 327.411C105.908 319.502 44.66 298.581 7.62939e-06 387.877V401.399C45.1704 304.704 107.184 324.094 188.593 330.217Z" fill="#29ABE2"/>
</g>
<g style="mix-blend-mode:multiply" opacity="0.3">
<path d="M195.738 331.493C375.399 297.05 452.47 189.385 539.238 274.089C582.877 302.663 612.735 323.584 638 342.208V337.616C612.99 320.522 583.132 300.367 540.769 272.558C451.449 184.793 376.93 295.52 193.186 328.687C109.991 323.074 46.1912 297.561 7.62939e-06 390.173V403.695C46.4464 303.429 111.267 327.156 195.738 331.238V331.493Z" fill="#29ABE2"/>
</g>
<g style="mix-blend-mode:multiply" opacity="0.3">
<path d="M202.884 333.024C381.269 287.355 461.402 191.171 548.935 276.895C587.726 301.898 615.542 319.502 638 335.32V331.238C615.542 316.95 587.981 300.112 550.722 275.874C460.381 187.089 382.8 285.825 200.332 330.727C114.074 327.411 47.7224 297.561 7.62939e-06 393.745V408.032C47.7224 303.939 115.35 331.748 202.884 333.279V333.024Z" fill="#29ABE2"/>
</g>
<g style="mix-blend-mode:multiply" opacity="0.3">
<path d="M210.03 333.789C387.138 277.15 470.334 193.468 559.143 279.702C592.574 300.877 617.839 315.42 638 328.176V324.349C617.839 312.869 592.83 298.836 560.93 278.426C469.823 189.385 388.67 275.109 207.733 331.238C118.413 330.983 49.2536 296.795 0.255203 396.296V410.583C49.5088 302.663 119.689 335.065 210.285 333.534L210.03 333.789Z" fill="#29ABE2"/>
</g>
<g style="mix-blend-mode:multiply" opacity="0.3">
<path d="M217.175 334.555C392.753 266.945 479.776 197.295 569.606 282.508C597.678 299.602 620.136 311.338 638 321.288V318.226C620.136 309.042 598.444 298.071 571.648 281.488C479.01 193.212 394.539 264.394 214.623 332.258C122.496 335.32 50.5296 296.54 7.62939e-06 399.613V413.135C50.5296 301.898 123.772 339.402 217.175 334.555Z" fill="#29ABE2"/>
</g>
<g style="mix-blend-mode:multiply" opacity="0.3">
<path d="M224.066 335.065C398.367 256.485 489.218 201.632 580.58 285.57C603.548 298.836 622.178 307.766 638 315.42V312.613C622.433 305.47 604.314 297.051 582.622 284.549C488.708 197.805 400.154 253.678 221.769 332.769C127.09 339.402 52.0608 295.265 7.62939e-06 402.164V415.941C52.0608 300.877 128.11 343.484 224.066 335.065Z" fill="#29ABE2"/>
</g>
<g style="mix-blend-mode:multiply" opacity="0.3">
<path d="M230.956 335.32C403.982 246.279 498.916 207.244 591.809 288.631C609.418 297.816 624.73 304.704 638 310.062V307.766C625.24 302.663 610.438 296.285 594.106 287.61C498.15 203.672 405.768 242.963 228.659 333.024C131.173 343.739 53.3368 294.244 7.62939e-06 404.715V418.492C53.3368 299.601 132.449 347.566 230.956 335.065V335.32Z" fill="#29ABE2"/>
</g>
<g style="mix-blend-mode:multiply" opacity="0.3">
<path d="M237.846 335.32C409.596 235.564 508.358 213.878 603.803 291.437C616.308 297.305 627.792 301.898 638 305.725V303.684C628.302 300.112 617.584 296.03 606.1 290.672C507.848 211.071 411.382 232.502 235.55 333.534C135.511 348.587 54.6128 293.734 7.62939e-06 407.522V421.809C54.6128 299.091 136.787 352.414 237.846 335.575V335.32Z" fill="#29ABE2"/>
</g>
<g style="mix-blend-mode:multiply" opacity="0.3">
<path d="M244.482 335.065C415.21 225.359 518.311 221.787 616.053 293.733C623.964 297.05 630.854 299.346 638 301.642V299.601C631.875 297.56 625.495 295.774 618.86 292.968C517.801 218.98 417.252 221.532 242.44 333.024C140.105 352.924 56.144 292.713 7.62939e-06 410.073V424.105C55.8888 297.56 141.126 356.24 244.482 334.554V335.065Z" fill="#29ABE2"/>
</g>
<g style="mix-blend-mode:multiply" opacity="0.3">
<path d="M251.372 334.554C421.08 214.898 528.264 230.716 629.323 295.774C632.386 296.795 635.193 297.56 638 298.326V296.54C635.958 296.03 634.172 295.519 632.13 295.009C527.754 228.42 422.866 210.816 249.075 332.768C144.443 357.771 57.1648 291.947 7.62939e-06 413.389V427.167C57.1648 296.795 145.719 361.343 251.372 334.554Z" fill="#29ABE2"/>
</g>
<g style="mix-blend-mode:multiply" opacity="0.3">
<path d="M258.007 333.789C424.142 206.479 534.389 239.646 638 294.499V292.203C532.092 237.605 424.398 203.928 255.71 332.258C148.782 362.619 58.4408 291.182 7.62939e-06 415.941V430.228C58.4408 296.03 150.058 366.191 258.007 334.044V333.789Z" fill="#29ABE2"/>
</g>
<g style="mix-blend-mode:multiply" opacity="0.3">
<path d="M264.387 333.023C422.611 202.907 533.878 246.279 638 289.396V287.1C531.837 243.728 422.866 199.59 262.346 331.493C153.63 367.466 59.972 290.162 7.62939e-06 418.747V432.779C59.7168 294.754 154.651 371.038 264.387 333.279V333.023Z" fill="#29ABE2"/>
</g>
<g style="mix-blend-mode:multiply" opacity="0.3">
<path d="M270.767 332.003C422.101 201.121 532.602 249.851 638 286.335V284.549C530.561 246.279 420.57 199.591 268.726 330.217C157.969 372.314 61.248 288.886 7.62939e-06 421.044V435.076C60.9928 292.713 158.99 375.375 270.767 331.748V332.003Z" fill="#29ABE2"/>
</g>
<g style="mix-blend-mode:multiply" opacity="0.3">
<path d="M277.147 330.727C422.611 202.652 530.561 249.086 638 284.804V283.018C528.519 245.514 421.08 200.866 275.106 329.197C162.562 377.161 62.524 287.61 7.62939e-06 424.105V438.648C62.0136 291.948 163.583 380.478 277.147 330.727Z" fill="#29ABE2"/>
</g>
<g style="mix-blend-mode:multiply" opacity="0.3">
<path d="M283.527 329.197C422.866 204.183 528.264 248.321 638 283.273V281.488C526.478 244.494 421.335 202.652 281.486 327.666C167.156 382.009 63.8 286.59 7.62939e-06 427.167V442.22C63.2896 290.672 167.922 385.326 283.527 329.197Z" fill="#29ABE2"/>
</g>
</g>
</g>
</g>
<defs>
<clipPath id="clip0_1345_682">
<rect width="638" height="301" fill="white"/>
</clipPath>
</defs>
</svg>
