<svg width="638" height="123" viewBox="0 0 638 123" fill="none" xmlns="http://www.w3.org/2000/svg">
<g opacity="0.7">
<g style="mix-blend-mode:multiply" opacity="0.15">
<path d="M16.588 276.721C27.5616 259.117 39.556 244.575 52.316 232.328C118.668 165.994 209.264 203.754 301.391 141.247C384.331 83.3322 444.814 -50.6112 638 26.9484V24.142C444.558 -55.2035 383.055 81.5463 300.37 139.461C207.733 201.968 116.116 160.892 49.764 225.185C31.9 243.044 15.5672 267.026 7.62939e-06 295.09V307.082C5.35921 296.366 10.9736 286.161 16.588 276.721Z" fill="#29ABE2"/>
</g>
<g style="mix-blend-mode:multiply" opacity="0.15">
<path d="M7.62939e-06 311.164C6.12481 299.173 12.2496 287.947 18.6296 277.487C77.3256 178.496 137.808 203.754 248.054 169.056C293.225 157.575 334.312 116.754 378.717 73.3823C342.478 104.508 311.089 136.655 275.871 152.473C181.958 196.61 92.6376 172.118 40.832 240.748C27.0512 255.035 13.2704 274.17 7.62939e-06 298.407L7.62939e-06 311.164Z" fill="#29ABE2"/>
</g>
<g style="mix-blend-mode:multiply" opacity="0.15">
<path d="M627.792 32.5613C501.213 -10.0454 431.288 22.6113 378.717 73.6373C431.543 26.9485 501.723 -2.39152 627.792 32.5613Z" fill="#29ABE2"/>
</g>
<g style="mix-blend-mode:multiply" opacity="0.15">
<path d="M7.62939e-06 316.011C7.14561 302.234 14.2912 289.222 21.692 277.741C33.176 260.903 45.4256 246.615 58.696 235.135C125.814 173.648 215.899 206.305 305.985 143.033C337.119 123.132 365.957 90.2206 399.133 61.1357C353.707 95.0681 318.745 136.144 277.658 154.513C184.51 199.161 95.4448 176.965 43.384 244.574C28.8376 259.117 14.2912 279.527 0.255208 304.785V316.266L7.62939e-06 316.011Z" fill="#29ABE2"/>
</g>
<g style="mix-blend-mode:multiply" opacity="0.15">
<path d="M638 37.1535V35.1124C521.884 -9.5354 452.725 11.3853 398.878 60.8806C450.938 20.8251 520.608 6.53781 638 37.1535Z" fill="#29ABE2"/>
</g>
<g style="mix-blend-mode:multiply" opacity="0.15">
<path d="M25.2648 276.721C36.7488 260.903 48.7432 247.381 61.7584 236.41C129.131 176.965 218.962 207.07 308.026 143.543C389.69 84.0976 449.407 -37.8547 638.255 33.8369V31.2856C449.152 -42.1919 388.414 82.3117 307.006 141.502C217.43 205.284 127.09 172.118 59.4616 229.522C38.28 248.402 18.6296 274.17 0.255203 306.571V319.328C8.4216 303.765 16.588 289.222 25.52 276.466L25.2648 276.721Z" fill="#29ABE2"/>
</g>
<g style="mix-blend-mode:multiply" opacity="0.15">
<path d="M27.8168 277.487C39.3008 261.669 51.5504 248.657 64.8208 237.686C132.704 180.282 221.769 207.836 310.068 144.053C391.222 84.353 450.938 -33.7724 638 35.8782V33.582C450.173 -37.8545 389.946 82.567 309.047 142.268C220.493 206.305 130.407 175.69 62.2688 231.308C39.8112 250.443 19.14 276.976 7.62939e-06 310.654V324.175C8.93201 307.082 18.1192 291.264 27.8168 277.487Z" fill="#29ABE2"/>
</g>
<g style="mix-blend-mode:multiply" opacity="0.15">
<path d="M29.8584 278.762C41.5976 262.944 54.3576 249.932 67.8832 239.217C136.022 183.854 224.831 209.112 312.11 145.074C392.753 85.1182 452.214 -29.1802 638 38.6845V36.1331C451.704 -33.2623 391.732 83.3323 311.089 143.033C223.555 207.326 133.725 179.516 65.5864 232.839C41.8528 252.994 20.1608 280.548 7.62939e-06 315.756V329.023C9.69761 310.653 19.6504 293.56 29.8584 278.762Z" fill="#29ABE2"/>
</g>
<g style="mix-blend-mode:multiply" opacity="0.15">
<path d="M32.4104 279.527C44.4048 264.22 57.1648 250.953 70.9456 240.748C139.339 187.17 227.638 210.132 313.896 145.839C394.284 85.3733 453.235 -25.0982 637.745 40.7255V38.4293C452.725 -29.1803 393.263 83.5873 312.875 143.798C226.362 208.346 137.042 182.833 68.3936 234.369C43.384 254.78 20.6712 283.099 -0.255196 319.583V333.105C10.208 313.46 20.9264 295.09 32.1552 279.527H32.4104Z" fill="#29ABE2"/>
</g>
<g style="mix-blend-mode:multiply" opacity="0.15">
<path d="M36.2384 278.762C48.2328 264.22 60.7376 251.974 74.2632 242.024C142.912 190.487 230.701 210.898 316.193 146.35C396.07 85.8838 454.766 -21.0158 638 42.7667V40.4706C454.511 -25.0979 395.05 83.8427 315.172 144.309C229.425 208.857 140.615 185.895 71.7112 235.645C45.4256 255.801 21.692 284.63 -0.255196 322.134V335.401C11.2288 313.97 23.2232 294.58 35.9832 278.507L36.2384 278.762Z" fill="#29ABE2"/>
</g>
<g style="mix-blend-mode:multiply" opacity="0.15">
<path d="M38.7904 279.527C50.7848 265.24 63.5448 253.249 77.3256 243.554C146.23 193.548 233.763 211.918 318.234 147.37C397.857 86.6488 456.042 -16.4239 638 45.0625V42.7664C455.787 -20.7611 396.836 84.6077 317.214 145.329C232.232 209.877 144.188 189.466 74.7736 237.431C47.212 257.841 22.4576 287.436 -0.255196 326.216V339.738C11.9944 316.776 25.0096 296.366 38.5352 279.527H38.7904Z" fill="#29ABE2"/>
</g>
<g style="mix-blend-mode:multiply" opacity="0.15">
<path d="M41.5976 280.548C53.8472 266.516 66.8624 254.78 80.6432 245.34C149.802 196.865 236.57 212.683 320.531 148.39C399.643 87.4143 457.829 -12.0865 638.255 47.3588V45.0627C457.318 -16.4237 398.622 85.3732 319.766 146.349C235.805 210.897 148.016 192.783 78.6016 239.217C49.764 259.882 23.9888 289.988 0.510406 330.298V343.82C13.7808 319.583 27.3064 297.897 42.108 280.548H41.5976Z" fill="#29ABE2"/>
</g>
<g style="mix-blend-mode:multiply" opacity="0.15">
<path d="M612.99 46.5934C551.998 34.6023 506.062 38.6844 468.292 51.4409C507.593 40.2152 554.55 36.6433 612.99 46.5934Z" fill="#29ABE2"/>
</g>
<g style="mix-blend-mode:multiply" opacity="0.15">
<path d="M468.547 51.4409C393.518 72.8719 346.051 121.857 297.818 159.361C305.985 153.748 314.151 148.135 321.807 142.012C369.53 112.927 408.83 71.8513 468.802 51.4409H468.547Z" fill="#29ABE2"/>
</g>
<g style="mix-blend-mode:multiply" opacity="0.15">
<path d="M612.99 48.6344C551.998 36.8984 506.062 41.2356 468.547 53.9921C507.848 42.7664 554.55 39.1946 612.99 48.6344Z" fill="#29ABE2"/>
</g>
<g style="mix-blend-mode:multiply" opacity="0.15">
<path d="M468.547 54.2476C393.774 75.9336 346.306 124.919 297.818 162.168C306.75 156.3 315.427 149.921 323.849 143.033C370.806 114.203 409.851 74.1477 468.547 54.2476Z" fill="#29ABE2"/>
</g>
<g style="mix-blend-mode:multiply" opacity="0.15">
<path d="M50.7848 281.568C63.0344 268.812 76.3048 258.351 90.0856 249.677C148.271 232.838 250.351 206.05 325.635 144.308C406.023 94.5577 462.678 13.6814 638 56.2882V54.2472C462.167 10.1096 405.258 92.5167 324.614 142.267C248.82 204.264 146.23 229.267 87.5336 244.064C54.868 264.219 25.7752 296.621 -0.255196 340.759V352.75C15.5672 324.175 32.4104 299.938 50.5296 281.568H50.7848Z" fill="#29ABE2"/>
</g>
<g style="mix-blend-mode:multiply" opacity="0.15">
<path d="M52.8264 283.099C65.8416 270.087 79.3672 259.627 93.4032 250.953C152.354 235.39 252.903 206.305 327.932 145.074C407.554 95.068 464.464 16.9981 638 57.819V55.778C463.698 13.1712 406.789 93.2821 326.911 143.033C251.627 204.519 150.313 231.563 91.1064 245.34C58.9512 266.771 28.8376 294.58 0.255203 343.055V356.322C17.3536 325.706 34.9624 302.489 53.0816 283.099H52.8264Z" fill="#29ABE2"/>
</g>
<g style="mix-blend-mode:multiply" opacity="0.15">
<path d="M55.3784 284.12C68.3936 271.363 82.1744 260.903 96.4656 252.483C155.927 237.941 255.455 206.815 329.718 146.094C408.575 96.3437 465.485 20.3148 638 59.86V57.819C464.974 16.743 408.065 94.3026 328.953 144.053C254.179 205.029 154.141 234.369 94.1688 247.126C60.7376 268.557 29.6032 297.131 7.62939e-06 347.137V360.148C18.1192 328.257 36.4936 304.02 55.3784 284.12Z" fill="#29ABE2"/>
</g>
<g style="mix-blend-mode:multiply" opacity="0.15">
<path d="M58.1856 284.885C71.456 272.129 85.2368 262.179 99.7832 253.759C159.755 240.493 258.007 207.071 332.015 147.115C410.362 97.3645 467.016 23.887 638.255 61.9014V59.8604C466.761 20.3152 409.851 95.5786 331.25 145.074C256.986 205.285 157.969 236.921 97.7416 248.657C63.0344 270.343 30.8792 299.173 0.255203 350.454V363.465C19.14 330.043 38.5352 305.041 58.4408 284.885H58.1856Z" fill="#29ABE2"/>
</g>
<g style="mix-blend-mode:multiply" opacity="0.15">
<path d="M638 67.0038C533.368 39.4497 473.141 46.5933 422.101 83.8424C473.141 52.7165 535.154 48.8895 638 67.0038Z" fill="#29ABE2"/>
</g>
<g style="mix-blend-mode:multiply" opacity="0.15">
<path d="M7.62939e-06 364.996C19.9056 329.788 40.3216 304.275 61.5032 284.375C134.235 217.531 220.238 229.777 310.323 170.842C347.582 149.156 381.524 112.162 422.101 84.0977C338.65 143.288 264.642 211.663 176.854 219.317C102.846 248.912 48.7432 265.24 7.62939e-06 350.199V365.251V364.996Z" fill="#29ABE2"/>
</g>
<g style="mix-blend-mode:multiply" opacity="0.15">
<path d="M638 68.7899C533.878 42.2564 474.162 48.8898 423.122 86.1388C474.162 55.268 535.665 51.9513 638 68.7899Z" fill="#29ABE2"/>
</g>
<g style="mix-blend-mode:multiply" opacity="0.15">
<path d="M7.62939e-06 369.588C20.9264 332.85 42.3632 306.571 64.8208 285.906C137.553 220.847 223.045 231.053 312.365 171.862C349.114 150.176 383.055 113.693 423.377 86.1387C339.926 144.308 266.429 213.194 179.15 221.868C104.632 252.739 50.0192 268.557 0.255208 355.046V369.844L7.62939e-06 369.588Z" fill="#29ABE2"/>
</g>
<g style="mix-blend-mode:multiply" opacity="0.15">
<path d="M638 72.6165V69.0447C493.557 37.9188 434.095 69.8101 374.634 125.684C434.606 84.0974 503.254 65.2177 638 72.3614V72.6165Z" fill="#29ABE2"/>
</g>
<g style="mix-blend-mode:multiply" opacity="0.15">
<path d="M70.18 287.692C83.7056 276.466 97.7416 267.281 112.288 259.882C174.302 249.677 267.96 209.367 339.926 151.452C415.721 101.957 472.375 37.4087 638 69.3V67.5141C471.865 34.092 415.21 99.9156 339.161 149.411C266.939 207.326 172.77 246.36 110.246 254.78C70.9456 276.721 34.7072 305.806 7.62939e-06 363.21V375.456C22.7128 335.911 45.936 308.612 70.18 287.436V287.692Z" fill="#29ABE2"/>
</g>
<g style="mix-blend-mode:multiply" opacity="0.15">
<path d="M72.9872 288.712C86.768 277.486 100.804 268.812 115.606 261.158C177.874 251.718 270.512 209.622 342.223 152.472C417.507 103.232 474.162 40.7254 638.255 71.0859V69.3C473.651 37.4087 416.742 101.191 341.458 150.431C269.491 207.836 176.598 248.402 113.819 256.311C73.4976 278.252 35.9832 307.337 0.510406 366.527V378.773C23.9888 337.697 48.2328 309.888 73.4976 288.457L72.9872 288.712Z" fill="#29ABE2"/>
</g>
<g style="mix-blend-mode:multiply" opacity="0.15">
<path d="M75.5392 289.733C89.5752 279.017 103.866 269.833 118.413 262.434C181.192 253.759 272.554 209.877 343.754 153.493C418.273 104.508 474.927 44.0423 637.745 72.8721V71.0861C474.417 40.7256 417.762 102.212 342.989 151.452C271.533 208.091 179.661 250.698 116.626 257.842C75.0288 280.038 36.4936 309.633 7.62939e-06 370.354V382.09C24.4992 339.738 49.5088 311.419 75.5392 289.733Z" fill="#29ABE2"/>
</g>
<g style="mix-blend-mode:multiply" opacity="0.15">
<path d="M78.3464 290.753C92.3824 279.783 106.929 271.108 121.73 263.709C184.765 255.29 275.361 210.387 346.051 154.514C420.059 105.529 476.714 47.3588 638.255 74.6577V72.8718C476.203 44.0421 419.549 103.487 345.286 152.472C274.34 208.601 183.489 252.484 119.944 259.117C77.0704 281.568 37.7696 311.164 0.255203 373.415V384.896C25.52 341.014 51.5504 312.439 78.6016 290.498L78.3464 290.753Z" fill="#29ABE2"/>
</g>
<g style="mix-blend-mode:multiply" opacity="0.15">
<path d="M82.4296 290.498C96.2104 280.548 110.502 272.384 124.793 265.24C188.338 257.331 277.658 210.897 347.838 155.534C421.08 106.804 477.734 50.4204 638 76.4437V74.6578C477.224 47.1037 420.57 104.763 347.072 153.493C276.637 208.856 186.806 254.27 123.006 260.648C79.3672 282.334 38.7904 311.164 7.62939e-06 374.946V385.917C26.5408 340.248 53.8472 311.674 82.4296 290.243V290.498Z" fill="#29ABE2"/>
</g>
<g style="mix-blend-mode:multiply" opacity="0.15">
<path d="M638 84.0976V80.2707C488.963 55.7782 433.074 87.9246 371.826 143.798C433.585 103.998 501.468 85.8835 638 83.8425V84.0976Z" fill="#29ABE2"/>
</g>
<g style="mix-blend-mode:multiply" opacity="0.15">
<path d="M87.7888 292.794C101.57 283.355 116.116 275.19 131.428 268.047C195.483 260.903 282.506 211.663 351.921 157.831C424.142 109.611 480.542 57.054 638 80.2709V78.485C480.031 54.2476 423.377 107.825 350.9 156.045C281.23 210.132 193.697 258.352 129.131 263.965C79.8776 285.906 37.004 321.369 -0.255196 381.835V392.806C26.2856 347.647 55.3784 315.246 87.5336 293.05L87.7888 292.794Z" fill="#29ABE2"/>
</g>
<g style="mix-blend-mode:multiply" opacity="0.15">
<path d="M90.3408 294.07C104.377 284.375 118.923 276.466 134.235 269.322C198.546 262.434 284.548 212.173 353.452 158.851C425.163 110.886 481.562 60.3705 637.745 81.8014V80.2706C481.052 57.3089 424.653 109.1 352.686 157.065C283.527 210.642 197.014 259.882 132.194 265.24C116.882 271.874 102.335 279.783 88.2992 288.967C55.6336 309.888 26.2856 340.759 -0.255196 384.386V395.612C27.0512 349.178 56.9096 316.521 90.0856 294.07H90.3408Z" fill="#29ABE2"/>
</g>
<g style="mix-blend-mode:multiply" opacity="0.15">
<path d="M93.148 295.09C107.184 285.651 121.986 277.742 137.553 270.598C202.118 263.965 287.1 212.683 355.749 160.127C426.694 112.417 483.094 63.6873 638 83.5874V82.0567C482.583 60.6257 426.184 110.376 354.983 158.086C286.334 210.897 200.587 261.413 135.766 266.516C83.9608 288.967 38.7904 324.941 7.62939e-06 387.448V398.418C27.8168 350.964 58.696 317.797 93.148 295.09Z" fill="#29ABE2"/>
</g>
<g style="mix-blend-mode:multiply" opacity="0.15">
<path d="M95.9552 296.366C110.246 286.926 125.048 279.272 140.615 272.129C205.181 265.75 289.397 213.193 357.535 161.402C427.97 113.948 484.37 67.0038 638 85.6283V84.0975C483.859 64.1974 427.46 111.907 356.77 159.616C288.376 211.663 203.905 263.199 138.829 268.302C85.7472 291.008 39.556 326.982 7.62939e-06 390.509V401.99C28.5824 353.26 60.4824 319.583 95.9552 296.366Z" fill="#29ABE2"/>
</g>
<g style="mix-blend-mode:multiply" opacity="0.15">
<path d="M98.7624 297.387C113.054 288.202 128.11 280.293 143.933 273.404C208.754 267.026 291.949 213.704 359.577 162.423C429.502 115.224 485.646 70.0654 638 87.1592V85.6284C485.135 67.259 428.991 113.182 358.811 160.382C290.928 211.918 207.478 264.475 142.146 269.322C126.324 275.956 111.267 283.61 96.976 292.284C60.9928 314.225 28.8376 346.372 7.62939e-06 393.316V404.541C29.348 354.791 62.0136 320.348 98.7624 297.131V297.387Z" fill="#29ABE2"/>
</g>
<g style="mix-blend-mode:multiply" opacity="0.15">
<path d="M638 94.8129V90.7308C486.922 73.8922 434.095 104.508 371.061 159.616C433.84 121.602 501.213 105.018 638 94.8129Z" fill="#29ABE2"/>
</g>
<g style="mix-blend-mode:multiply" opacity="0.15">
<path d="M638 96.5992V93.7927C489.218 82.8221 430.778 108.845 362.894 166.505C427.715 126.96 495.343 107.57 638 96.8543V96.5992Z" fill="#29ABE2"/>
</g>
<g style="mix-blend-mode:multiply" opacity="0.15">
<path d="M108.205 299.683C122.496 291.263 137.553 283.865 153.12 276.976C218.451 270.853 298.584 214.979 364.936 165.739C433.074 119.816 489.218 79.5052 637.745 92.2617V90.9861C488.963 76.6988 432.564 117.775 364.17 163.953C297.563 213.449 216.92 268.557 151.334 273.404C92.6376 296.111 41.8528 333.87 -0.255196 400.459V411.685C31.1344 358.873 67.1176 322.644 107.95 299.938L108.205 299.683Z" fill="#29ABE2"/>
</g>
<g style="mix-blend-mode:multiply" opacity="0.15">
<path d="M110.757 300.958C125.303 292.539 140.36 285.14 156.182 278.507C221.514 272.384 300.881 215.745 366.978 167.015C434.606 121.347 490.75 82.5668 638 94.3028V92.772C490.239 80.0155 434.35 119.306 366.212 165.229C300.115 213.959 220.238 270.088 154.651 274.935C138.829 281.313 123.772 288.457 109.226 296.366C68.1384 318.052 31.6448 353.005 7.62939e-06 403.776V414.491C32.1552 360.659 68.904 323.92 110.757 300.958Z" fill="#29ABE2"/>
</g>
<g style="mix-blend-mode:multiply" opacity="0.15">
<path d="M113.564 301.979C128.11 293.56 143.422 286.416 159.245 279.528C224.576 273.404 303.178 216 368.764 168.036C435.882 122.622 492.026 85.6286 638 95.8338V94.5581C491.77 83.0773 435.626 121.092 368.254 166.25C302.412 214.214 223.555 271.108 157.714 275.956C96.4656 299.428 43.6392 337.187 7.62939e-06 405.562V417.043C32.9208 362.19 70.6904 324.941 113.564 301.724V301.979Z" fill="#29ABE2"/>
</g>
<g style="mix-blend-mode:multiply" opacity="0.15">
<path d="M116.371 302.999C131.173 294.835 146.485 287.436 162.307 280.803C227.638 274.425 305.474 216.51 370.55 169.311C437.158 124.408 493.046 88.6899 637.745 97.6194V96.3438C492.791 86.3937 436.647 122.622 369.785 167.525C304.454 214.979 226.362 272.384 160.521 277.486C97.9968 301.469 43.8944 339.483 -0.255196 408.878V420.104C33.176 364.231 71.9664 326.471 116.116 302.999H116.371Z" fill="#29ABE2"/>
</g>
<g style="mix-blend-mode:multiply" opacity="0.15">
<path d="M119.178 304.275C133.98 296.111 149.547 288.712 165.625 282.079C230.956 275.7 307.771 217.275 372.592 170.587C438.689 125.939 494.578 91.7513 638 99.4052V98.1296C494.322 89.4551 438.434 124.408 371.826 168.801C306.75 215.49 229.68 273.404 163.838 278.762C100.038 302.744 44.66 341.014 7.62939e-06 411.43V422.91C34.1968 366.016 73.7528 327.747 119.178 304.275Z" fill="#29ABE2"/>
</g>
<g style="mix-blend-mode:multiply" opacity="0.15">
<path d="M638 107.57V106.549C477.479 110.376 417.252 137.165 348.348 188.701C417.762 148.646 485.646 125.174 638 107.57Z" fill="#29ABE2"/>
</g>
<g style="mix-blend-mode:multiply" opacity="0.15">
<path d="M124.793 306.316C139.85 298.407 155.417 291.008 171.75 284.12C237.081 277.486 312.11 218.041 376.42 172.883C441.496 129.256 497.385 97.6196 638.255 102.722V101.447C497.13 95.5785 441.241 127.47 375.91 171.352C311.599 216.765 236.315 275.701 170.474 281.058C103.866 306.061 46.4464 344.331 0.255203 417.043V428.269C35.728 369.589 77.3256 330.554 125.048 306.316H124.793Z" fill="#29ABE2"/>
</g>
<g style="mix-blend-mode:multiply" opacity="0.15">
<path d="M127.345 307.337C142.402 299.428 158.224 292.284 174.812 285.14C240.143 278.252 314.406 218.551 378.206 173.903C443.027 130.531 498.406 100.426 638.255 104.253V102.977C498.406 98.3848 442.517 129 377.696 172.373C313.896 217.02 239.378 276.466 173.536 282.079C105.398 307.337 46.9568 345.861 0.255203 419.339V430.309C36.4936 370.864 78.8568 331.319 127.6 307.081L127.345 307.337Z" fill="#29ABE2"/>
</g>
<g style="mix-blend-mode:multiply" opacity="0.15">
<path d="M130.152 308.357C145.464 300.448 161.286 293.304 177.874 286.416C243.206 279.272 316.703 219.317 379.993 175.434C444.303 132.572 499.682 103.742 638.255 106.039V104.763C499.426 101.446 443.793 130.786 379.482 173.648C315.938 217.786 242.185 277.231 176.343 283.354C106.929 309.122 47.4672 347.902 7.62939e-06 422.4V433.371C36.7488 372.905 80.388 333.105 130.152 308.612V308.357Z" fill="#29ABE2"/>
</g>
<g style="mix-blend-mode:multiply" opacity="0.15">
<path d="M638 112.417V111.907C523.67 113.438 467.526 117.775 412.914 156.299C466.506 124.663 525.712 120.836 638 112.162V112.417Z" fill="#29ABE2"/>
</g>
<g style="mix-blend-mode:multiply" opacity="0.15">
<path d="M135.766 310.653C151.078 302.744 167.156 295.6 183.999 288.712C249.33 281.058 321.042 220.592 383.566 177.985C446.855 136.144 502.234 109.61 638 109.61V108.335C501.723 107.314 446.345 134.103 382.8 176.199C320.021 219.061 248.054 279.017 182.213 285.65C165.37 292.284 149.292 299.172 133.98 306.826C82.4296 330.553 37.5144 368.823 -0.255196 428.268V438.218C37.7696 375.967 83.1952 335.656 135.511 310.653H135.766Z" fill="#29ABE2"/>
</g>
<g style="mix-blend-mode:multiply" opacity="0.15">
<path d="M638 117.264V113.438C490.239 116.754 435.882 136.399 366.212 194.059C432.054 157.575 498.916 143.543 638 117.264Z" fill="#29ABE2"/>
</g>
<g style="mix-blend-mode:multiply" opacity="0.15">
<path d="M142.402 311.929C157.714 304.275 173.536 297.642 189.869 290.498C254.945 282.334 325.125 221.613 387.138 180.282C449.407 139.206 504.786 115.223 638 112.672V111.396C504.275 112.927 448.897 137.42 386.628 178.496C324.614 219.827 253.924 280.293 188.593 287.692C114.074 313.97 49.764 353.515 7.62939e-06 429.799V441.025C39.3008 377.497 87.2784 335.911 142.402 311.929Z" fill="#29ABE2"/>
</g>
<g style="mix-blend-mode:multiply" opacity="0.15">
<path d="M638 113.693C590.533 112.672 550.466 117.01 515.759 125.429C548.17 118.54 587.726 114.713 638 113.693Z" fill="#29ABE2"/>
</g>
<g style="mix-blend-mode:multiply" opacity="0.15">
<path d="M147.761 313.97C163.328 306.571 179.406 299.683 195.738 292.794C349.114 257.331 388.67 112.417 638 114.968V113.948C388.159 109.866 348.858 256.821 194.462 290.243C177.874 296.876 161.797 303.765 146.23 310.653C89.32 334.125 40.0664 374.436 -0.255196 436.688V446.127C40.3216 381.069 90.0856 338.973 147.506 314.225L147.761 313.97Z" fill="#29ABE2"/>
</g>
<g style="mix-blend-mode:multiply" opacity="0.15">
<path d="M638 122.367V121.602C524.181 129 469.313 131.807 414.445 170.587C468.292 139.206 525.967 136.909 638 122.367Z" fill="#29ABE2"/>
</g>
<g style="mix-blend-mode:multiply" opacity="0.2">
<path d="M27.0512 319.583C37.7696 300.193 49.2536 283.609 61.7584 269.577C127.345 196.355 216.92 221.613 307.771 166.249C397.091 109.611 448.386 25.1624 638 74.6577V73.1269C447.876 21.8457 396.07 108.08 306.75 164.464C215.389 219.827 125.303 192.528 59.4616 264.475C37.2592 290.498 17.6088 325.961 0 369.588V382.345C8.6768 359.383 17.3536 337.952 27.0512 319.328V319.583Z" fill="#29ABE2"/>
</g>
<g style="mix-blend-mode:multiply" opacity="0.2">
<path d="M0 382.089C8.932 358.617 18.1192 336.421 28.3272 317.542C83.9608 211.152 147.506 227.991 254.69 191.252C298.329 179.516 340.182 145.073 384.842 111.651C348.858 135.378 316.703 161.402 282.506 175.689C190.124 217.53 103.101 205.029 51.2952 275.955C33.176 297.896 16.0776 329.278 0 369.078L0 382.089Z" fill="#29ABE2"/>
</g>
<g style="mix-blend-mode:multiply" opacity="0.2">
<path d="M622.433 80.5255C499.937 52.7162 439.199 69.0446 384.842 111.651C439.199 72.8715 500.958 58.3291 622.433 80.5255Z" fill="#29ABE2"/>
</g>
<g style="mix-blend-mode:multiply" opacity="0.2">
<path d="M327.677 150.431C382.545 120.581 428.736 80.5255 510.655 70.8306C423.122 78.7396 377.441 117.264 327.677 150.431Z" fill="#29ABE2"/>
</g>
<g style="mix-blend-mode:multiply" opacity="0.2">
<path d="M620.136 75.4232C583.387 69.3 551.998 67.7692 524.691 69.8103C551.998 68.5346 583.642 70.0654 620.136 75.4232Z" fill="#29ABE2"/>
</g>
<g style="mix-blend-mode:multiply" opacity="0.2">
<path d="M32.9208 310.143C43.8944 292.539 55.8888 277.486 68.6488 265.24C119.689 230.287 233.253 212.938 312.875 159.361C399.388 117.519 455.787 43.7868 638 79.505V77.9742C455.022 40.4701 398.622 115.989 311.854 157.575C231.722 211.152 117.647 226.205 66.352 259.882C41.3424 284.885 19.3952 321.369 0 367.547V379.538C10.208 353.515 21.1816 329.533 32.9208 309.888V310.143Z" fill="#29ABE2"/>
</g>
<g style="mix-blend-mode:multiply" opacity="0.2">
<path d="M34.7072 307.592C45.936 290.243 57.9304 275.7 70.9456 263.709C123.006 231.563 235.55 212.683 314.662 159.616C400.409 117.775 456.808 45.5727 638 80.5255V78.9947C456.298 42.5111 399.898 116.499 313.641 158.085C234.018 211.407 120.71 228.246 68.6488 259.117C42.6184 283.864 19.9056 320.603 -0.255196 367.292V379.283C10.4632 352.494 21.9472 327.747 34.452 307.847L34.7072 307.592Z" fill="#29ABE2"/>
</g>
<g style="mix-blend-mode:multiply" opacity="0.2">
<path d="M35.728 306.061C47.212 288.712 59.7168 274.17 72.9872 262.689C126.069 233.094 237.591 212.683 316.448 159.871C401.685 117.775 458.084 47.3588 638 81.5463V80.0155C457.574 44.2972 401.174 116.499 315.682 158.34C236.57 211.152 124.282 229.522 71.2008 257.841C44.1496 282.844 20.6712 319.073 0 366.272V378.773C11.2288 351.474 22.968 326.727 35.728 306.316V306.061Z" fill="#29ABE2"/>
</g>
<g style="mix-blend-mode:multiply" opacity="0.2">
<path d="M37.5144 303.509C49.2536 286.416 61.7584 272.383 75.5392 261.158C129.642 234.369 239.888 212.173 318.49 159.871C403.216 117.774 459.36 48.8893 638 82.0562V80.5255C458.594 45.5726 402.45 116.244 317.469 158.085C238.867 210.387 127.6 230.542 73.4976 256.055C45.6808 280.548 21.4368 316.776 0 364.486V377.242C11.7392 348.923 23.9888 323.665 37.5144 302.999V303.509Z" fill="#29ABE2"/>
</g>
<g style="mix-blend-mode:multiply" opacity="0.2">
<path d="M40.3216 299.683C52.0608 283.865 64.5656 270.853 78.0912 260.393C132.959 235.9 242.44 212.428 320.531 160.637C404.492 118.54 460.636 51.1857 638.255 83.5872V82.0565C460.126 47.869 403.982 117.009 319.51 158.851C241.164 210.897 131.173 232.328 76.0496 255.545C47.212 279.017 22.2024 314.99 0.255203 363.21V375.711C12.76 346.371 26.0304 320.348 40.5768 299.683H40.3216Z" fill="#29ABE2"/>
</g>
<g style="mix-blend-mode:multiply" opacity="0.2">
<path d="M41.8528 297.642C53.592 281.824 66.352 269.322 80.1328 259.117C136.022 236.921 244.482 212.173 322.062 160.637C405.513 118.54 461.657 52.4614 638 84.3527V82.822C461.146 49.655 405.002 117.009 321.297 158.851C243.461 210.642 134.235 233.604 78.3464 254.27C48.488 277.486 22.7128 313.46 0.255203 362.445V374.691C13.2704 344.586 27.0512 318.307 42.108 297.387L41.8528 297.642Z" fill="#29ABE2"/>
</g>
<g style="mix-blend-mode:multiply" opacity="0.2">
<path d="M43.6392 295.601C55.6336 280.548 68.6488 268.046 82.6848 258.096C139.594 238.196 246.778 212.173 324.104 160.892C407.044 118.795 462.933 54.5024 638.255 85.3731V83.8423C462.422 51.4408 406.534 117.264 323.338 159.106C246.013 210.387 137.808 234.88 80.8984 253.504C50.0192 276.211 23.4784 312.184 0.255203 361.679V373.67C13.7808 343.055 28.072 316.521 43.8944 295.601H43.6392Z" fill="#29ABE2"/>
</g>
<g style="mix-blend-mode:multiply" opacity="0.2">
<path d="M493.812 83.5874C404.747 98.8952 351.41 144.819 295.777 179.006C306.24 173.393 316.193 167.27 325.89 160.892C379.738 133.338 422.356 97.1093 493.812 83.5874Z" fill="#29ABE2"/>
</g>
<g style="mix-blend-mode:multiply" opacity="0.2">
<path d="M493.812 84.8628C405.258 100.171 352.431 145.329 297.053 179.261C307.516 173.648 317.724 167.525 327.677 161.147C380.758 133.593 423.122 98.3847 494.067 84.8628H493.812Z" fill="#29ABE2"/>
</g>
<g style="mix-blend-mode:multiply" opacity="0.2">
<path d="M50.5296 287.947C62.524 274.68 75.7944 263.709 89.8304 255.29C149.292 241.513 253.414 211.152 329.463 161.402C410.617 119.305 466.506 59.8601 638 88.1796V86.6488C465.995 56.7985 409.851 117.775 328.698 159.871C252.648 209.877 147.506 238.706 88.044 250.953C54.1024 271.363 25.2648 307.592 0 358.363V368.823C15.312 335.656 31.9 308.357 50.5296 287.691V287.947Z" fill="#29ABE2"/>
</g>
<g style="mix-blend-mode:multiply" opacity="0.2">
<path d="M51.5504 287.181C64.5656 273.404 77.836 262.944 92.1272 254.525C152.099 242.789 255.71 211.153 331.25 161.657C411.893 119.561 467.782 61.391 638 88.9451V87.6694C467.016 58.5846 411.127 118.03 330.229 160.126C254.434 209.877 150.568 239.982 90.3408 250.443C57.1648 270.853 27.3064 301.469 0 357.087V367.803C16.3328 333.105 33.4312 307.337 51.5504 287.436V287.181Z" fill="#29ABE2"/>
</g>
<g style="mix-blend-mode:multiply" opacity="0.2">
<path d="M53.3368 285.395C66.352 272.128 80.1328 261.923 94.6792 253.759C155.417 243.809 258.007 210.897 333.036 161.912C412.914 119.816 468.802 63.4317 638 89.9653V88.6896C468.292 60.6253 412.403 118.285 332.27 160.381C256.986 209.877 153.886 241.258 92.8928 249.932C58.696 270.087 28.072 300.193 0 356.066V367.037C16.8432 331.574 34.7072 305.55 53.3368 285.65V285.395Z" fill="#29ABE2"/>
</g>
<g style="mix-blend-mode:multiply" opacity="0.2">
<path d="M55.1232 283.609C68.3936 270.598 82.4296 260.648 96.976 252.994C158.479 244.574 260.049 210.387 334.567 161.657C413.934 119.561 469.823 64.7075 637.745 90.7308V89.4551C469.313 62.1562 413.424 118.285 333.802 160.381C258.773 209.366 156.948 242.023 95.1896 249.167C59.972 268.812 28.5824 298.407 0 355.046V366.016C17.3536 330.043 35.728 303.765 55.1232 283.864V283.609Z" fill="#29ABE2"/>
</g>
<g style="mix-blend-mode:multiply" opacity="0.2">
<path d="M638 92.7722V90.9863C471.099 66.4938 395.305 123.133 322.318 169.566C404.492 129.001 464.209 70.5759 638 92.7722Z" fill="#29ABE2"/>
</g>
<g style="mix-blend-mode:multiply" opacity="0.2">
<path d="M638 93.5373V91.7514C471.099 68.0242 395.56 124.153 322.573 170.587C405.002 130.021 464.209 72.1063 638 93.5373Z" fill="#29ABE2"/>
</g>
<g style="mix-blend-mode:multiply" opacity="0.2">
<path d="M638 99.6604V97.1091C494.067 78.9948 438.944 91.7513 376.675 142.522C438.434 104.763 502.744 101.191 638 99.9155V99.6604Z" fill="#29ABE2"/>
</g>
<g style="mix-blend-mode:multiply" opacity="0.2">
<path d="M64.0552 276.211C77.5808 265.24 92.1272 257.076 106.929 250.698C171.239 248.146 268.726 209.367 341.968 162.423C419.038 120.836 474.927 72.1064 638.255 94.3027V93.0271C474.417 69.3 418.783 119.306 341.458 160.637C267.96 207.581 170.218 245.34 105.653 246.616C66.8624 263.709 32.1552 291.263 0.510399 349.688V361.424C20.416 321.624 41.5976 294.325 64.5656 275.7L64.0552 276.211Z" fill="#29ABE2"/>
</g>
<g style="mix-blend-mode:multiply" opacity="0.2">
<path d="M65.8416 274.935C79.6224 264.219 94.1688 256.31 109.226 250.442C174.302 249.167 270.767 209.366 343.244 162.933C419.804 121.346 475.693 74.1473 637.745 95.5782V94.3026C475.182 71.596 419.549 119.816 342.478 161.147C269.491 207.836 172.515 246.36 107.184 246.36C67.3728 262.944 31.9 290.243 -0.510399 349.178V360.914C20.1608 320.603 41.8528 293.304 65.3312 274.68L65.8416 274.935Z" fill="#29ABE2"/>
</g>
<g style="mix-blend-mode:multiply" opacity="0.2">
<path d="M67.8832 273.659C81.9192 263.454 96.4656 255.8 111.778 249.932C177.364 249.932 272.809 209.111 345.286 163.188C421.335 121.857 476.969 76.1883 638 96.5987V95.3231C476.714 73.3819 420.825 120.326 344.52 161.402C272.043 207.58 176.088 247.381 109.991 246.105C69.1592 262.178 32.9208 288.967 -0.255196 348.667V359.893C20.9264 318.817 43.384 291.518 67.628 273.404L67.8832 273.659Z" fill="#29ABE2"/>
</g>
<g style="mix-blend-mode:multiply" opacity="0.2">
<path d="M69.6696 272.639C83.9608 262.689 98.7624 255.29 114.33 249.677C180.682 250.698 275.106 208.856 347.072 163.443C422.611 122.112 478.245 77.9743 638 97.8745V96.5988C477.734 75.423 422.101 120.836 346.306 161.912C274.085 207.581 179.15 248.401 112.543 246.105C70.6904 261.923 33.6864 287.947 0 348.157V359.128C21.692 317.542 44.66 290.243 69.6696 272.384V272.639Z" fill="#29ABE2"/>
</g>
<g style="mix-blend-mode:multiply" opacity="0.2">
<path d="M72.9872 270.088C87.0232 261.158 101.825 254.27 116.626 248.912C183.489 250.953 277.147 208.346 348.603 163.443C423.632 122.622 479.266 79.5053 637.745 98.6401V97.3644C478.755 77.2091 423.122 121.092 347.838 161.912C276.126 207.07 181.958 248.912 114.84 245.34C72.4768 259.882 34.1968 284.375 -0.255196 345.096V356.577C22.4576 313.715 46.4464 286.671 72.732 269.833L72.9872 270.088Z" fill="#29ABE2"/>
</g>
<g style="mix-blend-mode:multiply" opacity="0.2">
<path d="M638 106.039V102.977C490.239 88.1794 436.647 101.956 372.847 152.983C436.137 116.244 500.702 112.927 638 106.039Z" fill="#29ABE2"/>
</g>
<g style="mix-blend-mode:multiply" opacity="0.2">
<path d="M76.8152 268.046C90.8512 259.627 105.908 253.504 121.986 248.401C189.869 252.483 281.486 207.836 352.431 163.953C426.439 123.387 482.073 83.3319 638.255 100.681V99.4051C481.562 81.0357 425.929 121.857 351.666 162.422C280.465 206.56 188.593 250.442 120.454 245.085C72.9872 258.606 33.4312 287.946 0.255203 344.075V352.75C22.968 312.694 48.2328 285.14 77.0704 268.046H76.8152Z" fill="#29ABE2"/>
</g>
<g style="mix-blend-mode:multiply" opacity="0.2">
<path d="M78.6016 267.026C92.8928 258.862 108.205 252.738 124.282 247.891C192.676 252.738 283.272 207.325 353.962 163.953C427.46 123.642 483.094 84.8627 638 101.446V100.171C482.583 82.8216 426.95 122.112 353.197 162.422C282.506 206.05 191.4 250.697 122.751 244.829C74.2632 257.841 33.9416 286.671 0 342.799V351.474C23.2232 311.163 48.9984 283.354 78.6016 266.771V267.026Z" fill="#29ABE2"/>
</g>
<g style="mix-blend-mode:multiply" opacity="0.2">
<path d="M80.6432 266.26C95.1896 258.351 110.502 252.739 126.834 248.146C195.738 253.759 285.314 207.325 355.494 164.464C428.481 124.408 484.114 87.159 638 102.722V101.701C483.859 85.118 427.97 123.132 354.983 163.188C284.548 206.305 194.462 251.973 125.303 245.085C75.7944 257.841 34.452 286.161 0 342.8V351.219C23.7336 310.398 50.2744 282.844 80.6432 266.771V266.26Z" fill="#29ABE2"/>
</g>
<g style="mix-blend-mode:multiply" opacity="0.2">
<path d="M82.6848 265.24C97.2312 257.586 112.798 251.973 129.386 247.636C198.546 254.014 287.355 206.815 357.28 164.463C429.757 124.663 485.39 88.9448 638 103.487V102.467C484.88 86.9038 429.246 123.132 356.514 163.188C286.59 205.539 197.27 251.973 127.855 244.574C77.0704 256.565 34.9624 284.12 0 340.758V349.688C24.244 308.612 51.2952 281.058 82.6848 265.24Z" fill="#29ABE2"/>
</g>
<g style="mix-blend-mode:multiply" opacity="0.2">
<path d="M84.7264 264.475C99.528 257.076 115.35 251.973 131.938 247.381C201.608 254.269 289.397 206.56 359.066 164.719C431.033 125.173 486.666 90.7308 638 104.508V103.232C486.156 88.4346 430.522 123.643 358.301 163.188C288.631 205.284 200.332 252.483 130.407 244.319C78.6016 256.055 35.728 283.354 0 339.993V348.412C24.7544 307.081 52.5712 279.782 84.7264 264.219V264.475Z" fill="#29ABE2"/>
</g>
<g style="mix-blend-mode:multiply" opacity="0.2">
<path d="M638 112.927C476.714 109.611 415.466 126.959 344.01 174.159C415.466 134.613 481.562 120.071 638 112.927Z" fill="#29ABE2"/>
</g>
<g style="mix-blend-mode:multiply" opacity="0.2">
<path d="M638 113.948C477.479 111.141 416.486 127.725 345.541 174.669C416.486 135.379 482.583 121.601 638 113.948Z" fill="#29ABE2"/>
</g>
<g style="mix-blend-mode:multiply" opacity="0.2">
<path d="M91.872 261.413C106.929 255.29 122.751 250.697 139.594 246.87C210.285 255.29 295.522 205.539 363.915 165.229C434.35 126.449 489.984 96.0884 638 107.314V106.294C489.729 94.0474 434.095 125.173 363.405 163.953C294.756 204.264 209.264 253.759 138.318 244.319C82.94 254.014 37.2592 279.782 0 335.911V343.565C26.2856 301.723 56.6544 274.935 91.872 261.413Z" fill="#29ABE2"/>
</g>
<g style="mix-blend-mode:multiply" opacity="0.2">
<path d="M93.9136 260.648C108.97 254.78 125.048 250.442 141.891 246.871C213.092 255.8 297.308 205.284 365.446 165.739C435.371 127.215 491.005 98.1297 637.745 108.59V107.569C490.75 96.0886 434.861 125.939 364.681 164.464C296.542 204.264 211.816 254.269 140.36 244.319C123.517 247.636 107.439 251.718 92.3824 257.331C56.6544 269.577 26.0304 294.835 -0.510399 334.891V342.8C26.2856 300.703 57.1648 274.17 93.4032 260.903L93.9136 260.648Z" fill="#29ABE2"/>
</g>
<g style="mix-blend-mode:multiply" opacity="0.2">
<path d="M95.9552 259.882C111.267 254.269 127.6 250.187 144.698 246.616C216.154 255.8 299.605 204.774 367.233 165.739C436.647 127.47 492.536 99.9156 638 109.355V108.335C492.026 97.8745 436.392 126.194 366.722 164.464C298.839 203.754 215.134 254.269 143.422 244.064C85.7472 252.994 38.5352 277.231 0 332.85V341.014C27.3064 298.662 58.9512 272.639 95.9552 259.882Z" fill="#29ABE2"/>
</g>
<g style="mix-blend-mode:multiply" opacity="0.2">
<path d="M97.9968 259.372C113.564 254.014 129.897 249.932 146.995 246.615C218.706 256.055 301.391 204.774 368.764 165.994C437.668 128.235 493.557 101.446 637.745 110.376V109.355C493.046 99.6603 437.158 126.704 367.998 164.463C300.37 203.243 217.43 254.269 145.719 243.809C87.0232 252.483 38.7904 276.211 -0.255196 331.829V339.738C27.5616 297.386 59.7168 271.363 97.7416 259.117L97.9968 259.372Z" fill="#29ABE2"/>
</g>
<g style="mix-blend-mode:multiply" opacity="0.2">
<path d="M100.294 258.862C115.861 253.504 132.449 249.932 149.802 246.615C221.769 256.31 303.433 204.264 370.55 166.249C439.199 128.745 494.833 103.487 638 111.396V110.376C494.578 101.446 438.689 127.214 370.04 164.974C302.667 203.243 220.748 254.78 148.526 244.064C88.5544 252.483 39.556 275.19 0 331.064V339.228C28.3272 296.621 61.248 271.108 100.294 259.117V258.862Z" fill="#29ABE2"/>
</g>
<g style="mix-blend-mode:multiply" opacity="0.2">
<path d="M638 119.305V118.54C476.458 120.071 417.507 133.338 345.541 181.047C417.507 142.777 483.094 132.827 638 119.05V119.305Z" fill="#29ABE2"/>
</g>
<g style="mix-blend-mode:multiply" opacity="0.2">
<path d="M104.377 257.586C120.199 252.739 137.298 249.422 155.162 246.361C227.383 256.311 307.516 203.499 374.123 166.76C441.751 130.021 497.385 107.059 638.255 113.438V112.417C497.13 105.018 441.241 128.49 373.613 165.484C307.006 202.478 226.618 255.035 154.141 244.064C91.872 251.973 41.0872 273.404 0.510399 329.023V336.677C29.8584 293.815 64.0552 269.067 104.887 257.841L104.377 257.586Z" fill="#29ABE2"/>
</g>
<g style="mix-blend-mode:multiply" opacity="0.2">
<path d="M106.418 257.076C122.496 252.484 139.594 249.422 157.458 246.361C229.935 256.311 309.302 203.244 375.399 166.76C442.517 130.276 498.406 108.59 638 114.203V113.183C498.15 106.549 442.262 128.745 374.889 165.229C308.537 201.713 229.17 254.525 156.182 243.554C92.8928 251.463 41.3424 271.874 0 327.492V334.891C29.8584 292.029 64.8208 267.536 106.418 256.821V257.076Z" fill="#29ABE2"/>
</g>
<g style="mix-blend-mode:multiply" opacity="0.2">
<path d="M108.46 256.566C124.793 252.228 141.891 249.167 160.01 246.36C232.742 256.566 311.089 202.988 376.93 167.27C443.538 131.041 499.426 110.631 637.745 115.478V114.458C498.916 108.845 443.282 129.766 376.42 165.994C310.323 201.968 231.722 255.035 158.734 244.064C94.1688 251.463 41.5976 270.853 -0.255196 326.216V333.87C30.1136 291.008 65.8416 267.026 108.205 256.566H108.46Z" fill="#29ABE2"/>
</g>
<g style="mix-blend-mode:multiply" opacity="0.2">
<path d="M638 121.602C524.946 121.602 469.058 115.989 412.914 149.156C467.782 121.602 525.967 127.725 638 121.602Z" fill="#29ABE2"/>
</g>
<g style="mix-blend-mode:multiply" opacity="0.2">
<path d="M112.798 255.8C129.386 251.718 146.995 249.167 165.37 246.105C238.357 256.311 315.172 202.223 380.503 167.525C446.345 132.062 502.234 113.693 638.255 117.265V116.244C501.723 111.907 446.09 130.786 379.993 166.25C314.662 201.202 237.591 254.78 164.349 243.809C97.4864 250.953 43.384 268.812 0.255203 323.92V331.064C31.3896 288.202 68.6488 264.985 113.054 255.545L112.798 255.8Z" fill="#29ABE2"/>
</g>
<g style="mix-blend-mode:multiply" opacity="0.2">
<path d="M638 124.153V120.836C489.218 121.092 434.861 127.725 361.363 181.047C429.757 145.584 494.322 145.074 638 124.408V124.153Z" fill="#29ABE2"/>
</g>
<g style="mix-blend-mode:multiply" opacity="0.2">
<path d="M118.413 254.525C135.001 251.208 152.354 248.657 170.474 246.105C243.716 256.055 319 201.458 383.566 168.036C448.386 133.593 504.275 117.265 638 119.306V118.285C504.02 115.479 448.131 132.062 383.055 166.76C318.234 200.437 242.695 254.78 169.198 243.809C100.294 249.932 43.8944 265.495 0 319.328V327.237C32.4104 284.375 71.456 262.434 118.413 254.525Z" fill="#29ABE2"/>
</g>
<g style="mix-blend-mode:multiply" opacity="0.2">
<path d="M120.454 254.27C137.042 250.953 154.651 248.657 172.77 246.105C246.013 255.8 320.531 201.458 384.842 168.291C449.407 134.103 505.041 119.051 637.745 120.326V119.306C504.786 117.009 448.897 132.828 384.331 167.015C319.766 199.927 244.992 254.525 171.75 243.809C101.57 249.677 44.4048 264.22 -0.255196 317.797V325.961C32.6656 283.099 72.4768 261.668 120.199 254.27H120.454Z" fill="#29ABE2"/>
</g>
<g style="mix-blend-mode:multiply" opacity="0.2">
<path d="M122.751 254.014C139.594 250.953 157.203 248.657 175.578 246.105C345.541 241.258 388.159 102.467 638 119.05V118.03C387.394 100.171 345.03 241.003 174.557 243.809C156.182 246.105 138.574 248.146 121.73 250.953C73.4976 257.331 33.176 277.231 0 318.052V324.43C33.4312 281.823 74.008 260.648 122.751 253.759V254.014Z" fill="#29ABE2"/>
</g>
<g style="mix-blend-mode:multiply" opacity="0.2">
<path d="M638 127.215C569.351 129.511 525.712 121.857 486.156 131.807C525.712 123.898 570.372 131.807 638 127.215Z" fill="#29ABE2"/>
</g>
<g style="mix-blend-mode:multiply" opacity="0.3">
<path d="M7.62939e-06 55.2679C26.2856 42.2563 61.248 72.3616 100.804 92.5169C169.708 140.226 252.138 157.065 304.709 135.634C387.394 103.232 462.167 109.611 549.19 158.085C464.209 109.1 395.56 94.8131 301.902 133.338C300.881 133.338 299.86 133.848 298.839 134.103C247.289 153.238 168.177 138.44 101.314 89.9656C62.0136 69.0449 27.3064 37.6639 7.62939e-06 52.2063L7.62939e-06 55.2679Z" fill="#29ABE2"/>
</g>
<g style="mix-blend-mode:multiply" opacity="0.3">
<path d="M108.97 97.6194C178.13 145.329 258.262 153.493 309.558 134.103C416.742 79.25 507.338 146.349 638 192.528V189.466C507.082 144.818 416.486 76.1884 309.558 132.062C258.262 151.962 176.854 143.798 107.184 93.5373C65.3312 71.5961 27.8168 35.3676 7.62939e-06 48.6343V58.0742C27.8168 40.4702 66.352 76.1884 108.97 97.6194Z" fill="#29ABE2"/>
</g>
<g style="mix-blend-mode:multiply" opacity="0.3">
<path d="M105.142 95.8333C171.494 138.95 250.096 155.789 302.922 135.378C411.382 80.5255 499.426 141.246 638 192.528V189.466C498.916 140.226 411.127 77.4639 302.922 133.593C250.096 154.768 170.218 137.42 103.356 91.7512C62.2688 70.0651 26.0304 38.1738 7.62939e-06 52.206V61.901C26.0304 43.5316 63.2896 74.9126 105.142 95.8333Z" fill="#29ABE2"/>
</g>
<g style="mix-blend-mode:multiply" opacity="0.3">
<path d="M115.095 101.701C181.958 144.818 258.007 152.217 309.302 133.337C414.7 79.2498 500.447 145.584 638 193.293V190.232C499.937 144.308 414.445 75.9331 309.047 131.296C257.752 150.686 180.426 143.032 113.054 97.6192C68.3936 75.1677 27.8168 36.1328 7.62939e-06 55.5227V65.7279C27.8168 41.2354 69.4144 79.7601 115.095 101.701Z" fill="#29ABE2"/>
</g>
<g style="mix-blend-mode:multiply" opacity="0.3">
<path d="M153.375 120.836C226.618 165.739 295.522 130.276 341.968 123.898C437.158 79.5049 521.629 165.994 637.745 196.355V193.548C521.374 163.953 436.902 76.4434 341.968 121.857C295.266 128.235 225.597 165.229 151.589 118.03C95.7 96.3435 37.2592 25.4173 7.62939e-06 63.942V75.1677C37.004 29.2442 96.7208 99.9153 153.375 120.836Z" fill="#29ABE2"/>
</g>
<g style="mix-blend-mode:multiply" opacity="0.3">
<path d="M160.01 123.898C232.742 165.994 298.839 127.98 345.286 122.877C438.944 80.0153 521.374 167.27 638 197.375V194.569C520.608 164.719 438.178 76.6986 344.52 120.836C298.074 126.194 231.211 164.974 157.969 120.836C100.038 99.9154 38.0248 24.9071 7.62939e-06 69.2998V81.2909C37.5144 28.4789 101.059 103.742 160.01 123.643V123.898Z" fill="#29ABE2"/>
</g>
<g style="mix-blend-mode:multiply" opacity="0.3">
<path d="M166.39 126.449C238.102 165.484 301.646 125.939 347.838 121.601C440.22 80.2704 520.353 167.78 638 198.141V195.589C519.332 165.484 439.199 77.2088 346.306 120.071C300.115 124.663 235.805 164.463 163.838 123.643C103.866 103.232 38.28 25.1622 7.62939e-06 76.1883V87.9243C38.0248 28.2238 105.398 107.569 166.39 126.704V126.449Z" fill="#29ABE2"/>
</g>
<g style="mix-blend-mode:multiply" opacity="0.3">
<path d="M172.005 128.745C242.44 164.719 303.688 124.408 349.624 120.836C440.986 80.5256 519.332 168.29 638 199.161V196.355C518.311 165.739 440.22 77.2089 348.093 118.795C302.412 122.877 240.398 163.443 169.453 125.684C107.694 106.804 38.5352 25.1623 7.62939e-06 82.5666V95.068C38.28 28.479 108.97 110.376 172.005 128.49V128.745Z" fill="#29ABE2"/>
</g>
<g style="mix-blend-mode:multiply" opacity="0.3">
<path d="M177.874 130.786C247.289 163.698 306.24 122.877 351.666 119.815C442.006 80.7806 518.311 168.801 638 200.182V197.63C518.566 167.27 445.324 79.2498 356.004 115.478C309.302 117.264 250.606 162.422 179.916 129.255C115.35 112.927 40.3216 27.4583 7.62939e-06 89.7101V102.212C38.28 28.734 112.798 113.692 177.874 130.786Z" fill="#29ABE2"/>
</g>
<g style="mix-blend-mode:multiply" opacity="0.3">
<path d="M638 199.927V199.416C565.268 175.689 516.525 134.868 465.995 121.602C515.504 140.226 567.31 183.598 638 199.927Z" fill="#29ABE2"/>
</g>
<g style="mix-blend-mode:multiply" opacity="0.3">
<path d="M7.62939e-06 108.335C7.62939e-06 108.335 0.510408 106.804 1.02081 106.294C37.7696 44.8075 81.9192 88.9451 129.131 108.845C78.3464 86.1386 32.4104 37.919 7.62939e-06 95.5784V108.335Z" fill="#29ABE2"/>
</g>
<g style="mix-blend-mode:multiply" opacity="0.3">
<path d="M465.995 121.601C431.288 107.569 397.857 104.763 362.894 113.182C313.896 121.346 260.559 152.727 189.103 132.572C305.985 161.402 379.738 87.6691 465.995 121.601Z" fill="#29ABE2"/>
</g>
<g style="mix-blend-mode:multiply" opacity="0.3">
<path d="M6.38001 102.977C122.241 71.341 269.236 187.936 356.77 129.511C444.048 71.341 513.207 159.361 638 200.182V197.631C512.442 157.32 443.282 67.0038 354.728 119.816C267.705 187.936 118.668 67.514 3.31761 95.3233C2.29681 97.3643 1.02081 99.9156 7.62939e-06 101.957V115.223C2.04161 110.886 4.08321 106.549 6.38001 102.722V102.977Z" fill="#29ABE2"/>
</g>
<g style="mix-blend-mode:multiply" opacity="0.3">
<path d="M472.12 123.132C439.454 108.59 408.575 103.487 376.675 108.845C326.911 112.672 274.85 150.431 201.353 135.634C314.406 152.472 385.352 83.077 471.865 123.132H472.12Z" fill="#29ABE2"/>
</g>
<g style="mix-blend-mode:multiply" opacity="0.3">
<path d="M7.62939e-06 121.602C3.82801 113.693 7.65601 106.294 11.7392 100.171C59.2064 50.6753 118.413 116.754 174.046 128.235C113.564 115.223 50.2744 39.4496 8.67681 92.7718C5.61441 97.3642 2.80721 102.467 7.62939e-06 107.825V121.602Z" fill="#29ABE2"/>
</g>
<g style="mix-blend-mode:multiply" opacity="0.3">
<path d="M17.3536 98.3847C75.7944 65.4729 161.031 137.42 225.342 139.716C292.459 155.024 338.65 100.426 383.31 109.355C465.995 89.2 533.368 180.282 638 205.029V202.223C532.858 177.475 465.23 85.6282 382.034 107.059C337.374 98.3847 290.928 154.003 223.3 137.93C158.479 134.868 72.4768 59.6049 14.5464 90.9859C9.69761 97.109 4.84881 105.273 7.62939e-06 114.203V127.47C5.61441 115.989 11.2288 105.783 17.3536 98.3847Z" fill="#29ABE2"/>
</g>
<g style="mix-blend-mode:multiply" opacity="0.3">
<path d="M23.2232 97.3644C83.4504 74.1475 166.646 138.951 229.17 139.716C294.246 151.962 338.906 100.171 382.8 107.825C464.974 87.1592 529.54 178.496 638 205.54V201.458C521.884 169.821 463.698 89.9656 390.711 105.018C342.734 92.7721 296.798 150.942 228.659 137.93C163.583 137.93 76.56 66.4936 19.9056 90.2208C13.0152 97.3644 6.1248 107.57 -0.255196 119.816V132.572C7.14561 117.52 14.8016 106.039 22.968 97.3644H23.2232Z" fill="#29ABE2"/>
</g>
<g style="mix-blend-mode:multiply" opacity="0.3">
<path d="M29.0928 97.1091C90.8512 82.3116 172.005 140.481 233.253 139.971C296.798 149.411 340.182 100.171 383.821 107.314C465.23 86.9039 528.264 178.241 638.255 206.305V203.498C527.754 175.689 464.719 83.3321 382.8 105.018C339.161 98.1296 295.522 148.645 231.466 138.185C169.963 138.185 87.7888 77.2089 26.2856 90.2206C17.0984 97.8745 8.4216 109.61 0.255203 124.918V138.695C9.4424 120.071 18.8848 106.039 29.348 97.1091H29.0928Z" fill="#29ABE2"/>
</g>
<g style="mix-blend-mode:multiply" opacity="0.3">
<path d="M400.154 103.998C479.01 94.3028 540.003 183.598 638 207.581V202.988C537.706 175.944 478.245 98.1297 404.747 101.957C368.509 88.4348 335.333 118.03 292.459 131.552C335.843 126.704 372.337 116.499 399.898 103.998H400.154Z" fill="#29ABE2"/>
</g>
<g style="mix-blend-mode:multiply" opacity="0.3">
<path d="M7.62939e-06 143.543C10.9736 121.602 22.4576 105.784 34.9624 97.1091C95.4448 118.795 151.844 129.766 202.629 133.083C146.485 121.091 82.1744 87.1591 31.9 89.9655C20.416 97.6194 9.95281 111.141 7.62939e-06 130.021V143.288V143.543Z" fill="#29ABE2"/>
</g>
<g style="mix-blend-mode:multiply" opacity="0.3">
<path d="M41.0872 97.8746C109.226 100.426 195.228 147.115 257.497 137.93C322.573 138.44 363.915 83.077 411.382 102.977C481.307 101.957 534.899 177.22 638 206.56V203.754C535.41 174.924 481.818 99.9156 411.893 100.681C363.66 80.2706 322.318 137.165 256.476 136.399C193.697 145.329 106.418 96.5989 37.7696 91.2412C23.9888 98.3849 11.484 112.927 -0.255196 134.868V147.625C12.2496 122.367 26.0304 106.039 40.832 98.1297L41.0872 97.8746Z" fill="#29ABE2"/>
</g>
<g style="mix-blend-mode:multiply" opacity="0.3">
<path d="M47.212 99.15C211.816 174.158 339.926 110.631 418.273 101.956C487.432 106.549 544.342 180.537 638 207.07V204.264C544.852 177.985 488.198 104.508 419.038 99.6603C340.182 108.08 210.54 175.179 44.1496 92.5166C28.072 98.6397 13.2704 113.437 7.62939e-06 138.695V152.472C14.2912 123.642 29.8584 106.294 47.212 99.15Z" fill="#29ABE2"/>
</g>
<g style="mix-blend-mode:multiply" opacity="0.3">
<path d="M638 199.416C573.434 171.097 516.78 132.827 461.146 112.162C514.228 135.123 565.268 186.66 638 207.835V199.416Z" fill="#29ABE2"/>
</g>
<g style="mix-blend-mode:multiply" opacity="0.3">
<path d="M288.121 130.786C334.057 115.478 372.082 96.3437 408.065 98.3847C369.785 93.7923 330.484 101.446 288.121 130.786Z" fill="#29ABE2"/>
</g>
<g style="mix-blend-mode:multiply" opacity="0.3">
<path d="M68.3936 101.191C166.135 145.584 239.122 152.983 288.376 130.787C232.487 159.361 146.995 121.857 68.3936 101.191Z" fill="#29ABE2"/>
</g>
<g style="mix-blend-mode:multiply" opacity="0.3">
<path d="M7.62939e-06 160.381C17.6088 125.173 37.5144 107.569 60.2272 102.977C64.5656 102.467 69.4144 103.742 74.008 103.997C68.3936 101.701 63.0344 98.8948 57.1648 96.5986C35.728 100.17 16.8432 115.733 7.62939e-06 147.114L7.62939e-06 160.381Z" fill="#29ABE2"/>
</g>
<g style="mix-blend-mode:multiply" opacity="0.3">
<path d="M638 200.437C572.158 171.862 513.462 128.235 455.022 107.059C510.655 128.745 560.93 184.108 638 207.836V200.437Z" fill="#29ABE2"/>
</g>
<g style="mix-blend-mode:multiply" opacity="0.3">
<path d="M302.157 125.429C348.858 107.57 387.649 89.7105 424.653 98.8952C433.074 99.9157 440.986 102.212 448.897 104.763C401.174 88.9451 353.707 88.69 302.157 125.174V125.429Z" fill="#29ABE2"/>
</g>
<g style="mix-blend-mode:multiply" opacity="0.3">
<path d="M73.7528 103.998C180.682 155.789 253.158 150.176 301.902 125.429C246.268 157.83 158.734 130.276 73.7528 103.998Z" fill="#29ABE2"/>
</g>
<g style="mix-blend-mode:multiply" opacity="0.3">
<path d="M66.6072 105.273C239.378 188.446 347.838 88.9449 424.653 97.1091C495.088 105.783 547.149 179.006 638 208.091V206.56C547.149 181.302 496.364 97.1091 422.101 94.3026C345.286 85.3731 253.924 191.252 63.5448 99.4052C39.3008 101.446 18.3744 117.009 7.62939e-06 151.452V164.719C19.3952 126.194 41.3424 108.335 66.6072 105.528V105.273Z" fill="#29ABE2"/>
</g>
<g style="mix-blend-mode:multiply" opacity="0.3">
<path d="M73.4976 107.824C265.408 192.272 349.369 80.5254 425.929 94.8127C499.937 100.17 548.68 183.088 638.255 208.856V206.05C549.446 180.536 500.447 97.6191 426.694 92.2614C349.369 76.6984 265.153 193.803 70.4352 101.956C43.384 102.211 20.416 117.774 0.255203 155.023V168.29C21.1816 126.449 45.4256 108.845 73.7528 107.824H73.4976Z" fill="#29ABE2"/>
</g>
<g style="mix-blend-mode:multiply" opacity="0.3">
<path d="M80.1328 110.631C273.064 193.038 351.666 75.1679 427.715 93.027C502.489 99.4053 549.446 183.088 638 208.601V205.54C550.211 180.026 502.999 96.854 428.481 90.2206C351.41 71.0858 272.809 194.569 77.0704 104.763C47.212 103.232 21.9472 118.03 7.62939e-06 158.596V171.862C22.4576 126.704 48.7432 109.611 80.1328 110.376V110.631Z" fill="#29ABE2"/>
</g>
<g style="mix-blend-mode:multiply" opacity="0.3">
<path d="M87.0232 113.693C280.975 193.293 354.473 69.8104 430.522 90.9862C505.806 98.8953 550.722 183.088 638 208.346V205.029C551.487 180.027 506.317 96.3439 431.288 88.4349C354.473 65.7283 280.72 195.079 83.9608 108.08C50.7848 104.763 23.4784 118.795 7.62939e-06 162.678V176.2C24.244 127.47 52.5712 111.142 87.0232 113.438V113.693Z" fill="#29ABE2"/>
</g>
<g style="mix-blend-mode:multiply" opacity="0.3">
<path d="M94.1688 116.754C289.397 192.783 358.046 64.1974 434.095 89.2002C509.634 98.64 552.253 182.578 637.49 207.581C637.49 207.581 638 207.581 638.255 207.581V204.519C553.529 179.771 510.4 96.3438 435.116 86.6489C358.046 59.8602 289.142 194.569 91.3616 111.397C55.1232 106.294 25.52 119.561 0.510406 166.76V180.027C26.2856 127.98 56.9096 112.672 94.6792 116.754H94.1688Z" fill="#29ABE2"/>
</g>
<g style="mix-blend-mode:multiply" opacity="0.3">
<path d="M101.059 119.816C297.308 191.507 361.874 58.5845 438.178 87.6694C512.697 98.8951 553.274 179.516 633.662 205.54C634.938 206.05 636.724 206.305 638 207.07V204.264C638 204.264 638 204.264 637.745 204.264C560.164 175.179 511.676 102.722 439.454 86.3937C362.384 56.5435 278.934 195.334 97.9968 115.223C58.4408 108.335 26.796 120.326 7.62939e-06 170.587V183.854C27.3064 128.49 60.2272 114.458 101.059 120.326V119.816Z" fill="#29ABE2"/>
</g>
<g style="mix-blend-mode:multiply" opacity="0.3">
<path d="M108.205 123.132C305.219 189.466 365.702 53.2266 442.517 86.1384C516.014 99.1501 555.06 176.965 631.11 203.753C633.151 204.774 635.703 205.284 638 206.05V202.988C638 202.988 636.214 202.478 635.448 201.968C562.461 172.628 515.504 102.722 444.303 84.6076C366.722 49.9099 287.355 193.803 105.142 118.03C62.2688 109.866 28.3272 120.071 7.62939e-06 173.393V186.915C28.8376 128.235 64.0552 115.478 108.205 122.877V123.132Z" fill="#29ABE2"/>
</g>
<g style="mix-blend-mode:multiply" opacity="0.3">
<path d="M7.62939e-06 190.997C30.3688 128.745 67.8832 117.775 115.35 126.194C313.13 186.66 370.295 48.124 447.621 84.6076C460.381 87.414 471.865 92.0064 482.583 97.3641C471.865 91.7512 461.146 86.6486 449.407 83.3319C371.061 44.0419 295.266 191.762 112.288 121.601C66.0968 111.907 29.6032 120.581 7.62939e-06 177.22V190.742L7.62939e-06 190.997Z" fill="#29ABE2"/>
</g>
<g style="mix-blend-mode:multiply" opacity="0.3">
<path d="M630.089 201.968C632.641 203.243 635.448 204.264 638 205.284V201.968C638 201.968 635.703 200.947 634.427 200.437C588.236 180.537 551.232 144.308 510.91 115.989C548.68 144.563 582.111 184.109 630.089 201.713V201.968Z" fill="#29ABE2"/>
</g>
<g style="mix-blend-mode:multiply" opacity="0.3">
<path d="M122.496 129.511C301.902 188.446 377.441 43.0216 454.256 84.863C522.394 106.549 566.034 169.821 630.089 200.437C632.641 201.713 635.448 202.478 638 203.754V200.437C638 200.437 635.703 199.672 634.427 199.161C569.096 169.821 524.691 105.273 455.022 82.822C376.93 39.1947 301.136 189.977 119.689 125.429C70.18 114.458 31.3896 121.602 7.62939e-06 181.302V194.569C31.9 129.256 71.7112 120.071 122.496 129.766V129.511Z" fill="#29ABE2"/>
</g>
<g style="mix-blend-mode:multiply" opacity="0.3">
<path d="M129.897 132.572C309.558 184.874 382.8 37.9189 460.381 84.0975C528.009 107.825 570.372 168.546 630.854 198.906C633.151 199.927 635.703 200.692 638 201.968V198.651C638 198.651 636.214 197.886 635.448 197.631C573.434 168.801 530.306 106.804 461.146 82.0565C382.29 33.8368 309.047 186.66 127.09 128.745C74.008 117.009 33.176 121.602 0.255203 184.619V197.631C33.6864 129 75.7944 122.367 130.152 132.827L129.897 132.572Z" fill="#29ABE2"/>
</g>
<g style="mix-blend-mode:multiply" opacity="0.3">
<path d="M137.298 135.634C317.214 180.792 388.159 32.8162 466.761 83.332C534.134 109.355 575.476 167.78 632.896 197.375C634.682 198.396 636.469 199.161 638.255 200.182V196.355C638.255 196.355 637.745 196.355 637.49 196.1C575.221 173.138 540.769 105.018 468.037 81.0358C386.628 30.2649 336.609 174.669 134.49 131.552C78.0912 119.05 34.7072 121.346 0.255203 187.17V200.182C35.2176 128.49 79.8776 124.408 137.553 135.634H137.298Z" fill="#29ABE2"/>
</g>
<g style="mix-blend-mode:multiply" opacity="0.3">
<path d="M144.443 138.44C324.359 176.2 394.029 28.4791 473.141 83.3321C540.003 111.652 580.58 167.27 634.938 196.355C635.958 196.865 636.979 197.375 637.745 197.886V194.059C579.304 170.842 545.873 106.804 474.162 80.7808C391.987 26.6932 343.244 168.801 141.381 134.613C81.664 121.857 35.728 121.091 -0.255196 189.977V203.754C36.2384 128.49 83.1952 126.959 144.188 138.44H144.443Z" fill="#29ABE2"/>
</g>
<g style="mix-blend-mode:multiply" opacity="0.3">
<path d="M151.844 141.247C331.505 170.587 400.154 24.397 480.286 83.3322C546.894 113.948 586.45 166.505 638 195.079V191.252C584.408 167.525 551.742 108.845 481.307 80.5257C398.367 23.3765 350.39 162.167 149.037 137.675C85.7472 124.918 37.5144 121.347 7.62939e-06 193.548V207.326C38.0248 128.745 87.2784 130.021 151.844 141.502V141.247Z" fill="#29ABE2"/>
</g>
<g style="mix-blend-mode:multiply" opacity="0.3">
<path d="M159.245 143.798C342.734 162.423 411.893 16.9984 494.322 86.649C555.06 119.561 592.574 163.953 638 191.508V187.425C593.595 160.637 555.57 118.03 495.343 84.863C410.106 12.406 344.265 162.423 156.182 140.481C89.5752 127.725 38.7904 121.347 -0.255196 196.61V210.642C39.0456 128.49 90.8512 132.828 158.99 143.798H159.245Z" fill="#29ABE2"/>
</g>
<g style="mix-blend-mode:multiply" opacity="0.3">
<path d="M166.646 146.094C349.879 154.769 419.549 13.9366 502.744 87.9244C560.93 121.346 597.168 160.637 638 187.425V183.088C597.934 157.32 561.44 119.816 504.02 86.1385C418.018 9.34428 351.41 154.513 163.838 143.033C93.6584 131.041 40.5768 121.346 7.62939e-06 200.182V214.214C40.832 128.235 95.1896 135.889 166.646 146.349V146.094Z" fill="#29ABE2"/>
</g>
<g style="mix-blend-mode:multiply" opacity="0.3">
<path d="M173.791 148.39C356.514 146.604 427.205 12.4057 511.421 89.4551C566.799 122.877 601.251 157.32 638 182.833V178.496C602.272 154.003 567.054 121.346 512.952 87.9243C426.184 7.55825 358.301 146.094 171.239 145.329C97.7416 134.358 41.8528 121.091 7.62939e-06 203.498V217.275C42.108 127.725 99.0176 138.95 173.791 148.39Z" fill="#29ABE2"/>
</g>
<g style="mix-blend-mode:multiply" opacity="0.3">
<path d="M181.192 150.176C363.15 137.93 435.371 10.8752 520.608 91.2412C572.414 123.898 605.845 153.238 638 177.22V172.628C606.355 150.176 572.669 122.112 521.884 89.7104C434.095 6.28281 364.681 136.91 178.385 147.115C101.57 137.42 43.1288 120.581 -0.255196 206.305V220.082C43.384 126.959 102.846 142.012 180.937 149.921L181.192 150.176Z" fill="#29ABE2"/>
</g>
<g style="mix-blend-mode:multiply" opacity="0.3">
<path d="M188.593 152.217C369.53 128.745 444.048 10.8752 529.795 93.7925C577.773 124.663 609.418 149.666 638 171.097V166.505C609.928 146.605 578.028 122.877 531.071 92.2617C442.517 6.28283 370.806 127.725 185.786 149.411C105.908 141.502 44.66 120.581 7.62939e-06 209.877V223.399C45.1704 126.704 107.184 146.094 188.593 152.217Z" fill="#29ABE2"/>
</g>
<g style="mix-blend-mode:multiply" opacity="0.3">
<path d="M195.738 153.493C375.399 119.05 452.47 11.3854 539.238 96.0886C582.877 124.663 612.735 145.584 638 164.208V159.616C612.99 142.522 583.132 122.367 540.769 94.5579C451.449 6.79302 376.93 117.52 193.186 150.687C109.991 145.074 46.1912 119.561 7.62939e-06 212.173V225.695C46.4464 125.429 111.267 149.156 195.738 153.238V153.493Z" fill="#29ABE2"/>
</g>
<g style="mix-blend-mode:multiply" opacity="0.3">
<path d="M202.884 155.024C381.269 109.355 461.402 13.1712 548.935 98.895C587.726 123.898 615.542 141.502 638 157.32V153.238C615.542 138.95 587.981 122.112 550.722 97.8745C460.381 9.0891 382.8 107.825 200.332 152.727C114.074 149.411 47.7224 119.561 7.62939e-06 215.745V230.032C47.7224 125.939 115.35 153.748 202.884 155.279V155.024Z" fill="#29ABE2"/>
</g>
<g style="mix-blend-mode:multiply" opacity="0.3">
<path d="M210.03 155.789C387.138 99.1503 470.334 15.4676 559.143 101.702C592.574 122.877 617.839 137.42 638 150.176V146.349C617.839 134.869 592.83 120.836 560.93 100.426C469.823 11.3855 388.67 97.1093 207.733 153.238C118.413 152.983 49.2536 118.795 0.255203 218.296V232.583C49.5088 124.663 119.689 157.065 210.285 155.534L210.03 155.789Z" fill="#29ABE2"/>
</g>
<g style="mix-blend-mode:multiply" opacity="0.3">
<path d="M217.175 156.555C392.753 88.9451 479.776 19.2945 569.606 104.508C597.678 121.602 620.136 133.338 638 143.288V140.226C620.136 131.042 598.444 120.071 571.648 103.488C479.01 15.2124 394.539 86.3938 214.623 154.258C122.496 157.32 50.5296 118.54 7.62939e-06 221.613V235.135C50.5296 123.898 123.772 161.402 217.175 156.555Z" fill="#29ABE2"/>
</g>
<g style="mix-blend-mode:multiply" opacity="0.3">
<path d="M224.066 157.065C398.367 78.4848 489.218 23.6318 580.58 107.57C603.548 120.836 622.178 129.766 638 137.42V134.613C622.433 127.47 604.314 119.051 582.622 106.549C488.708 19.8048 400.154 75.6784 221.769 154.769C127.09 161.402 52.0608 117.265 7.62939e-06 224.164V237.941C52.0608 122.877 128.11 165.484 224.066 157.065Z" fill="#29ABE2"/>
</g>
<g style="mix-blend-mode:multiply" opacity="0.3">
<path d="M230.956 157.32C403.982 68.2792 498.916 29.2443 591.809 110.631C609.418 119.816 624.73 126.704 638 132.062V129.766C625.24 124.663 610.438 118.285 594.106 109.61C498.15 25.6724 405.768 64.9625 228.659 155.024C131.173 165.739 53.3368 116.244 7.62939e-06 226.715V240.492C53.3368 121.601 132.449 169.566 230.956 157.065V157.32Z" fill="#29ABE2"/>
</g>
<g style="mix-blend-mode:multiply" opacity="0.3">
<path d="M237.846 157.32C409.596 57.5639 508.358 35.8778 603.803 113.437C616.308 119.305 627.792 123.898 638 127.725V125.684C628.302 122.112 617.584 118.03 606.1 112.672C507.848 33.0713 411.382 54.5023 235.55 155.534C135.511 170.587 54.6128 115.734 7.62939e-06 229.522V243.809C54.6128 121.091 136.787 174.414 237.846 157.575V157.32Z" fill="#29ABE2"/>
</g>
<g style="mix-blend-mode:multiply" opacity="0.3">
<path d="M244.482 157.065C415.21 47.3585 518.311 43.7867 616.053 115.733C623.964 119.05 630.854 121.346 638 123.642V121.601C631.875 119.56 625.495 117.774 618.86 114.968C517.801 40.9803 417.252 43.5316 242.44 155.024C140.105 174.924 56.144 114.713 7.62939e-06 232.073V246.105C55.8888 119.56 141.126 178.24 244.482 156.554V157.065Z" fill="#29ABE2"/>
</g>
<g style="mix-blend-mode:multiply" opacity="0.3">
<path d="M251.372 156.554C421.08 36.8981 528.264 52.7162 629.323 117.774C632.386 118.795 635.193 119.56 638 120.326V118.54C635.958 118.03 634.172 117.519 632.13 117.009C527.754 50.42 422.866 32.816 249.075 154.768C144.443 179.771 57.1648 113.947 7.62939e-06 235.389V249.167C57.1648 118.795 145.719 183.343 251.372 156.554Z" fill="#29ABE2"/>
</g>
<g style="mix-blend-mode:multiply" opacity="0.3">
<path d="M258.007 155.789C424.142 28.4789 534.389 61.6459 638 116.499V114.203C532.092 59.6048 424.398 25.9276 255.71 154.258C148.782 184.619 58.4408 113.182 7.62939e-06 237.941V252.228C58.4408 118.03 150.058 188.191 258.007 156.044V155.789Z" fill="#29ABE2"/>
</g>
<g style="mix-blend-mode:multiply" opacity="0.3">
<path d="M264.387 155.023C422.611 24.907 533.878 68.2791 638 111.396V109.1C531.837 65.7279 422.866 21.5903 262.346 153.493C153.63 189.466 59.972 112.162 7.62939e-06 240.747V254.779C59.7168 116.754 154.651 193.038 264.387 155.279V155.023Z" fill="#29ABE2"/>
</g>
<g style="mix-blend-mode:multiply" opacity="0.3">
<path d="M270.767 154.003C422.101 23.1213 532.602 71.8512 638 108.335V106.549C530.561 68.2794 420.57 21.5905 268.726 152.217C157.969 194.314 61.248 110.886 7.62939e-06 243.044V257.076C60.9928 114.713 158.99 197.375 270.767 153.748V154.003Z" fill="#29ABE2"/>
</g>
<g style="mix-blend-mode:multiply" opacity="0.3">
<path d="M277.147 152.727C422.611 24.652 530.561 71.0857 638 106.804V105.018C528.519 67.5139 421.08 22.8661 275.106 151.197C162.562 199.161 62.524 109.61 7.62939e-06 246.105V260.648C62.0136 113.948 163.583 202.478 277.147 152.727Z" fill="#29ABE2"/>
</g>
<g style="mix-blend-mode:multiply" opacity="0.3">
<path d="M283.527 151.197C422.866 26.183 528.264 70.3206 638 105.273V103.488C526.478 66.4936 421.335 24.6523 281.486 149.666C167.156 204.009 63.8 108.59 7.62939e-06 249.167V264.22C63.2896 112.672 167.922 207.326 283.527 151.197Z" fill="#29ABE2"/>
</g>
</g>
</svg>
